<svg width="24" height="25" viewBox="0 0 24 25" fill="none" xmlns="http://www.w3.org/2000/svg">
<path d="M4 21.3296C3.45 21.3296 2.97917 21.1338 2.5875 20.7421C2.19583 20.3504 2 19.8796 2 19.3296V8.32959C2 7.77959 2.19583 7.30876 2.5875 6.91709C2.97917 6.52542 3.45 6.32959 4 6.32959H8V4.32959C8 3.77959 8.19583 3.30876 8.5875 2.91709C8.97917 2.52542 9.45 2.32959 10 2.32959H14C14.55 2.32959 15.0208 2.52542 15.4125 2.91709C15.8042 3.30876 16 3.77959 16 4.32959V6.32959H20C20.55 6.32959 21.0208 6.52542 21.4125 6.91709C21.8042 7.30876 22 7.77959 22 8.32959V19.3296C22 19.8796 21.8042 20.3504 21.4125 20.7421C21.0208 21.1338 20.55 21.3296 20 21.3296H4ZM4 19.3296H20V8.32959H4V19.3296ZM10 6.32959H14V4.32959H10V6.32959Z" fill="white"/>
</svg>
