<svg width="24" height="26" viewBox="0 0 24 26" fill="none" xmlns="http://www.w3.org/2000/svg">
<path d="M6.45312 15.7019C6.09896 15.7019 5.80208 15.5821 5.5625 15.3425C5.32292 15.1029 5.20312 14.8061 5.20312 14.4519C5.20312 14.0977 5.32292 13.8009 5.5625 13.5613C5.80208 13.3217 6.09896 13.2019 6.45312 13.2019C6.80729 13.2019 7.10417 13.3217 7.34375 13.5613C7.58333 13.8009 7.70312 14.0977 7.70312 14.4519C7.70312 14.8061 7.58333 15.1029 7.34375 15.3425C7.10417 15.5821 6.80729 15.7019 6.45312 15.7019ZM11.9844 15.7019C11.6302 15.7019 11.3333 15.5821 11.0938 15.3425C10.8542 15.1029 10.7344 14.8061 10.7344 14.4519C10.7344 14.0977 10.8542 13.8009 11.0938 13.5613C11.3333 13.3217 11.6302 13.2019 11.9844 13.2019C12.3385 13.2019 12.6354 13.3217 12.875 13.5613C13.1146 13.8009 13.2344 14.0977 13.2344 14.4519C13.2344 14.8061 13.1146 15.1029 12.875 15.3425C12.6354 15.5821 12.3385 15.7019 11.9844 15.7019ZM17.2969 15.7019C16.9427 15.7019 16.6458 15.5821 16.4062 15.3425C16.1667 15.1029 16.0469 14.8061 16.0469 14.4519C16.0469 14.0977 16.1667 13.8009 16.4062 13.5613C16.6458 13.3217 16.9427 13.2019 17.2969 13.2019C17.651 13.2019 17.9479 13.3217 18.1875 13.5613C18.4271 13.8009 18.5469 14.0977 18.5469 14.4519C18.5469 14.8061 18.4271 15.1029 18.1875 15.3425C17.9479 15.5821 17.651 15.7019 17.2969 15.7019ZM2.51562 25.5144C2.01562 25.5144 1.57812 25.3269 1.20312 24.9519C0.828125 24.5769 0.640625 24.1394 0.640625 23.6394V4.2644C0.640625 3.7644 0.828125 3.3269 1.20312 2.9519C1.57812 2.5769 2.01562 2.3894 2.51562 2.3894H4.54688V0.514404H6.57812V2.3894H17.2031V0.514404H19.2344V2.3894H21.2656C21.7656 2.3894 22.2031 2.5769 22.5781 2.9519C22.9531 3.3269 23.1406 3.7644 23.1406 4.2644V23.6394C23.1406 24.1394 22.9531 24.5769 22.5781 24.9519C22.2031 25.3269 21.7656 25.5144 21.2656 25.5144H2.51562ZM2.51562 23.6394H21.2656V10.2019H2.51562V23.6394ZM2.51562 8.3269H21.2656V4.2644H2.51562V8.3269Z" fill="#574B62"/>
</svg>
