<svg width="24" height="25" viewBox="0 0 24 25" fill="none" xmlns="http://www.w3.org/2000/svg">
<path d="M1 20.8898V18.0898C1 17.5231 1.14583 17.0023 1.4375 16.5273C1.72917 16.0523 2.11667 15.6898 2.6 15.4398C3.63333 14.9231 4.68333 14.5356 5.75 14.2773C6.81667 14.0189 7.9 13.8898 9 13.8898C10.1 13.8898 11.1833 14.0189 12.25 14.2773C13.3167 14.5356 14.3667 14.9231 15.4 15.4398C15.8833 15.6898 16.2708 16.0523 16.5625 16.5273C16.8542 17.0023 17 17.5231 17 18.0898V20.8898H1ZM19 20.8898V17.8898C19 17.1564 18.7958 16.4523 18.3875 15.7773C17.9792 15.1023 17.4 14.5231 16.65 14.0398C17.5 14.1398 18.3 14.3106 19.05 14.5523C19.8 14.7939 20.5 15.0898 21.15 15.4398C21.75 15.7731 22.2083 16.1439 22.525 16.5523C22.8417 16.9606 23 17.4064 23 17.8898V20.8898H19ZM9 12.8898C7.9 12.8898 6.95833 12.4981 6.175 11.7148C5.39167 10.9314 5 9.98977 5 8.88977C5 7.78977 5.39167 6.8481 6.175 6.06477C6.95833 5.28144 7.9 4.88977 9 4.88977C10.1 4.88977 11.0417 5.28144 11.825 6.06477C12.6083 6.8481 13 7.78977 13 8.88977C13 9.98977 12.6083 10.9314 11.825 11.7148C11.0417 12.4981 10.1 12.8898 9 12.8898ZM19 8.88977C19 9.98977 18.6083 10.9314 17.825 11.7148C17.0417 12.4981 16.1 12.8898 15 12.8898C14.8167 12.8898 14.5833 12.8689 14.3 12.8273C14.0167 12.7856 13.7833 12.7398 13.6 12.6898C14.05 12.1564 14.3958 11.5648 14.6375 10.9148C14.8792 10.2648 15 9.58977 15 8.88977C15 8.18977 14.8792 7.51477 14.6375 6.86477C14.3958 6.21477 14.05 5.6231 13.6 5.08977C13.8333 5.00644 14.0667 4.95227 14.3 4.92727C14.5333 4.90227 14.7667 4.88977 15 4.88977C16.1 4.88977 17.0417 5.28144 17.825 6.06477C18.6083 6.8481 19 7.78977 19 8.88977ZM3 18.8898H15V18.0898C15 17.9064 14.9542 17.7398 14.8625 17.5898C14.7708 17.4398 14.65 17.3231 14.5 17.2398C13.6 16.7898 12.6917 16.4523 11.775 16.2273C10.8583 16.0023 9.93333 15.8898 9 15.8898C8.06667 15.8898 7.14167 16.0023 6.225 16.2273C5.30833 16.4523 4.4 16.7898 3.5 17.2398C3.35 17.3231 3.22917 17.4398 3.1375 17.5898C3.04583 17.7398 3 17.9064 3 18.0898V18.8898ZM9 10.8898C9.55 10.8898 10.0208 10.6939 10.4125 10.3023C10.8042 9.9106 11 9.43977 11 8.88977C11 8.33977 10.8042 7.86894 10.4125 7.47727C10.0208 7.0856 9.55 6.88977 9 6.88977C8.45 6.88977 7.97917 7.0856 7.5875 7.47727C7.19583 7.86894 7 8.33977 7 8.88977C7 9.43977 7.19583 9.9106 7.5875 10.3023C7.97917 10.6939 8.45 10.8898 9 10.8898Z" fill="#333333"/>
</svg>
