<svg width="24" height="25" viewBox="0 0 24 25" fill="none" xmlns="http://www.w3.org/2000/svg">
<path d="M1 20.694V17.894C1 17.3273 1.14583 16.8065 1.4375 16.3315C1.72917 15.8565 2.11667 15.494 2.6 15.244C3.63333 14.7273 4.68333 14.3398 5.75 14.0815C6.81667 13.8232 7.9 13.694 9 13.694C10.1 13.694 11.1833 13.8232 12.25 14.0815C13.3167 14.3398 14.3667 14.7273 15.4 15.244C15.8833 15.494 16.2708 15.8565 16.5625 16.3315C16.8542 16.8065 17 17.3273 17 17.894V20.694H1ZM19 20.694V17.694C19 16.9607 18.7958 16.2565 18.3875 15.5815C17.9792 14.9065 17.4 14.3273 16.65 13.844C17.5 13.944 18.3 14.1148 19.05 14.3565C19.8 14.5982 20.5 14.894 21.15 15.244C21.75 15.5773 22.2083 15.9482 22.525 16.3565C22.8417 16.7648 23 17.2107 23 17.694V20.694H19ZM9 12.694C7.9 12.694 6.95833 12.3023 6.175 11.519C5.39167 10.7357 5 9.794 5 8.694C5 7.594 5.39167 6.65233 6.175 5.869C6.95833 5.08567 7.9 4.694 9 4.694C10.1 4.694 11.0417 5.08567 11.825 5.869C12.6083 6.65233 13 7.594 13 8.694C13 9.794 12.6083 10.7357 11.825 11.519C11.0417 12.3023 10.1 12.694 9 12.694ZM19 8.694C19 9.794 18.6083 10.7357 17.825 11.519C17.0417 12.3023 16.1 12.694 15 12.694C14.8167 12.694 14.5833 12.6732 14.3 12.6315C14.0167 12.5898 13.7833 12.544 13.6 12.494C14.05 11.9607 14.3958 11.369 14.6375 10.719C14.8792 10.069 15 9.394 15 8.694C15 7.994 14.8792 7.319 14.6375 6.669C14.3958 6.019 14.05 5.42733 13.6 4.894C13.8333 4.81067 14.0667 4.7565 14.3 4.7315C14.5333 4.7065 14.7667 4.694 15 4.694C16.1 4.694 17.0417 5.08567 17.825 5.869C18.6083 6.65233 19 7.594 19 8.694ZM3 18.694H15V17.894C15 17.7107 14.9542 17.544 14.8625 17.394C14.7708 17.244 14.65 17.1273 14.5 17.044C13.6 16.594 12.6917 16.2565 11.775 16.0315C10.8583 15.8065 9.93333 15.694 9 15.694C8.06667 15.694 7.14167 15.8065 6.225 16.0315C5.30833 16.2565 4.4 16.594 3.5 17.044C3.35 17.1273 3.22917 17.244 3.1375 17.394C3.04583 17.544 3 17.7107 3 17.894V18.694ZM9 10.694C9.55 10.694 10.0208 10.4982 10.4125 10.1065C10.8042 9.71483 11 9.244 11 8.694C11 8.144 10.8042 7.67317 10.4125 7.2815C10.0208 6.88983 9.55 6.694 9 6.694C8.45 6.694 7.97917 6.88983 7.5875 7.2815C7.19583 7.67317 7 8.144 7 8.694C7 9.244 7.19583 9.71483 7.5875 10.1065C7.97917 10.4982 8.45 10.694 9 10.694Z" fill="white"/>
</svg>
