<svg width="34" height="34" viewBox="0 0 34 34" fill="none" xmlns="http://www.w3.org/2000/svg">
<circle cx="17" cy="17" r="17" fill="#E8E8E8"/>
<path d="M17 21C18.0417 21 18.9271 20.6354 19.6563 19.9063C20.3854 19.1771 20.75 18.2917 20.75 17.25C20.75 16.2083 20.3854 15.3229 19.6563 14.5938C18.9271 13.8646 18.0417 13.5 17 13.5C15.9583 13.5 15.0729 13.8646 14.3438 14.5938C13.6146 15.3229 13.25 16.2083 13.25 17.25C13.25 18.2917 13.6146 19.1771 14.3438 19.9063C15.0729 20.6354 15.9583 21 17 21ZM17 19.5C16.375 19.5 15.8438 19.2813 15.4063 18.8438C14.9688 18.4063 14.75 17.875 14.75 17.25C14.75 16.625 14.9688 16.0938 15.4063 15.6563C15.8438 15.2188 16.375 15 17 15C17.625 15 18.1563 15.2188 18.5938 15.6563C19.0313 16.0938 19.25 16.625 19.25 17.25C19.25 17.875 19.0313 18.4063 18.5938 18.8438C18.1563 19.2813 17.625 19.5 17 19.5ZM17 23.5C14.9722 23.5 13.125 22.934 11.4583 21.8021C9.79168 20.6701 8.58334 19.1528 7.83334 17.25C8.58334 15.3472 9.79168 13.8299 11.4583 12.6979C13.125 11.566 14.9722 11 17 11C19.0278 11 20.875 11.566 22.5417 12.6979C24.2083 13.8299 25.4167 15.3472 26.1667 17.25C25.4167 19.1528 24.2083 20.6701 22.5417 21.8021C20.875 22.934 19.0278 23.5 17 23.5ZM17 21.8333C18.5695 21.8333 20.0104 21.4201 21.3229 20.5938C22.6354 19.7674 23.6389 18.6528 24.3333 17.25C23.6389 15.8472 22.6354 14.7326 21.3229 13.9063C20.0104 13.0799 18.5695 12.6667 17 12.6667C15.4306 12.6667 13.9896 13.0799 12.6771 13.9063C11.3646 14.7326 10.3611 15.8472 9.66668 17.25C10.3611 18.6528 11.3646 19.7674 12.6771 20.5938C13.9896 21.4201 15.4306 21.8333 17 21.8333Z" fill="black"/>
</svg>
