<svg width="15" height="13" viewBox="0 0 15 13" fill="none" xmlns="http://www.w3.org/2000/svg">
<path d="M9.60107 7.32422L8.91357 6.63672C9.18441 5.89714 9.04378 5.28255 8.4917 4.79297C7.93962 4.30339 7.34066 4.17839 6.69482 4.41797L6.00732 3.73047C6.18441 3.61589 6.38232 3.53255 6.60107 3.48047C6.81982 3.42839 7.04378 3.40234 7.27295 3.40234C8.01253 3.40234 8.64014 3.66016 9.15576 4.17578C9.67139 4.69141 9.9292 5.31901 9.9292 6.05859C9.9292 6.28776 9.90055 6.51432 9.84326 6.73828C9.78597 6.96224 9.70524 7.15755 9.60107 7.32422V7.32422ZM11.6167 9.33984L10.9917 8.71484C11.5021 8.33984 11.9474 7.92057 12.3276 7.45703C12.7078 6.99349 12.9865 6.52734 13.1636 6.05859C12.6427 4.90234 11.8615 3.98828 10.8198 3.31641C9.77816 2.64453 8.64795 2.30859 7.4292 2.30859C6.9917 2.30859 6.54378 2.35026 6.08545 2.43359C5.62712 2.51693 5.26774 2.61589 5.00732 2.73047L4.28857 1.99609C4.65316 1.82943 5.1193 1.68359 5.68701 1.55859C6.25472 1.43359 6.80941 1.37109 7.35107 1.37109C8.84066 1.37109 10.2026 1.79557 11.437 2.64453C12.6714 3.49349 13.575 4.63151 14.1479 6.05859C13.8771 6.72526 13.5282 7.33464 13.1011 7.88672C12.674 8.4388 12.1792 8.92318 11.6167 9.33984ZM12.5229 12.8711L9.89795 10.293C9.53337 10.4388 9.12191 10.5508 8.66357 10.6289C8.20524 10.707 7.7417 10.7461 7.27295 10.7461C5.75212 10.7461 4.37191 10.3216 3.13232 9.47266C1.89274 8.6237 0.981283 7.48568 0.397949 6.05859C0.606283 5.51693 0.895345 4.98828 1.26514 4.47266C1.63493 3.95703 2.08545 3.46484 2.6167 2.99609L0.647949 1.02734L1.3042 0.355469L13.1323 12.1836L12.5229 12.8711ZM3.25732 3.65234C2.87191 3.93359 2.49951 4.30339 2.14014 4.76172C1.78076 5.22005 1.52295 5.65234 1.3667 6.05859C1.89795 7.21484 2.69743 8.12891 3.76514 8.80078C4.83285 9.47266 6.04378 9.80859 7.39795 9.80859C7.7417 9.80859 8.08024 9.78776 8.41357 9.74609C8.74691 9.70443 8.99691 9.64193 9.16357 9.55859L8.16357 8.55859C8.04899 8.61068 7.90837 8.64974 7.7417 8.67578C7.57503 8.70182 7.41878 8.71484 7.27295 8.71484C6.54378 8.71484 5.91878 8.45964 5.39795 7.94922C4.87712 7.4388 4.6167 6.80859 4.6167 6.05859C4.6167 5.90234 4.62972 5.74609 4.65576 5.58984C4.6818 5.43359 4.72087 5.29297 4.77295 5.16797L3.25732 3.65234Z" fill="#5A5956"/>
</svg>
