<svg width="20" height="17" viewBox="0 0 20 17" fill="none" xmlns="http://www.w3.org/2000/svg">
<path d="M5 12.7919C5.28333 12.7919 5.52083 12.6961 5.7125 12.5044C5.90417 12.3127 6 12.0752 6 11.7919C6 11.5086 5.90417 11.2711 5.7125 11.0794C5.52083 10.8877 5.28333 10.7919 5 10.7919C4.71667 10.7919 4.47917 10.8877 4.2875 11.0794C4.09583 11.2711 4 11.5086 4 11.7919C4 12.0752 4.09583 12.3127 4.2875 12.5044C4.47917 12.6961 4.71667 12.7919 5 12.7919ZM4 9.7919H6V4.7919H4V9.7919ZM8 11.7919H16V9.7919H8V11.7919ZM8 7.7919H16V5.7919H8V7.7919ZM2 16.7919C1.45 16.7919 0.979167 16.5961 0.5875 16.2044C0.195833 15.8127 0 15.3419 0 14.7919V2.7919C0 2.2419 0.195833 1.77107 0.5875 1.3794C0.979167 0.987734 1.45 0.791901 2 0.791901H18C18.55 0.791901 19.0208 0.987734 19.4125 1.3794C19.8042 1.77107 20 2.2419 20 2.7919V14.7919C20 15.3419 19.8042 15.8127 19.4125 16.2044C19.0208 16.5961 18.55 16.7919 18 16.7919H2ZM2 14.7919H18V2.7919H2V14.7919Z" fill="#333333"/>
</svg>
