<svg width="24" height="25" viewBox="0 0 24 25" fill="none" xmlns="http://www.w3.org/2000/svg">
<path d="M19.6 21.1111L13.3 14.8111C12.8 15.2111 12.225 15.5278 11.575 15.7611C10.925 15.9944 10.2333 16.1111 9.5 16.1111C7.68333 16.1111 6.14583 15.4819 4.8875 14.2236C3.62917 12.9653 3 11.4278 3 9.61111C3 7.79445 3.62917 6.25695 4.8875 4.99861C6.14583 3.74028 7.68333 3.11111 9.5 3.11111C11.3167 3.11111 12.8542 3.74028 14.1125 4.99861C15.3708 6.25695 16 7.79445 16 9.61111C16 10.3444 15.8833 11.0361 15.65 11.6861C15.4167 12.3361 15.1 12.9111 14.7 13.4111L21 19.7111L19.6 21.1111ZM9.5 14.1111C10.75 14.1111 11.8125 13.6736 12.6875 12.7986C13.5625 11.9236 14 10.8611 14 9.61111C14 8.36111 13.5625 7.29861 12.6875 6.42361C11.8125 5.54861 10.75 5.11111 9.5 5.11111C8.25 5.11111 7.1875 5.54861 6.3125 6.42361C5.4375 7.29861 5 8.36111 5 9.61111C5 10.8611 5.4375 11.9236 6.3125 12.7986C7.1875 13.6736 8.25 14.1111 9.5 14.1111Z" fill="black"/>
</svg>
