<svg width="19" height="14" viewBox="0 0 19 14" fill="none" xmlns="http://www.w3.org/2000/svg">
<path d="M14.5249 8.71631V6.00798H11.8166V4.75798H14.5249V2.04964H15.7749V4.75798H18.4832V6.00798H15.7749V8.71631H14.5249ZM6.81657 7.02881C5.8999 7.02881 5.1499 6.73714 4.56657 6.15381C3.98324 5.57048 3.69157 4.82048 3.69157 3.90381C3.69157 2.98714 3.98324 2.23714 4.56657 1.65381C5.1499 1.07048 5.8999 0.778809 6.81657 0.778809C7.73324 0.778809 8.48324 1.07048 9.06657 1.65381C9.6499 2.23714 9.94157 2.98714 9.94157 3.90381C9.94157 4.82048 9.6499 5.57048 9.06657 6.15381C8.48324 6.73714 7.73324 7.02881 6.81657 7.02881ZM0.149902 13.7163V11.758C0.149902 11.2719 0.27143 10.8309 0.514486 10.4351C0.757541 10.0392 1.10824 9.74409 1.56657 9.54964C2.60824 9.09131 3.53532 8.76839 4.34782 8.58089C5.16032 8.39339 5.98324 8.29964 6.81657 8.29964C7.6499 8.29964 8.46935 8.39339 9.2749 8.58089C10.0805 8.76839 11.0041 9.09131 12.0457 9.54964C12.5041 9.75798 12.8582 10.0566 13.1082 10.4455C13.3582 10.8344 13.4832 11.2719 13.4832 11.758V13.7163H0.149902ZM1.3999 12.4663H12.2332V11.758C12.2332 11.5358 12.1707 11.3239 12.0457 11.1226C11.9207 10.9212 11.7541 10.7719 11.5457 10.6746C10.5596 10.2163 9.72629 9.91423 9.04574 9.76839C8.36518 9.62256 7.62212 9.54964 6.81657 9.54964C6.01101 9.54964 5.26449 9.62256 4.57699 9.76839C3.88949 9.91423 3.05268 10.2163 2.06657 10.6746C1.85824 10.7719 1.69504 10.9212 1.57699 11.1226C1.45893 11.3239 1.3999 11.5358 1.3999 11.758V12.4663ZM6.81657 5.77881C7.35824 5.77881 7.80615 5.60173 8.16032 5.24756C8.51449 4.89339 8.69157 4.44548 8.69157 3.90381C8.69157 3.36214 8.51449 2.91423 8.16032 2.56006C7.80615 2.20589 7.35824 2.02881 6.81657 2.02881C6.2749 2.02881 5.82699 2.20589 5.47282 2.56006C5.11865 2.91423 4.94157 3.36214 4.94157 3.90381C4.94157 4.44548 5.11865 4.89339 5.47282 5.24756C5.82699 5.60173 6.2749 5.77881 6.81657 5.77881Z" fill="#353558"/>
</svg>
