<svg width="24" height="25" viewBox="0 0 24 25" fill="none" xmlns="http://www.w3.org/2000/svg">
<path d="M10 12.3408C8.9 12.3408 7.95833 11.9491 7.175 11.1658C6.39167 10.3824 6 9.44076 6 8.34076C6 7.24076 6.39167 6.29909 7.175 5.51576C7.95833 4.73243 8.9 4.34076 10 4.34076C11.1 4.34076 12.0417 4.73243 12.825 5.51576C13.6083 6.29909 14 7.24076 14 8.34076C14 9.44076 13.6083 10.3824 12.825 11.1658C12.0417 11.9491 11.1 12.3408 10 12.3408ZM2 20.3408V17.5408C2 16.9908 2.14167 16.4741 2.425 15.9908C2.70833 15.5074 3.1 15.1408 3.6 14.8908C4.45 14.4574 5.40833 14.0908 6.475 13.7908C7.54167 13.4908 8.71667 13.3408 10 13.3408H10.35C10.45 13.3408 10.55 13.3574 10.65 13.3908C10.5167 13.6908 10.4042 14.0033 10.3125 14.3283C10.2208 14.6533 10.15 14.9908 10.1 15.3408H10C8.81667 15.3408 7.75417 15.4908 6.8125 15.7908C5.87083 16.0908 5.1 16.3908 4.5 16.6908C4.35 16.7741 4.22917 16.8908 4.1375 17.0408C4.04583 17.1908 4 17.3574 4 17.5408V18.3408H10.3C10.4 18.6908 10.5333 19.0366 10.7 19.3783C10.8667 19.7199 11.05 20.0408 11.25 20.3408H2ZM16 21.3408L15.7 19.8408C15.5 19.7574 15.3125 19.6699 15.1375 19.5783C14.9625 19.4866 14.7833 19.3741 14.6 19.2408L13.15 19.6908L12.15 17.9908L13.3 16.9908C13.2667 16.7574 13.25 16.5408 13.25 16.3408C13.25 16.1408 13.2667 15.9241 13.3 15.6908L12.15 14.6908L13.15 12.9908L14.6 13.4408C14.7833 13.3074 14.9625 13.1949 15.1375 13.1033C15.3125 13.0116 15.5 12.9241 15.7 12.8408L16 11.3408H18L18.3 12.8408C18.5 12.9241 18.6875 13.0158 18.8625 13.1158C19.0375 13.2158 19.2167 13.3408 19.4 13.4908L20.85 12.9908L21.85 14.7408L20.7 15.7408C20.7333 15.9408 20.75 16.1491 20.75 16.3658C20.75 16.5824 20.7333 16.7908 20.7 16.9908L21.85 17.9908L20.85 19.6908L19.4 19.2408C19.2167 19.3741 19.0375 19.4866 18.8625 19.5783C18.6875 19.6699 18.5 19.7574 18.3 19.8408L18 21.3408H16ZM17 18.3408C17.55 18.3408 18.0208 18.1449 18.4125 17.7533C18.8042 17.3616 19 16.8908 19 16.3408C19 15.7908 18.8042 15.3199 18.4125 14.9283C18.0208 14.5366 17.55 14.3408 17 14.3408C16.45 14.3408 15.9792 14.5366 15.5875 14.9283C15.1958 15.3199 15 15.7908 15 16.3408C15 16.8908 15.1958 17.3616 15.5875 17.7533C15.9792 18.1449 16.45 18.3408 17 18.3408ZM10 10.3408C10.55 10.3408 11.0208 10.1449 11.4125 9.75326C11.8042 9.36159 12 8.89076 12 8.34076C12 7.79076 11.8042 7.31993 11.4125 6.92826C11.0208 6.53659 10.55 6.34076 10 6.34076C9.45 6.34076 8.97917 6.53659 8.5875 6.92826C8.19583 7.31993 8 7.79076 8 8.34076C8 8.89076 8.19583 9.36159 8.5875 9.75326C8.97917 10.1449 9.45 10.3408 10 10.3408Z" fill="white"/>
</svg>
