<svg width="36" height="35" viewBox="0 0 36 35" fill="none" xmlns="http://www.w3.org/2000/svg">
<rect x="0.322754" width="35" height="35" rx="5" fill="white" fill-opacity="0.18"/>
<rect x="0.322754" width="35" height="35" rx="5" stroke=""/>
<path d="M5.42848 18.0791C5.42848 11.1595 10.7674 5.6 17.2932 5.6C23.8191 5.6 29.158 11.1595 29.158 18.0791C29.158 21.6489 27.7338 24.8631 25.4565 27.1348H9.13C6.85272 24.8631 5.42848 21.6489 5.42848 18.0791Z" stroke="white" stroke-width="1.2"/>
<path d="M9.84358 27.4349C12.0052 21.8983 17.1539 9.81463 20.4554 5.77344" stroke="white" stroke-width="1.2"/>
<path d="M15.4505 27.4344C17.674 22.0895 20.9947 14.458 24.5464 8.09375" stroke="white" stroke-width="1.2"/>
<path d="M6.58329 23.4971C8.71638 17.376 11.8191 10.7186 15.0602 5.89111" stroke="white" stroke-width="1.2"/>
<path d="M27.7945 11.941C27.1206 17.7762 24.4438 22.6347 22.3966 27.6466" stroke="white" stroke-width="1.2"/>
<path d="M25.8015 27.6461C23.6543 21.9697 18.5401 9.58116 15.2608 5.43799" stroke="white" stroke-width="1.2"/>
<path d="M19.2406 27.435C17.0172 21.8764 13.6964 13.9396 10.1447 7.3208" stroke="white" stroke-width="1.2"/>
<path d="M29.0942 21.2464C26.9962 15.8671 23.9444 10.0164 20.7564 5.77393" stroke="white" stroke-width="1.2"/>
<path d="M6.85119 11.3199C7.52505 17.386 10.2019 22.4367 12.249 27.6469" stroke="white" stroke-width="1.2"/>
<line x1="6.33478" y1="27.2223" x2="28.42" y2="27.2223" stroke="white" stroke-width="1.2"/>
</svg>
