<svg width="40" height="40" viewBox="0 0 40 40" fill="none" xmlns="http://www.w3.org/2000/svg">
<path d="M14 28.3333L20 22.3333L26 28.3333L28.3334 26L22.3334 20L28.3334 14L26 11.6667L20 17.6667L14 11.6667L11.6667 14L17.6667 20L11.6667 26L14 28.3333ZM20 36.6667C17.6945 36.6667 15.5278 36.2292 13.5 35.3542C11.4723 34.4792 9.70837 33.2917 8.20837 31.7917C6.70837 30.2917 5.52087 28.5278 4.64587 26.5C3.77087 24.4722 3.33337 22.3055 3.33337 20C3.33337 17.6944 3.77087 15.5278 4.64587 13.5C5.52087 11.4722 6.70837 9.70833 8.20837 8.20833C9.70837 6.70833 11.4723 5.52083 13.5 4.64583C15.5278 3.77083 17.6945 3.33333 20 3.33333C22.3056 3.33333 24.4723 3.77083 26.5 4.64583C28.5278 5.52083 30.2917 6.70833 31.7917 8.20833C33.2917 9.70833 34.4792 11.4722 35.3542 13.5C36.2292 15.5278 36.6667 17.6944 36.6667 20C36.6667 22.3055 36.2292 24.4722 35.3542 26.5C34.4792 28.5278 33.2917 30.2917 31.7917 31.7917C30.2917 33.2917 28.5278 34.4792 26.5 35.3542C24.4723 36.2292 22.3056 36.6667 20 36.6667ZM20 33.3333C23.7223 33.3333 26.875 32.0417 29.4584 29.4583C32.0417 26.875 33.3334 23.7222 33.3334 20C33.3334 16.2778 32.0417 13.125 29.4584 10.5417C26.875 7.95833 23.7223 6.66666 20 6.66666C16.2778 6.66666 13.125 7.95833 10.5417 10.5417C7.95837 13.125 6.66671 16.2778 6.66671 20C6.66671 23.7222 7.95837 26.875 10.5417 29.4583C13.125 32.0417 16.2778 33.3333 20 33.3333Z" fill="white"/>
</svg>
