<svg width="1397" height="536" viewBox="0 0 1397 536" fill="none" xmlns="http://www.w3.org/2000/svg">
<path fill-rule="evenodd" clip-rule="evenodd" d="M1322.89 450.905H1354.43C1377.48 450.905 1396.49 469.544 1396.49 493.047C1396.49 516.144 1377.89 535.19 1354.43 535.19H1331.57C1328.9 535.721 1326.13 536 1323.29 536H248.769C248.206 536 247.643 535.825 247.039 535.638C246.342 535.422 245.591 535.19 244.725 535.19L243.663 535.266L243.661 535.266C238.4 535.644 233.449 536 228.144 536C52.6286 536 -89.3202 393.769 -89.3202 217.905C-89.3202 42.0413 52.6286 -100.19 228.144 -100.19H231.783C232.451 -100.19 232.997 -100.067 233.487 -99.9564C233.887 -99.8662 234.251 -99.7844 234.614 -99.7844H238.658C260.092 -97.7583 277.078 -79.9288 277.078 -58.0471C277.078 -38.5967 263.732 -22.7933 245.938 -17.9307C240.68 -16.3098 233.805 -15.4994 228.144 -15.4994C99.5404 -15.4994 -5.2024 88.236 -5.2024 217.095C-5.2024 345.954 99.136 450.499 227.739 450.499C234.21 450.499 241.085 450.094 247.555 449.689V450.905H248.364H379.145C316.359 392.815 277.078 309.608 277.078 217.095C277.078 41.2309 419.431 -101 594.541 -101H598.181C598.849 -101 599.394 -100.877 599.885 -100.767C600.285 -100.677 600.648 -100.595 601.012 -100.595H605.056C626.49 -98.5687 643.475 -80.7392 643.475 -58.8575C643.475 -39.4071 630.13 -23.6037 612.335 -18.7411C607.078 -17.1202 600.203 -16.3098 594.541 -16.3098C478.883 -16.3098 382.85 68.2489 364.689 179.004H580.791C602.233 179.004 619.615 196.33 619.615 217.703C619.615 239.075 602.233 256.401 580.791 256.401H364.892C383.554 366.559 479.306 450.499 594.541 450.499C601.012 450.499 607.887 450.094 614.357 449.689V450.905H615.166H748.965C683.125 393.83 641.453 309.507 641.453 215.474C641.453 43.6622 780.571 -95.7322 952.042 -95.7322C1123.51 -95.7322 1262.63 43.6622 1262.63 215.474C1262.63 309.507 1220.96 393.83 1155.12 450.905H1322.89ZM723.549 215.879C723.549 341.496 825.056 443.206 950.424 443.206C1075.79 443.206 1177.3 341.496 1177.3 215.879C1177.3 90.2621 1075.79 -11.4472 950.424 -11.4472C825.056 -11.4472 723.549 90.2621 723.549 215.879Z" fill="#5C5C5C" fill-opacity="0.2"/>
</svg>
