<svg width="91" height="47" viewBox="0 0 91 47" fill="none" xmlns="http://www.w3.org/2000/svg">
<g clip-path="url(#clip0_86_5886)">
<path d="M87.8654 40.6124H43.1774C43.1774 40.6124 43.153 40.6124 43.1285 40.6124V40.5228C42.7374 40.5527 42.3218 40.5825 41.9306 40.5825C34.1567 40.5825 27.8495 32.8825 27.8495 23.3918C27.8495 13.9011 34.1567 6.2011 41.9306 6.2011C42.2729 6.2011 42.6885 6.14141 43.0063 6.02203C44.0819 5.66389 44.8887 4.49994 44.8887 3.06738C44.8887 1.45575 43.8619 0.142571 42.5662 -0.00665406C42.4929 -0.00665406 42.4196 -0.00665406 42.3218 -0.00665406C42.2729 -0.00665406 42.224 -0.036499 42.1507 -0.036499C42.0773 -0.036499 42.004 -0.036499 41.9306 -0.036499C31.3454 -0.036499 22.7402 10.4391 22.7402 23.3918C22.7402 36.3445 31.3209 46.8201 41.9306 46.8201C42.2729 46.8201 42.5907 46.7903 42.9329 46.7604C43.0307 46.7604 43.1041 46.8201 43.1774 46.8201H87.8654C89.2833 46.8201 90.4078 45.4174 90.4078 43.7162C90.4078 41.9852 89.2588 40.6124 87.8654 40.6124Z" fill="#E00B14"/>
<path d="M85.9585 40.6124H21.0045C21.0045 40.6124 20.9801 40.6124 20.9556 40.6124V40.5228C20.5645 40.5527 20.1489 40.5825 19.7578 40.5825C11.9838 40.5825 5.67664 32.8825 5.67664 23.3918C5.67664 13.9011 12.0083 6.26079 19.7822 6.26079C20.1245 6.26079 20.54 6.2011 20.8578 6.08172C21.9335 5.72358 22.7402 4.55963 22.7402 3.12707C22.7402 1.51544 21.7135 0.202263 20.4178 0.0530383C20.3445 0.0530383 20.2711 0.0530383 20.1733 0.0530383C20.1245 0.0530383 20.0756 0.0231934 20.0022 0.0231934C19.9289 0.0231934 19.8555 0.0231934 19.7822 0.0231934C9.17247 0.0231934 0.591797 10.4988 0.591797 23.4515C0.591797 36.4042 9.17247 46.8798 19.7822 46.8798C20.1245 46.8798 20.4423 46.85 20.7845 46.8201C20.8823 46.8201 20.9556 46.8798 21.029 46.8798H85.983C87.4009 46.8798 88.5254 45.4771 88.5254 43.7759C88.5254 42.0449 87.3764 40.672 85.983 40.672L85.9585 40.6124Z" fill="#E00B14"/>
<path d="M41.0996 20.5864H27.1652C25.8691 20.5864 24.8184 21.8624 24.8184 23.4366C24.8184 25.0107 25.8691 26.2868 27.1652 26.2868H41.0996C42.3958 26.2868 43.4465 25.0107 43.4465 23.4366C43.4465 21.8624 42.3958 20.5864 41.0996 20.5864Z" fill="#E00B14"/>
<path d="M63.5414 0.351501C53.1762 0.351501 44.7666 10.6182 44.7666 23.2724C44.7666 35.9267 53.1762 46.1934 63.5414 46.1934C73.9067 46.1934 82.3162 35.9267 82.3162 23.2724C82.3162 10.6182 73.9067 0.351501 63.5414 0.351501ZM63.4436 40.0453C55.8653 40.0453 49.7292 32.5542 49.7292 23.3023C49.7292 14.0503 55.8653 6.55926 63.4436 6.55926C71.022 6.55926 77.158 14.0503 77.158 23.3023C77.158 32.5542 71.022 40.0453 63.4436 40.0453Z" fill="#E00B14"/>
</g>
<defs>
<clipPath id="clip0_86_5886">
<rect width="89.816" height="46.8268" fill="white" transform="translate(0.591797 0.0231934)"/>
</clipPath>
</defs>
</svg>
