<svg width="249" height="107" viewBox="0 0 249 107" fill="none" xmlns="http://www.w3.org/2000/svg">
<g clip-path="url(#clip0_32_57)">
<path d="M241.415 92.1638H117.8C117.8 92.1638 117.732 92.1638 117.664 92.1638V91.9605C116.582 92.0283 115.433 92.0961 114.351 92.0961C92.8467 92.0961 75.3999 74.612 75.3999 53.062C75.3999 31.5119 92.8467 14.0279 114.351 14.0279C115.298 14.0279 116.447 13.8923 117.326 13.6213C120.302 12.8081 122.533 10.1651 122.533 6.91229C122.533 3.25285 119.693 0.271077 116.109 -0.067761C115.906 -0.067761 115.703 -0.067761 115.433 -0.067761C115.298 -0.067761 115.162 -0.135529 114.96 -0.135529C114.757 -0.135529 114.554 -0.135529 114.351 -0.135529C85.07 -0.135529 61.2667 23.6509 61.2667 53.062C61.2667 82.4731 85.0024 106.259 114.351 106.259C115.298 106.259 116.177 106.192 117.123 106.124C117.394 106.124 117.597 106.259 117.8 106.259H241.415C245.337 106.259 248.448 103.074 248.448 99.2117C248.448 95.2811 245.27 92.1638 241.415 92.1638Z" fill="#E00B14"/>
<path d="M236.14 92.1638H56.4654C56.4654 92.1638 56.3978 92.1638 56.3302 92.1638V91.9605C55.2482 92.0283 54.0986 92.0961 53.0166 92.0961C31.5124 92.0961 14.0656 74.612 14.0656 53.062C14.0656 31.5119 31.5801 14.1634 53.0842 14.1634C54.031 14.1634 55.1806 14.0279 56.0597 13.7568C59.0351 12.9436 61.2667 10.3007 61.2667 7.04782C61.2667 3.38838 58.4265 0.406605 54.8424 0.0677675C54.6396 0.0677675 54.4367 0.0677675 54.1662 0.0677675C54.031 0.0677675 53.8957 0 53.6929 0C53.49 0 53.2871 0 53.0842 0C23.7358 0 0 23.7864 0 53.1975C0 82.6086 23.7358 106.395 53.0842 106.395C54.031 106.395 54.9101 106.327 55.8568 106.259C56.1273 106.259 56.3302 106.395 56.533 106.395H236.208C240.13 106.395 243.241 103.21 243.241 99.3472C243.241 95.4167 240.062 92.2994 236.208 92.2994L236.14 92.1638Z" fill="#E00B14"/>
<path d="M112.052 46.6918H73.5065C69.9211 46.6918 67.0146 49.5894 67.0146 53.1636C67.0146 56.7379 69.9211 59.6354 73.5065 59.6354H112.052C115.637 59.6354 118.544 56.7379 118.544 53.1636C118.544 49.5894 115.637 46.6918 112.052 46.6918Z" fill="#E00B14"/>
<path d="M174.13 0.745453C145.458 0.745453 122.195 24.0575 122.195 52.7909C122.195 81.5243 145.458 104.836 174.13 104.836C202.802 104.836 226.064 81.5243 226.064 52.7909C226.064 24.0575 202.802 0.745453 174.13 0.745453ZM173.859 90.8763C152.896 90.8763 135.923 73.8666 135.923 52.8587C135.923 31.8507 152.896 14.8411 173.859 14.8411C194.823 14.8411 211.796 31.8507 211.796 52.8587C211.796 73.8666 194.823 90.8763 173.859 90.8763Z" fill="#E00B14"/>
</g>
<defs>
<clipPath id="clip0_32_57">
<rect width="248.448" height="106.327" fill="white"/>
</clipPath>
</defs>
</svg>
