<svg width="332" height="332" viewBox="0 0 332 332" fill="none" xmlns="http://www.w3.org/2000/svg">
<path d="M166 287.552C98.9737 287.552 44.4482 233.026 44.4482 166.003C44.4482 98.98 98.9737 44.4482 166 44.4482C233.027 44.4482 287.552 98.9748 287.552 166.003C287.552 233.031 233.027 287.557 166 287.557V287.552Z" fill="url(#paint0_linear_3808_194)"/>
<path d="M249.001 249.003C294.84 203.163 294.84 128.842 249.001 83.0021C203.162 37.1621 128.843 37.1621 83.0037 83.0021C37.1647 128.842 37.1647 203.163 83.0037 249.003C128.843 294.843 203.162 294.843 249.001 249.003Z" fill="url(#paint1_linear_3808_194)"/>
<path d="M166.001 279.209C103.578 279.209 52.7969 228.428 52.7969 166.003C52.7969 103.578 103.578 52.7964 166.001 52.7964C228.424 52.7964 279.205 103.578 279.205 166.003C279.205 228.428 228.424 279.209 166.001 279.209Z" fill="url(#paint2_linear_3808_194)"/>
<path d="M149.09 261.912C142.416 261.912 136.211 258.917 132.062 253.692C128.794 249.576 123.925 247.225 118.69 247.225C108.376 247.225 99.6528 240.258 97.4009 230.279C96.2343 225.13 92.8564 220.892 88.1147 218.622C78.8575 214.193 74.0054 204.121 76.3038 194.124C77.482 188.998 76.2805 183.721 73.0072 179.622C66.5881 171.588 66.5881 160.418 72.9723 152.43C76.2806 148.291 77.482 143.014 76.3038 137.905C74.0054 127.914 78.8285 117.871 88.0276 113.424L88.1089 113.384C92.8448 111.12 96.2285 106.882 97.3835 101.756C99.647 91.7532 108.364 84.7811 118.591 84.7811C123.913 84.7811 128.782 82.4299 132.033 78.3314C136.194 73.0892 142.404 70.0937 149.079 70.0937C152.387 70.0937 155.573 70.8252 158.556 72.2765C160.861 73.3969 163.437 73.9832 165.997 73.9832C168.557 73.9832 171.133 73.3911 173.438 72.2707C176.421 70.8252 179.607 70.0879 182.915 70.0879C189.59 70.0879 195.794 73.0834 199.944 78.3082C203.211 82.4241 208.081 84.7753 213.316 84.7753C223.63 84.7753 232.353 91.7416 234.605 101.721C235.771 106.87 239.149 111.108 243.891 113.378C253.148 117.807 258 127.88 255.702 137.876C254.524 143.002 255.725 148.279 258.993 152.378C265.412 160.412 265.412 171.582 259.027 179.57C255.719 183.709 254.518 188.986 255.696 194.095C257.994 204.086 253.171 214.129 243.966 218.576L243.891 218.611C239.155 220.875 235.771 225.112 234.616 230.239C232.353 240.247 223.635 247.213 213.409 247.213C208.087 247.213 203.217 249.564 199.967 253.663C195.806 258.905 189.596 261.901 182.927 261.901C179.619 261.901 176.432 261.169 173.449 259.718C171.145 258.597 168.568 258.011 166.009 258.011C163.449 258.011 160.872 258.603 158.568 259.718C155.585 261.163 152.398 261.901 149.09 261.901V261.912Z" fill="url(#paint3_linear_3808_194)"/>
<path d="M257.647 178.172L257.612 178.213C253.897 182.862 252.509 188.958 253.845 194.763V194.78C255.898 203.677 251.5 212.806 243.265 216.744C237.882 219.317 233.98 224.217 232.662 230.033V230.062C230.644 238.958 222.736 245.27 213.62 245.259H213.573C207.619 245.253 201.991 247.966 198.287 252.627L198.276 252.644C192.595 259.79 182.721 262.042 174.509 258.058C169.138 255.45 162.868 255.45 157.497 258.058C149.285 262.042 139.405 259.79 133.73 252.644L133.713 252.627C130.009 247.966 124.381 245.253 118.427 245.259H118.38C109.264 245.27 101.356 238.958 99.3437 230.062V230.033C98.0198 224.217 94.1181 219.317 88.7349 216.744C80.4998 212.806 76.1024 203.677 78.1495 194.78V194.763C79.4909 188.958 78.1028 182.868 74.3877 178.213L74.3527 178.172C68.6663 171.055 68.6663 160.945 74.3527 153.828L74.3877 153.788C78.1028 149.138 79.4909 143.042 78.1553 137.238V137.22C76.1024 128.324 80.4998 119.194 88.7349 115.256C94.1122 112.684 98.0198 107.784 99.3379 101.967V101.938C101.356 93.042 109.258 86.73 118.38 86.7417H118.427C124.381 86.7475 130.009 84.0349 133.713 79.3738L133.725 79.3563C139.405 72.2101 149.279 69.9584 157.491 73.9427C162.862 76.5504 169.132 76.5504 174.503 73.9427C182.715 69.9584 192.595 72.2101 198.27 79.3563L198.281 79.3738C201.985 84.0349 207.613 86.7475 213.568 86.7417H213.614C222.73 86.73 230.638 93.042 232.651 101.938V101.967C233.974 107.784 237.876 112.684 243.259 115.256C251.494 119.2 255.892 128.324 253.845 137.22V137.238C252.503 143.042 253.891 149.132 257.612 153.788L257.647 153.828C263.334 160.945 263.334 171.055 257.647 178.172Z" fill="url(#paint4_linear_3808_194)"/>
<path d="M149.005 255.254C144.465 255.254 140.245 253.219 137.425 249.668C132.797 243.837 125.896 240.508 118.477 240.508H118.349C111.437 240.508 105.51 235.773 103.977 228.986C102.327 221.692 97.5366 215.687 90.8168 212.474C84.5223 209.465 81.2236 202.614 82.7914 195.821C84.4641 188.556 82.7622 181.076 78.123 175.268C73.7461 169.793 73.7461 162.202 78.0881 156.768C82.7622 150.919 84.4641 143.433 82.7972 136.191C81.2294 129.375 84.5282 122.53 90.8168 119.521L90.9916 119.434C97.6182 116.203 102.345 110.233 103.971 103.032C105.51 96.2217 111.437 91.4814 118.39 91.4814C125.896 91.4814 132.797 88.1462 137.413 82.3389C140.245 78.7705 144.465 76.7356 149.005 76.7356C151.249 76.7356 153.417 77.237 155.445 78.2166C158.715 79.8025 162.363 80.6421 166 80.6421C169.637 80.6421 173.279 79.8025 176.549 78.2166C178.577 77.2312 180.745 76.7356 182.989 76.7356C187.529 76.7356 191.749 78.7705 194.57 82.3214C199.197 88.1521 206.104 91.4814 213.517 91.4814H213.645C220.557 91.4814 226.485 96.2159 228.017 103.003C229.667 110.297 234.458 116.303 241.177 119.521C247.472 122.53 250.771 129.381 249.203 136.174C247.53 143.433 249.238 150.919 253.877 156.727C258.254 162.202 258.254 169.793 253.912 175.227C249.238 181.076 247.536 188.562 249.203 195.804C250.771 202.62 247.472 209.465 241.183 212.474L241.008 212.561C234.382 215.791 229.655 221.762 228.029 228.963C226.49 235.773 220.563 240.514 213.61 240.514C206.104 240.514 199.203 243.849 194.587 249.656C191.755 253.224 187.535 255.265 182.995 255.265C180.751 255.265 178.583 254.764 176.555 253.784C173.285 252.198 169.637 251.359 166.006 251.359C162.375 251.359 158.721 252.198 155.457 253.784C153.429 254.77 151.261 255.265 149.017 255.265L149.005 255.254Z" fill="url(#paint5_linear_3808_194)"/>
<g filter="url(#filter0_d_3808_194)">
<path d="M165.061 96.3981C165.381 95.5225 166.62 95.5225 166.94 96.3981L169.598 103.671C169.742 104.065 170.117 104.327 170.537 104.327H178.865C179.862 104.327 180.245 105.627 179.408 106.167L172.881 110.383C172.488 110.636 172.324 111.127 172.484 111.566L175.024 118.513C175.353 119.414 174.348 120.217 173.542 119.697L166.543 115.177C166.213 114.963 165.788 114.963 165.458 115.177L158.459 119.697C157.653 120.217 156.648 119.414 156.977 118.513L159.517 111.566C159.677 111.127 159.512 110.636 159.12 110.383L152.593 106.167C151.756 105.627 152.139 104.327 153.136 104.327H161.464C161.884 104.327 162.259 104.065 162.403 103.671L165.061 96.3981Z" fill="#7A1908"/>
<path d="M166.47 96.5697L169.129 103.842C169.345 104.434 169.907 104.827 170.537 104.827H178.865C179.364 104.827 179.555 105.477 179.137 105.747L172.61 109.963C172.021 110.343 171.774 111.08 172.015 111.738L174.554 118.685C174.719 119.135 174.216 119.537 173.813 119.276L166.814 114.757C166.319 114.437 165.682 114.437 165.187 114.757L158.188 119.276C157.785 119.537 157.282 119.135 157.447 118.685L159.986 111.738C160.227 111.08 159.98 110.343 159.391 109.963L152.864 105.747C152.446 105.477 152.637 104.827 153.136 104.827H161.464C162.093 104.827 162.656 104.434 162.872 103.842L165.531 96.5697C165.691 96.1319 166.31 96.1319 166.47 96.5697Z" stroke="white"/>
</g>
<mask id="path-9-outside-1_3808_194" maskUnits="userSpaceOnUse" x="127.081" y="191.791" width="80" height="25" fill="black">
<rect fill="white" x="127.081" y="191.791" width="80" height="25"/>
<path d="M136.396 207.013H130.903V203.849H136.396C137.295 203.849 138.022 203.702 138.579 203.409C139.145 203.107 139.56 202.697 139.824 202.179C140.088 201.652 140.219 201.051 140.219 200.377C140.219 199.723 140.088 199.113 139.824 198.546C139.56 197.98 139.145 197.521 138.579 197.169C138.022 196.818 137.295 196.642 136.396 196.642H132.221V214.791H128.193V193.463H136.396C138.056 193.463 139.472 193.761 140.644 194.357C141.826 194.943 142.724 195.758 143.34 196.803C143.965 197.838 144.277 199.02 144.277 200.348C144.277 201.725 143.965 202.911 143.34 203.907C142.724 204.904 141.826 205.67 140.644 206.207C139.472 206.744 138.056 207.013 136.396 207.013ZM164.712 203.585V204.684C164.712 206.295 164.497 207.745 164.067 209.034C163.637 210.314 163.027 211.403 162.236 212.301C161.445 213.199 160.503 213.888 159.409 214.366C158.315 214.845 157.099 215.084 155.761 215.084C154.443 215.084 153.232 214.845 152.129 214.366C151.035 213.888 150.088 213.199 149.287 212.301C148.486 211.403 147.866 210.314 147.426 209.034C146.987 207.745 146.767 206.295 146.767 204.684V203.585C146.767 201.964 146.987 200.514 147.426 199.235C147.866 197.955 148.481 196.866 149.272 195.968C150.063 195.06 151.006 194.366 152.099 193.888C153.203 193.409 154.414 193.17 155.732 193.17C157.07 193.17 158.286 193.409 159.38 193.888C160.473 194.366 161.416 195.06 162.207 195.968C163.008 196.866 163.623 197.955 164.052 199.235C164.492 200.514 164.712 201.964 164.712 203.585ZM160.639 204.684V203.556C160.639 202.394 160.532 201.373 160.317 200.494C160.102 199.606 159.785 198.859 159.365 198.253C158.945 197.648 158.427 197.194 157.812 196.891C157.197 196.578 156.504 196.422 155.732 196.422C154.951 196.422 154.258 196.578 153.652 196.891C153.056 197.194 152.549 197.648 152.129 198.253C151.709 198.859 151.386 199.606 151.162 200.494C150.947 201.373 150.84 202.394 150.84 203.556V204.684C150.84 205.836 150.947 206.857 151.162 207.745C151.386 208.634 151.709 209.386 152.129 210.001C152.558 210.607 153.076 211.066 153.681 211.378C154.287 211.691 154.98 211.847 155.761 211.847C156.543 211.847 157.236 211.691 157.842 211.378C158.447 211.066 158.955 210.607 159.365 210.001C159.785 209.386 160.102 208.634 160.317 207.745C160.532 206.857 160.639 205.836 160.639 204.684ZM185.395 203.585V204.684C185.395 206.295 185.18 207.745 184.751 209.034C184.321 210.314 183.711 211.403 182.92 212.301C182.129 213.199 181.186 213.888 180.092 214.366C178.999 214.845 177.783 215.084 176.445 215.084C175.127 215.084 173.916 214.845 172.812 214.366C171.718 213.888 170.771 213.199 169.97 212.301C169.17 211.403 168.55 210.314 168.11 209.034C167.671 207.745 167.451 206.295 167.451 204.684V203.585C167.451 201.964 167.671 200.514 168.11 199.235C168.55 197.955 169.165 196.866 169.956 195.968C170.747 195.06 171.689 194.366 172.783 193.888C173.886 193.409 175.097 193.17 176.416 193.17C177.754 193.17 178.969 193.409 180.063 193.888C181.157 194.366 182.099 195.06 182.89 195.968C183.691 196.866 184.306 197.955 184.736 199.235C185.176 200.514 185.395 201.964 185.395 203.585ZM181.323 204.684V203.556C181.323 202.394 181.216 201.373 181.001 200.494C180.786 199.606 180.468 198.859 180.049 198.253C179.629 197.648 179.111 197.194 178.496 196.891C177.881 196.578 177.187 196.422 176.416 196.422C175.634 196.422 174.941 196.578 174.336 196.891C173.74 197.194 173.232 197.648 172.812 198.253C172.392 198.859 172.07 199.606 171.845 200.494C171.631 201.373 171.523 202.394 171.523 203.556V204.684C171.523 205.836 171.631 206.857 171.845 207.745C172.07 208.634 172.392 209.386 172.812 210.001C173.242 210.607 173.759 211.066 174.365 211.378C174.97 211.691 175.664 211.847 176.445 211.847C177.226 211.847 177.92 211.691 178.525 211.378C179.131 211.066 179.638 210.607 180.049 210.001C180.468 209.386 180.786 208.634 181.001 207.745C181.216 206.857 181.323 205.836 181.323 204.684ZM188.808 193.463H196.557C198.178 193.463 199.57 193.707 200.732 194.196C201.894 194.684 202.788 195.406 203.413 196.364C204.038 197.321 204.35 198.497 204.35 199.894C204.35 200.997 204.155 201.954 203.764 202.765C203.374 203.575 202.822 204.254 202.109 204.801C201.406 205.348 200.576 205.778 199.619 206.09L198.359 206.735H191.518L191.489 203.556H196.601C197.431 203.556 198.12 203.409 198.667 203.116C199.214 202.823 199.624 202.418 199.897 201.901C200.18 201.383 200.322 200.792 200.322 200.128C200.322 199.415 200.185 198.8 199.912 198.282C199.638 197.755 199.223 197.35 198.667 197.067C198.11 196.783 197.407 196.642 196.557 196.642H192.837V214.791H188.808V193.463ZM200.849 214.791L195.913 205.24L200.176 205.226L205.171 214.586V214.791H200.849Z"/>
</mask>
<path d="M136.396 207.013H130.903V203.849H136.396C137.295 203.849 138.022 203.702 138.579 203.409C139.145 203.107 139.56 202.697 139.824 202.179C140.088 201.652 140.219 201.051 140.219 200.377C140.219 199.723 140.088 199.113 139.824 198.546C139.56 197.98 139.145 197.521 138.579 197.169C138.022 196.818 137.295 196.642 136.396 196.642H132.221V214.791H128.193V193.463H136.396C138.056 193.463 139.472 193.761 140.644 194.357C141.826 194.943 142.724 195.758 143.34 196.803C143.965 197.838 144.277 199.02 144.277 200.348C144.277 201.725 143.965 202.911 143.34 203.907C142.724 204.904 141.826 205.67 140.644 206.207C139.472 206.744 138.056 207.013 136.396 207.013ZM164.712 203.585V204.684C164.712 206.295 164.497 207.745 164.067 209.034C163.637 210.314 163.027 211.403 162.236 212.301C161.445 213.199 160.503 213.888 159.409 214.366C158.315 214.845 157.099 215.084 155.761 215.084C154.443 215.084 153.232 214.845 152.129 214.366C151.035 213.888 150.088 213.199 149.287 212.301C148.486 211.403 147.866 210.314 147.426 209.034C146.987 207.745 146.767 206.295 146.767 204.684V203.585C146.767 201.964 146.987 200.514 147.426 199.235C147.866 197.955 148.481 196.866 149.272 195.968C150.063 195.06 151.006 194.366 152.099 193.888C153.203 193.409 154.414 193.17 155.732 193.17C157.07 193.17 158.286 193.409 159.38 193.888C160.473 194.366 161.416 195.06 162.207 195.968C163.008 196.866 163.623 197.955 164.052 199.235C164.492 200.514 164.712 201.964 164.712 203.585ZM160.639 204.684V203.556C160.639 202.394 160.532 201.373 160.317 200.494C160.102 199.606 159.785 198.859 159.365 198.253C158.945 197.648 158.427 197.194 157.812 196.891C157.197 196.578 156.504 196.422 155.732 196.422C154.951 196.422 154.258 196.578 153.652 196.891C153.056 197.194 152.549 197.648 152.129 198.253C151.709 198.859 151.386 199.606 151.162 200.494C150.947 201.373 150.84 202.394 150.84 203.556V204.684C150.84 205.836 150.947 206.857 151.162 207.745C151.386 208.634 151.709 209.386 152.129 210.001C152.558 210.607 153.076 211.066 153.681 211.378C154.287 211.691 154.98 211.847 155.761 211.847C156.543 211.847 157.236 211.691 157.842 211.378C158.447 211.066 158.955 210.607 159.365 210.001C159.785 209.386 160.102 208.634 160.317 207.745C160.532 206.857 160.639 205.836 160.639 204.684ZM185.395 203.585V204.684C185.395 206.295 185.18 207.745 184.751 209.034C184.321 210.314 183.711 211.403 182.92 212.301C182.129 213.199 181.186 213.888 180.092 214.366C178.999 214.845 177.783 215.084 176.445 215.084C175.127 215.084 173.916 214.845 172.812 214.366C171.718 213.888 170.771 213.199 169.97 212.301C169.17 211.403 168.55 210.314 168.11 209.034C167.671 207.745 167.451 206.295 167.451 204.684V203.585C167.451 201.964 167.671 200.514 168.11 199.235C168.55 197.955 169.165 196.866 169.956 195.968C170.747 195.06 171.689 194.366 172.783 193.888C173.886 193.409 175.097 193.17 176.416 193.17C177.754 193.17 178.969 193.409 180.063 193.888C181.157 194.366 182.099 195.06 182.89 195.968C183.691 196.866 184.306 197.955 184.736 199.235C185.176 200.514 185.395 201.964 185.395 203.585ZM181.323 204.684V203.556C181.323 202.394 181.216 201.373 181.001 200.494C180.786 199.606 180.468 198.859 180.049 198.253C179.629 197.648 179.111 197.194 178.496 196.891C177.881 196.578 177.187 196.422 176.416 196.422C175.634 196.422 174.941 196.578 174.336 196.891C173.74 197.194 173.232 197.648 172.812 198.253C172.392 198.859 172.07 199.606 171.845 200.494C171.631 201.373 171.523 202.394 171.523 203.556V204.684C171.523 205.836 171.631 206.857 171.845 207.745C172.07 208.634 172.392 209.386 172.812 210.001C173.242 210.607 173.759 211.066 174.365 211.378C174.97 211.691 175.664 211.847 176.445 211.847C177.226 211.847 177.92 211.691 178.525 211.378C179.131 211.066 179.638 210.607 180.049 210.001C180.468 209.386 180.786 208.634 181.001 207.745C181.216 206.857 181.323 205.836 181.323 204.684ZM188.808 193.463H196.557C198.178 193.463 199.57 193.707 200.732 194.196C201.894 194.684 202.788 195.406 203.413 196.364C204.038 197.321 204.35 198.497 204.35 199.894C204.35 200.997 204.155 201.954 203.764 202.765C203.374 203.575 202.822 204.254 202.109 204.801C201.406 205.348 200.576 205.778 199.619 206.09L198.359 206.735H191.518L191.489 203.556H196.601C197.431 203.556 198.12 203.409 198.667 203.116C199.214 202.823 199.624 202.418 199.897 201.901C200.18 201.383 200.322 200.792 200.322 200.128C200.322 199.415 200.185 198.8 199.912 198.282C199.638 197.755 199.223 197.35 198.667 197.067C198.11 196.783 197.407 196.642 196.557 196.642H192.837V214.791H188.808V193.463ZM200.849 214.791L195.913 205.24L200.176 205.226L205.171 214.586V214.791H200.849Z" fill="#7A1908"/>
<path d="M130.903 207.013H129.903V208.013H130.903V207.013ZM130.903 203.849V202.849H129.903V203.849H130.903ZM138.579 203.409L139.045 204.294L139.05 204.291L138.579 203.409ZM139.824 202.179L140.715 202.633L140.718 202.626L139.824 202.179ZM139.824 198.546L140.731 198.124L139.824 198.546ZM138.579 197.169L138.045 198.015L138.051 198.019L138.579 197.169ZM132.221 196.642V195.642H131.221V196.642H132.221ZM132.221 214.791V215.791H133.221V214.791H132.221ZM128.193 214.791H127.193V215.791H128.193V214.791ZM128.193 193.463V192.463H127.193V193.463H128.193ZM140.644 194.357L140.191 195.248L140.2 195.253L140.644 194.357ZM143.34 196.803L142.478 197.31L142.484 197.32L143.34 196.803ZM143.34 203.907L142.492 203.376L142.489 203.382L143.34 203.907ZM140.644 206.207L140.23 205.297L140.228 205.298L140.644 206.207ZM136.396 206.013H130.903V208.013H136.396V206.013ZM131.903 207.013V203.849H129.903V207.013H131.903ZM130.903 204.849H136.396V202.849H130.903V204.849ZM136.396 204.849C137.392 204.849 138.296 204.688 139.045 204.294L138.113 202.525C137.748 202.716 137.197 202.849 136.396 202.849V204.849ZM139.05 204.291C139.777 203.903 140.349 203.352 140.715 202.633L138.933 201.725C138.772 202.041 138.513 202.311 138.107 202.527L139.05 204.291ZM140.718 202.626C141.061 201.941 141.219 201.184 141.219 200.377H139.219C139.219 200.918 139.114 201.362 138.93 201.732L140.718 202.626ZM141.219 200.377C141.219 199.584 141.059 198.829 140.731 198.124L138.917 198.968C139.117 199.396 139.219 199.862 139.219 200.377H141.219ZM140.731 198.124C140.379 197.369 139.826 196.767 139.106 196.32L138.051 198.019C138.464 198.275 138.741 198.59 138.917 198.968L140.731 198.124ZM139.113 196.324C138.348 195.841 137.417 195.642 136.396 195.642V197.642C137.172 197.642 137.696 197.795 138.045 198.015L139.113 196.324ZM136.396 195.642H132.221V197.642H136.396V195.642ZM131.221 196.642V214.791H133.221V196.642H131.221ZM132.221 213.791H128.193V215.791H132.221V213.791ZM129.193 214.791V193.463H127.193V214.791H129.193ZM128.193 194.463H136.396V192.463H128.193V194.463ZM136.396 194.463C137.939 194.463 139.192 194.74 140.191 195.248L141.097 193.465C139.753 192.782 138.173 192.463 136.396 192.463V194.463ZM140.2 195.253C141.224 195.76 141.97 196.447 142.478 197.31L144.201 196.296C143.479 195.069 142.428 194.125 141.089 193.461L140.2 195.253ZM142.484 197.32C143.005 198.184 143.277 199.183 143.277 200.348H145.277C145.277 198.856 144.924 197.492 144.196 196.286L142.484 197.32ZM143.277 200.348C143.277 201.57 143.002 202.565 142.493 203.376L144.187 204.439C144.928 203.258 145.277 201.88 145.277 200.348H143.277ZM142.489 203.382C141.989 204.191 141.252 204.833 140.23 205.297L141.058 207.118C142.4 206.508 143.46 205.616 144.19 204.433L142.489 203.382ZM140.228 205.298C139.218 205.761 137.952 206.013 136.396 206.013V208.013C138.16 208.013 139.726 207.728 141.061 207.116L140.228 205.298ZM164.067 209.034L165.015 209.353L165.016 209.351L164.067 209.034ZM159.409 214.366L159.008 213.45L159.409 214.366ZM152.129 214.366L151.728 215.283L151.731 215.284L152.129 214.366ZM147.426 209.034L146.48 209.357L146.481 209.359L147.426 209.034ZM149.272 195.968L150.023 196.629L150.026 196.625L149.272 195.968ZM152.099 193.888L151.701 192.97L151.699 192.972L152.099 193.888ZM159.38 193.888L158.979 194.804L159.38 193.888ZM162.207 195.968L161.453 196.625L161.46 196.633L162.207 195.968ZM164.052 199.235L163.104 199.553L163.107 199.559L164.052 199.235ZM160.317 200.494L159.345 200.729L159.346 200.732L160.317 200.494ZM159.365 198.253L158.543 198.823L159.365 198.253ZM157.812 196.891L157.359 197.783L157.371 197.788L157.812 196.891ZM153.652 196.891L154.105 197.782L154.111 197.779L153.652 196.891ZM152.129 198.253L152.95 198.823L152.129 198.253ZM151.162 200.494L150.192 200.249L150.19 200.257L151.162 200.494ZM151.162 207.745L150.19 207.98L150.192 207.99L151.162 207.745ZM152.129 210.001L151.303 210.565L151.308 210.573L151.313 210.58L152.129 210.001ZM159.365 210.001L158.539 209.437L158.537 209.44L159.365 210.001ZM160.317 207.745L159.345 207.51L160.317 207.745ZM163.712 203.585V204.684H165.712V203.585H163.712ZM163.712 204.684C163.712 206.207 163.508 207.548 163.118 208.718L165.016 209.351C165.485 207.943 165.712 206.383 165.712 204.684H163.712ZM163.119 208.716C162.726 209.885 162.178 210.854 161.486 211.64L162.987 212.962C163.876 211.952 164.548 210.742 165.015 209.353L163.119 208.716ZM161.486 211.64C160.791 212.429 159.968 213.03 159.008 213.45L159.81 215.283C161.038 214.745 162.099 213.97 162.987 212.962L161.486 211.64ZM159.008 213.45C158.055 213.867 156.978 214.084 155.761 214.084V216.084C157.221 216.084 158.575 215.823 159.81 215.283L159.008 213.45ZM155.761 214.084C154.567 214.084 153.493 213.868 152.526 213.449L151.731 215.284C152.971 215.822 154.319 216.084 155.761 216.084V214.084ZM152.529 213.45C151.569 213.03 150.739 212.427 150.033 211.636L148.54 212.966C149.436 213.971 150.501 214.746 151.728 215.283L152.529 213.45ZM150.033 211.636C149.331 210.848 148.774 209.879 148.372 208.71L146.481 209.359C146.958 210.749 147.641 211.957 148.54 212.966L150.033 211.636ZM148.373 208.712C147.975 207.544 147.767 206.205 147.767 204.684H145.767C145.767 206.385 145.999 207.947 146.48 209.357L148.373 208.712ZM147.767 204.684V203.585H145.767V204.684H147.767ZM147.767 203.585C147.767 202.053 147.975 200.716 148.372 199.559L146.481 198.91C145.999 200.312 145.767 201.875 145.767 203.585H147.767ZM148.372 199.559C148.775 198.388 149.329 197.417 150.023 196.629L148.522 195.307C147.634 196.316 146.957 197.523 146.481 198.91L148.372 199.559ZM150.026 196.625C150.721 195.827 151.543 195.223 152.5 194.804L151.699 192.972C150.468 193.51 149.405 194.293 148.518 195.311L150.026 196.625ZM152.497 194.805C153.464 194.386 154.537 194.17 155.732 194.17V192.17C154.29 192.17 152.942 192.432 151.701 192.97L152.497 194.805ZM155.732 194.17C156.949 194.17 158.026 194.387 158.979 194.804L159.78 192.972C158.546 192.432 157.191 192.17 155.732 192.17V194.17ZM158.979 194.804C159.936 195.223 160.758 195.827 161.453 196.625L162.961 195.311C162.074 194.293 161.011 193.51 159.78 192.972L158.979 194.804ZM161.46 196.633C162.161 197.419 162.713 198.386 163.105 199.553L165 198.916C164.533 197.524 163.854 196.314 162.953 195.303L161.46 196.633ZM163.107 199.559C163.504 200.716 163.712 202.053 163.712 203.585H165.712C165.712 201.875 165.48 200.312 164.998 198.91L163.107 199.559ZM161.639 204.684V203.556H159.639V204.684H161.639ZM161.639 203.556C161.639 202.335 161.527 201.232 161.289 200.257L159.346 200.732C159.537 201.515 159.639 202.452 159.639 203.556H161.639ZM161.289 200.259C161.052 199.279 160.692 198.411 160.187 197.683L158.543 198.823C158.878 199.306 159.153 199.933 159.345 200.729L161.289 200.259ZM160.187 197.683C159.677 196.949 159.033 196.377 158.254 195.994L157.371 197.788C157.822 198.01 158.213 198.347 158.543 198.823L160.187 197.683ZM158.265 195.999C157.494 195.607 156.642 195.422 155.732 195.422V197.422C156.365 197.422 156.9 197.549 157.359 197.782L158.265 195.999ZM155.732 195.422C154.815 195.422 153.96 195.606 153.193 196.002L154.111 197.779C154.555 197.55 155.087 197.422 155.732 197.422V195.422ZM153.199 195.999C152.441 196.385 151.811 196.956 151.307 197.683L152.95 198.823C153.286 198.339 153.672 198.003 154.105 197.782L153.199 195.999ZM151.307 197.683C150.804 198.408 150.439 199.272 150.192 200.249L152.131 200.739C152.333 199.94 152.613 199.309 152.95 198.823L151.307 197.683ZM150.19 200.257C149.952 201.232 149.84 202.335 149.84 203.556H151.84C151.84 202.452 151.942 201.515 152.133 200.732L150.19 200.257ZM149.84 203.556V204.684H151.84V203.556H149.84ZM149.84 204.684C149.84 205.896 149.952 206.998 150.19 207.98L152.134 207.51C151.942 206.716 151.84 205.777 151.84 204.684H149.84ZM150.192 207.99C150.439 208.968 150.803 209.833 151.303 210.565L152.955 209.437C152.614 208.939 152.334 208.3 152.131 207.5L150.192 207.99ZM151.313 210.58C151.827 211.304 152.463 211.875 153.223 212.267L154.14 210.49C153.689 210.257 153.29 209.91 152.944 209.422L151.313 210.58ZM153.223 212.267C153.99 212.663 154.844 212.847 155.761 212.847V210.847C155.116 210.847 154.584 210.719 154.14 210.49L153.223 212.267ZM155.761 212.847C156.679 212.847 157.533 212.663 158.3 212.267L157.383 210.49C156.939 210.719 156.407 210.847 155.761 210.847V212.847ZM158.3 212.267C159.065 211.872 159.696 211.296 160.193 210.562L158.537 209.44C158.214 209.918 157.829 210.259 157.383 210.49L158.3 212.267ZM160.191 210.565C160.693 209.83 161.052 208.961 161.289 207.98L159.345 207.51C159.152 208.307 158.877 208.942 158.539 209.437L160.191 210.565ZM161.289 207.98C161.527 206.998 161.639 205.896 161.639 204.684H159.639C159.639 205.777 159.537 206.716 159.345 207.51L161.289 207.98ZM184.751 209.034L185.699 209.353L185.699 209.351L184.751 209.034ZM180.092 214.366L179.692 213.45L180.092 214.366ZM172.812 214.366L172.411 215.283L172.414 215.284L172.812 214.366ZM168.11 209.034L167.164 209.357L167.164 209.359L168.11 209.034ZM169.956 195.968L170.706 196.629L170.71 196.625L169.956 195.968ZM172.783 193.888L172.385 192.97L172.382 192.972L172.783 193.888ZM180.063 193.888L179.662 194.804L180.063 193.888ZM182.89 195.968L182.136 196.625L182.144 196.633L182.89 195.968ZM184.736 199.235L183.788 199.553L183.79 199.559L184.736 199.235ZM181.001 200.494L180.029 200.729L180.029 200.732L181.001 200.494ZM180.049 198.253L179.227 198.823L180.049 198.253ZM178.496 196.891L178.043 197.783L178.054 197.788L178.496 196.891ZM174.336 196.891L174.789 197.782L174.794 197.779L174.336 196.891ZM172.812 198.253L173.634 198.823L172.812 198.253ZM171.845 200.494L170.876 200.249L170.874 200.257L171.845 200.494ZM171.845 207.745L170.873 207.98L170.876 207.99L171.845 207.745ZM172.812 210.001L171.986 210.565L171.991 210.573L171.997 210.58L172.812 210.001ZM180.049 210.001L179.223 209.437L179.221 209.44L180.049 210.001ZM181.001 207.745L180.029 207.51L181.001 207.745ZM184.395 203.585V204.684H186.395V203.585H184.395ZM184.395 204.684C184.395 206.207 184.192 207.548 183.802 208.718L185.699 209.351C186.169 207.943 186.395 206.383 186.395 204.684H184.395ZM183.803 208.716C183.41 209.885 182.862 210.854 182.169 211.64L183.67 212.962C184.56 211.952 185.232 210.742 185.699 209.353L183.803 208.716ZM182.169 211.64C181.474 212.429 180.651 213.03 179.692 213.45L180.493 215.283C181.721 214.745 182.783 213.97 183.67 212.962L182.169 211.64ZM179.692 213.45C178.739 213.867 177.662 214.084 176.445 214.084V216.084C177.904 216.084 179.259 215.823 180.493 215.283L179.692 213.45ZM176.445 214.084C175.25 214.084 174.176 213.868 173.21 213.449L172.414 215.284C173.655 215.822 175.003 216.084 176.445 216.084V214.084ZM173.213 213.45C172.252 213.03 171.423 212.427 170.717 211.636L169.224 212.966C170.12 213.971 171.185 214.746 172.411 215.283L173.213 213.45ZM170.717 211.636C170.015 210.848 169.457 209.879 169.056 208.71L167.164 209.359C167.642 210.749 168.324 211.957 169.224 212.966L170.717 211.636ZM169.057 208.712C168.658 207.544 168.451 206.205 168.451 204.684H166.451C166.451 206.385 166.683 207.947 167.164 209.357L169.057 208.712ZM168.451 204.684V203.585H166.451V204.684H168.451ZM168.451 203.585C168.451 202.053 168.659 200.716 169.056 199.559L167.164 198.91C166.683 200.312 166.451 201.875 166.451 203.585H168.451ZM169.056 199.559C169.458 198.388 170.012 197.417 170.706 196.629L169.205 195.307C168.317 196.316 167.641 197.523 167.164 198.91L169.056 199.559ZM170.71 196.625C171.405 195.827 172.227 195.223 173.184 194.804L172.382 192.972C171.152 193.51 170.089 194.293 169.202 195.311L170.71 196.625ZM173.181 194.805C174.147 194.386 175.221 194.17 176.416 194.17V192.17C174.974 192.17 173.626 192.432 172.385 192.97L173.181 194.805ZM176.416 194.17C177.632 194.17 178.709 194.387 179.662 194.804L180.464 192.972C179.229 192.432 177.875 192.17 176.416 192.17V194.17ZM179.662 194.804C180.619 195.223 181.441 195.827 182.136 196.625L183.644 195.311C182.757 194.293 181.694 193.51 180.464 192.972L179.662 194.804ZM182.144 196.633C182.844 197.419 183.396 198.386 183.788 199.553L185.684 198.916C185.217 197.524 184.538 196.314 183.637 195.303L182.144 196.633ZM183.79 199.559C184.188 200.716 184.395 202.053 184.395 203.585H186.395C186.395 201.875 186.163 200.312 185.682 198.91L183.79 199.559ZM182.323 204.684V203.556H180.323V204.684H182.323ZM182.323 203.556C182.323 202.335 182.21 201.232 181.972 200.257L180.029 200.732C180.221 201.515 180.323 202.452 180.323 203.556H182.323ZM181.973 200.259C181.736 199.279 181.375 198.411 180.87 197.683L179.227 198.823C179.562 199.306 179.836 199.933 180.029 200.729L181.973 200.259ZM180.87 197.683C180.361 196.949 179.716 196.377 178.937 195.994L178.054 197.788C178.506 198.01 178.896 198.347 179.227 198.823L180.87 197.683ZM178.949 195.999C178.177 195.607 177.326 195.422 176.416 195.422V197.422C177.049 197.422 177.584 197.549 178.043 197.782L178.949 195.999ZM176.416 195.422C175.498 195.422 174.644 195.606 173.877 196.002L174.794 197.779C175.238 197.55 175.771 197.422 176.416 197.422V195.422ZM173.883 195.999C173.125 196.385 172.495 196.956 171.991 197.683L173.634 198.823C173.969 198.339 174.355 198.003 174.789 197.782L173.883 195.999ZM171.991 197.683C171.488 198.408 171.123 199.272 170.876 200.249L172.815 200.739C173.017 199.94 173.297 199.309 173.634 198.823L171.991 197.683ZM170.874 200.257C170.636 201.232 170.523 202.335 170.523 203.556H172.523C172.523 202.452 172.625 201.515 172.817 200.732L170.874 200.257ZM170.523 203.556V204.684H172.523V203.556H170.523ZM170.523 204.684C170.523 205.896 170.636 206.998 170.873 207.98L172.817 207.51C172.625 206.716 172.523 205.777 172.523 204.684H170.523ZM170.876 207.99C171.123 208.968 171.487 209.833 171.986 210.565L173.638 209.437C173.298 208.939 173.017 208.3 172.815 207.5L170.876 207.99ZM171.997 210.58C172.51 211.304 173.146 211.875 173.906 212.267L174.824 210.49C174.373 210.257 173.973 209.91 173.628 209.422L171.997 210.58ZM173.906 212.267C174.673 212.663 175.528 212.847 176.445 212.847V210.847C175.8 210.847 175.268 210.719 174.824 210.49L173.906 212.267ZM176.445 212.847C177.362 212.847 178.217 212.663 178.984 212.267L178.066 210.49C177.622 210.719 177.09 210.847 176.445 210.847V212.847ZM178.984 212.267C179.749 211.872 180.38 211.296 180.876 210.562L179.221 209.44C178.897 209.918 178.513 210.259 178.066 210.49L178.984 212.267ZM180.875 210.565C181.376 209.83 181.736 208.961 181.973 207.98L180.029 207.51C179.836 208.307 179.561 208.942 179.223 209.437L180.875 210.565ZM181.973 207.98C182.21 206.998 182.323 205.896 182.323 204.684H180.323C180.323 205.777 180.221 206.716 180.029 207.51L181.973 207.98ZM188.808 193.463V192.463H187.808V193.463H188.808ZM202.109 204.801L201.5 204.008L201.495 204.012L202.109 204.801ZM199.619 206.09L199.308 205.139L199.234 205.164L199.163 205.2L199.619 206.09ZM198.359 206.735V207.735H198.6L198.815 207.625L198.359 206.735ZM191.518 206.735L190.518 206.744L190.527 207.735H191.518V206.735ZM191.489 203.556V202.556H190.48L190.489 203.565L191.489 203.556ZM199.897 201.901L199.02 201.421L199.016 201.427L199.013 201.434L199.897 201.901ZM199.912 198.282L199.024 198.743L199.028 198.75L199.912 198.282ZM192.837 196.642V195.642H191.837V196.642H192.837ZM192.837 214.791V215.791H193.837V214.791H192.837ZM188.808 214.791H187.808V215.791H188.808V214.791ZM200.849 214.791L199.961 215.25L200.241 215.791H200.849V214.791ZM195.913 205.24L195.909 204.24L194.273 204.246L195.024 205.7L195.913 205.24ZM200.176 205.226L201.058 204.755L200.774 204.224L200.172 204.226L200.176 205.226ZM205.171 214.586H206.171V214.336L206.053 214.115L205.171 214.586ZM205.171 214.791V215.791H206.171V214.791H205.171ZM188.808 194.463H196.557V192.463H188.808V194.463ZM196.557 194.463C198.082 194.463 199.335 194.693 200.345 195.117L201.12 193.274C199.805 192.721 198.275 192.463 196.557 192.463V194.463ZM200.345 195.117C201.343 195.537 202.071 196.137 202.576 196.91L204.25 195.817C203.505 194.676 202.446 193.831 201.12 193.274L200.345 195.117ZM202.576 196.91C203.073 197.672 203.35 198.648 203.35 199.894H205.35C205.35 198.346 205.003 196.969 204.25 195.817L202.576 196.91ZM203.35 199.894C203.35 200.88 203.176 201.683 202.864 202.331L204.665 203.199C205.134 202.226 205.35 201.114 205.35 199.894H203.35ZM202.864 202.331C202.541 203.001 202.089 203.556 201.5 204.008L202.718 205.594C203.555 204.952 204.207 204.15 204.665 203.199L202.864 202.331ZM201.495 204.012C200.894 204.479 200.17 204.858 199.308 205.139L199.929 207.041C200.982 206.697 201.918 206.217 202.723 205.59L201.495 204.012ZM199.163 205.2L197.904 205.844L198.815 207.625L200.074 206.98L199.163 205.2ZM198.359 205.735H191.518V207.735H198.359V205.735ZM192.518 206.725L192.489 203.547L190.489 203.565L190.518 206.744L192.518 206.725ZM191.489 204.556H196.601V202.556H191.489V204.556ZM196.601 204.556C197.543 204.556 198.406 204.391 199.139 203.998L198.194 202.235C197.834 202.428 197.32 202.556 196.601 202.556V204.556ZM199.139 203.998C199.85 203.617 200.409 203.072 200.781 202.368L199.013 201.434C198.838 201.764 198.577 202.03 198.194 202.235L199.139 203.998ZM200.774 202.381C201.148 201.698 201.322 200.939 201.322 200.128H199.322C199.322 200.646 199.213 201.068 199.02 201.421L200.774 202.381ZM201.322 200.128C201.322 199.288 201.16 198.505 200.796 197.815L199.028 198.75C199.21 199.095 199.322 199.543 199.322 200.128H201.322ZM200.8 197.822C200.425 197.099 199.853 196.548 199.12 196.175L198.213 197.958C198.594 198.152 198.852 198.411 199.024 198.743L200.8 197.822ZM199.12 196.175C198.382 195.8 197.511 195.642 196.557 195.642V197.642C197.303 197.642 197.838 197.767 198.213 197.958L199.12 196.175ZM196.557 195.642H192.837V197.642H196.557V195.642ZM191.837 196.642V214.791H193.837V196.642H191.837ZM192.837 213.791H188.808V215.791H192.837V213.791ZM189.808 214.791V193.463H187.808V214.791H189.808ZM201.738 214.332L196.801 204.781L195.024 205.7L199.961 215.25L201.738 214.332ZM195.916 206.24L200.179 206.226L200.172 204.226L195.909 204.24L195.916 206.24ZM199.293 205.697L204.288 215.057L206.053 214.115L201.058 204.755L199.293 205.697ZM204.171 214.586V214.791H206.171V214.586H204.171ZM205.171 213.791H200.849V215.791H205.171V213.791Z" fill="white" fill-opacity="0.11" mask="url(#path-9-outside-1_3808_194)"/>
<path d="M172.648 154.605C173.439 154.605 174.112 154.328 174.666 153.774C175.22 153.22 175.497 152.547 175.497 151.756C175.497 150.964 175.22 150.292 174.666 149.738C174.112 149.184 173.439 148.907 172.648 148.907C171.856 148.907 171.184 149.184 170.63 149.738C170.076 150.292 169.799 150.964 169.799 151.756C169.799 152.547 170.076 153.22 170.63 153.774C171.184 154.328 171.856 154.605 172.648 154.605ZM159.353 154.605C160.144 154.605 160.817 154.328 161.371 153.774C161.925 153.22 162.202 152.547 162.202 151.756C162.202 150.964 161.925 150.292 161.371 149.738C160.817 149.184 160.144 148.907 159.353 148.907C158.562 148.907 157.889 149.184 157.335 149.738C156.781 150.292 156.504 150.964 156.504 151.756C156.504 152.547 156.781 153.22 157.335 153.774C157.889 154.328 158.562 154.605 159.353 154.605ZM166 159.353C163.848 159.353 161.893 159.962 160.136 161.181C158.38 162.4 157.105 164.006 156.314 166H159.448C160.144 164.829 161.07 163.903 162.226 163.223C163.381 162.542 164.639 162.202 166 162.202C167.361 162.202 168.62 162.542 169.775 163.223C170.93 163.903 171.856 164.829 172.553 166H175.686C174.895 164.006 173.621 162.4 171.864 161.181C170.107 159.962 168.153 159.353 166 159.353ZM166 175.496C163.373 175.496 160.904 174.998 158.593 174.001C156.282 173.004 154.272 171.651 152.563 169.941C150.854 168.232 149.501 166.222 148.503 163.911C147.506 161.6 147.008 159.131 147.008 156.504C147.008 153.877 147.506 151.408 148.503 149.097C149.501 146.786 150.854 144.776 152.563 143.067C154.272 141.357 156.282 140.004 158.593 139.007C160.904 138.01 163.373 137.511 166 137.511C168.628 137.511 171.097 138.01 173.407 139.007C175.718 140.004 177.728 141.357 179.438 143.067C181.147 144.776 182.5 146.786 183.497 149.097C184.494 151.408 184.993 153.877 184.993 156.504C184.993 159.131 184.494 161.6 183.497 163.911C182.5 166.222 181.147 168.232 179.438 169.941C177.728 171.651 175.718 173.004 173.407 174.001C171.097 174.998 168.628 175.496 166 175.496ZM166 171.698C170.242 171.698 173.835 170.226 176.779 167.282C179.722 164.338 181.194 160.746 181.194 156.504C181.194 152.262 179.722 148.67 176.779 145.726C173.835 142.782 170.242 141.31 166 141.31C161.759 141.31 158.166 142.782 155.222 145.726C152.278 148.67 150.806 152.262 150.806 156.504C150.806 160.746 152.278 164.338 155.222 167.282C158.166 170.226 161.759 171.698 166 171.698Z" fill="#7A1908"/>
<path d="M124.217 184.866C131.142 184.55 138.068 184.333 144.999 184.224C151.924 184.095 158.85 184.059 165.781 184.043C172.706 184.059 179.637 184.095 186.563 184.224C193.488 184.333 200.414 184.545 207.345 184.866C200.419 185.186 193.493 185.398 186.563 185.507C179.637 185.636 172.711 185.672 165.781 185.688C158.855 185.672 151.929 185.636 144.999 185.507C138.073 185.398 131.148 185.186 124.217 184.866Z" fill="#4D2D0B"/>
<defs>
<filter id="filter0_d_3808_194" x="148.134" y="95.7415" width="35.7334" height="32.1194" filterUnits="userSpaceOnUse" color-interpolation-filters="sRGB">
<feFlood flood-opacity="0" result="BackgroundImageFix"/>
<feColorMatrix in="SourceAlpha" type="matrix" values="0 0 0 0 0 0 0 0 0 0 0 0 0 0 0 0 0 0 127 0" result="hardAlpha"/>
<feOffset dy="4"/>
<feGaussianBlur stdDeviation="2"/>
<feComposite in2="hardAlpha" operator="out"/>
<feColorMatrix type="matrix" values="0 0 0 0 0 0 0 0 0 0 0 0 0 0 0 0 0 0 0.25 0"/>
<feBlend mode="normal" in2="BackgroundImageFix" result="effect1_dropShadow_3808_194"/>
<feBlend mode="normal" in="SourceGraphic" in2="effect1_dropShadow_3808_194" result="shape"/>
</filter>
<linearGradient id="paint0_linear_3808_194" x1="286.947" y1="-59.0291" x2="-19.811" y2="511.689" gradientUnits="userSpaceOnUse">
<stop offset="0.1" stop-color="#BA903F"/>
<stop offset="0.5" stop-color="#996019"/>
<stop offset="0.64" stop-color="#6F4410"/>
<stop offset="0.8" stop-color="#462908"/>
<stop offset="0.92" stop-color="#2E1903"/>
<stop offset="1" stop-color="#251302"/>
</linearGradient>
<linearGradient id="paint1_linear_3808_194" x1="364.296" y1="-243.659" x2="102.93" y2="296.285" gradientUnits="userSpaceOnUse">
<stop stop-color="#FFD744"/>
<stop offset="0.07" stop-color="#A6761A"/>
<stop offset="0.19" stop-color="#FFD744"/>
<stop offset="0.4" stop-color="#FFD744"/>
<stop offset="0.56" stop-color="#FCF4AE"/>
<stop offset="0.68" stop-color="#FFD744"/>
<stop offset="0.75" stop-color="#A6761A"/>
<stop offset="0.88" stop-color="#FFD744"/>
<stop offset="0.97" stop-color="#FCF4AE"/>
<stop offset="1" stop-color="#FFD744"/>
</linearGradient>
<linearGradient id="paint2_linear_3808_194" x1="270.764" y1="-158.27" x2="106.426" y2="350.373" gradientUnits="userSpaceOnUse">
<stop stop-color="#FFD744"/>
<stop offset="0.07" stop-color="#A6761A"/>
<stop offset="0.19" stop-color="#FFD744"/>
<stop offset="0.4" stop-color="#FFD744"/>
<stop offset="0.56" stop-color="#FCF4AE"/>
<stop offset="0.68" stop-color="#FFD744"/>
<stop offset="0.75" stop-color="#A6761A"/>
<stop offset="0.88" stop-color="#FFD744"/>
<stop offset="0.97" stop-color="#FCF4AE"/>
<stop offset="1" stop-color="#FFD744"/>
</linearGradient>
<linearGradient id="paint3_linear_3808_194" x1="207.239" y1="81.594" x2="107.292" y2="286.119" gradientUnits="userSpaceOnUse">
<stop stop-color="#FFD744"/>
<stop offset="0.07" stop-color="#A6761A"/>
<stop offset="0.19" stop-color="#FFD744"/>
<stop offset="0.4" stop-color="#FFD744"/>
<stop offset="0.56" stop-color="#FCF4AE"/>
<stop offset="0.68" stop-color="#FFD744"/>
<stop offset="0.75" stop-color="#A6761A"/>
<stop offset="0.88" stop-color="#FFD744"/>
<stop offset="0.97" stop-color="#FCF4AE"/>
<stop offset="1" stop-color="#FFD744"/>
</linearGradient>
<linearGradient id="paint4_linear_3808_194" x1="242.979" y1="32.7632" x2="82.9204" y2="309.663" gradientUnits="userSpaceOnUse">
<stop stop-color="#523E1D"/>
<stop offset="0.03" stop-color="#574321"/>
<stop offset="0.07" stop-color="#67512E"/>
<stop offset="0.08" stop-color="#6E5834"/>
<stop offset="0.12" stop-color="#806A44"/>
<stop offset="0.21" stop-color="#AD996D"/>
<stop offset="0.3" stop-color="#D0BE8E"/>
<stop offset="0.38" stop-color="#EAD9A5"/>
<stop offset="0.45" stop-color="#F9E9B4"/>
<stop offset="0.51" stop-color="#FFEFB9"/>
<stop offset="0.52" stop-color="#F2E1AB"/>
<stop offset="0.54" stop-color="#D4C18E"/>
<stop offset="0.57" stop-color="#BBA675"/>
<stop offset="0.59" stop-color="#A79060"/>
<stop offset="0.63" stop-color="#977F51"/>
<stop offset="0.67" stop-color="#8D7346"/>
<stop offset="0.72" stop-color="#866C3F"/>
<stop offset="0.88" stop-color="#856B3E"/>
<stop offset="1" stop-color="#543D17"/>
</linearGradient>
<linearGradient id="paint5_linear_3808_194" x1="56.3257" y1="326.726" x2="392.768" y2="-165.959" gradientUnits="userSpaceOnUse">
<stop stop-color="#523E1D"/>
<stop offset="0.02" stop-color="#574321"/>
<stop offset="0.05" stop-color="#67512E"/>
<stop offset="0.06" stop-color="#6E5834"/>
<stop offset="0.09" stop-color="#806A44"/>
<stop offset="0.19" stop-color="#AD996D"/>
<stop offset="0.29" stop-color="#D0BE8E"/>
<stop offset="0.37" stop-color="#EAD9A5"/>
<stop offset="0.45" stop-color="#F9E9B4"/>
<stop offset="0.51" stop-color="#FFEFB9"/>
<stop offset="0.52" stop-color="#F2E1AB"/>
<stop offset="0.54" stop-color="#D4C18E"/>
<stop offset="0.57" stop-color="#BBA675"/>
<stop offset="0.59" stop-color="#A79060"/>
<stop offset="0.63" stop-color="#977F51"/>
<stop offset="0.67" stop-color="#8D7346"/>
<stop offset="0.72" stop-color="#866C3F"/>
<stop offset="0.88" stop-color="#856B3E"/>
<stop offset="1" stop-color="#543D17"/>
</linearGradient>
</defs>
</svg>
