<svg width="36" height="35" viewBox="0 0 36 35" fill="none" xmlns="http://www.w3.org/2000/svg">
<rect x="0.322754" width="35" height="35" rx="5" fill="white" fill-opacity="0.18"/>
<rect x="0.322754" width="35" height="35" rx="5" stroke=""/>
<path d="M10.4886 5.86475C15.8229 7.41605 27.1583 16.2068 24.4911 27.583" stroke="white" stroke-width="1.2"/>
<path d="M17.1565 10.002L23.8244 10.002" stroke="white" stroke-width="1.2"/>
<path d="M21.157 10.002L21.157 14.1388" stroke="white" stroke-width="1.2"/>
<path d="M15.1556 30.169H5.15379V28.5835C5.15379 28.0312 5.60151 27.5835 6.15379 27.5835H29.4917C30.044 27.5835 30.4917 28.0312 30.4917 28.5835V30.169H20.4899M10.4881 27.0664V4.83105" stroke="white" stroke-width="1.2"/>
<path d="M13.8223 7.4165V27.5834M13.8223 10.002C17.6007 12.7599 24.4909 19.3098 21.1569 27.5834" stroke="white" stroke-width="1.2"/>
<path d="M13.8223 14.1382H18.4898M13.8223 17.2408H19.8234" stroke="white" stroke-width="1.2"/>
<path d="M14.4885 20.3442H21.8232M14.4885 23.4468H22.4899" stroke="white" stroke-width="1.2"/>
</svg>
