<svg width="250" height="300" viewBox="0 0 195 207" fill="none" xmlns="http://www.w3.org/2000/svg">
<path d="M88.5253 29.9023C91.2025 21.04 103.798 21.04 106.475 29.9023C108.528 36.6997 117.156 38.8056 122.069 33.6786C128.38 27.0924 139.411 32.6112 137.924 41.611L137.671 43.1393C136.51 50.1682 143.196 55.9363 149.978 53.7575C158.747 50.9406 166.009 60.9744 160.592 68.4234L159.619 69.7617C155.379 75.5923 158.593 83.8542 165.658 85.2876C174.934 87.1696 176.308 99.8566 167.799 104.002C161.281 107.178 160.062 116.066 165.603 120.743L166.46 121.466C173.588 127.483 168.965 139.11 159.652 138.59C152.501 138.192 147.391 145.405 150.14 152.02L150.834 153.688C154.341 162.126 144.927 170.078 137.195 165.21C131.185 161.426 123.314 165.447 122.857 172.534L122.797 173.474C122.207 182.62 110.121 185.459 105.521 177.532C101.947 171.374 93.0533 171.374 89.4791 177.532C84.8785 185.459 72.7932 182.62 72.2033 173.474L72.1427 172.534C71.6856 165.447 63.8155 161.426 57.8054 165.21C50.0728 170.078 40.6589 162.126 44.166 153.688L44.8597 152.02C47.6089 145.405 42.4993 138.192 35.3476 138.59C26.0347 139.11 21.4125 127.483 28.5402 121.466L29.3968 120.743C34.9379 116.066 33.7194 107.178 27.2005 104.002C18.6918 99.8566 20.0661 87.1696 29.3419 85.2876C36.4069 83.8542 39.6205 75.5923 35.381 69.7617L34.4078 68.4234C28.9914 60.9743 36.2528 50.9406 45.0216 53.7575C51.8043 55.9363 58.49 50.1682 57.3287 43.1394L57.0762 41.611C55.5893 32.6112 66.6199 27.0924 72.9309 33.6786C77.8437 38.8056 86.4718 36.6997 88.5253 29.9023Z" fill="#0DA404"/>
<path d="M156.56 103.556C156.56 138.224 130.064 166.227 97.4999 166.227C64.9362 166.227 38.4399 138.224 38.4399 103.556C38.4399 68.8878 64.9362 40.8848 97.4999 40.8848C130.064 40.8848 156.56 68.8878 156.56 103.556Z" fill="white" stroke="#FFB200" stroke-width="2"/>
<path d="M119.381 145.889C118.726 145.889 118.14 145.779 117.622 145.558C117.104 145.338 116.664 145.033 116.304 144.646C115.948 144.253 115.677 143.801 115.489 143.289C115.301 142.778 115.207 142.231 115.207 141.65V141.343C115.207 140.692 115.293 140.091 115.466 139.542C115.639 138.993 115.89 138.517 116.22 138.113C116.555 137.704 116.967 137.389 117.454 137.168C117.942 136.942 118.498 136.829 119.122 136.829C119.706 136.829 120.227 136.931 120.684 137.136C121.141 137.335 121.527 137.623 121.842 138C122.156 138.371 122.395 138.821 122.558 139.349C122.725 139.871 122.809 140.458 122.809 141.109V142.143H116.167V140.519H120.478V140.326C120.478 140.019 120.425 139.75 120.318 139.518C120.217 139.287 120.064 139.109 119.861 138.985C119.663 138.856 119.412 138.791 119.107 138.791C118.818 138.791 118.576 138.856 118.383 138.985C118.19 139.114 118.036 139.297 117.919 139.534C117.807 139.766 117.726 140.038 117.675 140.35C117.624 140.657 117.599 140.988 117.599 141.343V141.65C117.599 141.989 117.642 142.299 117.728 142.579C117.815 142.859 117.942 143.098 118.109 143.297C118.277 143.497 118.48 143.653 118.719 143.766C118.957 143.879 119.229 143.935 119.534 143.935C119.909 143.935 120.267 143.86 120.608 143.709C120.948 143.553 121.242 143.311 121.491 142.982L122.603 144.331C122.436 144.589 122.2 144.84 121.895 145.082C121.595 145.319 121.235 145.513 120.813 145.663C120.392 145.814 119.914 145.889 119.381 145.889Z" fill="black"/>
<path d="M110.819 143.927C111.073 143.927 111.294 143.876 111.482 143.774C111.67 143.671 111.815 143.529 111.916 143.346C112.023 143.157 112.076 142.931 112.076 142.667H114.316C114.316 143.303 114.161 143.863 113.851 144.347C113.546 144.832 113.135 145.211 112.617 145.486C112.099 145.755 111.515 145.889 110.865 145.889C110.225 145.889 109.667 145.779 109.189 145.558C108.712 145.332 108.313 145.017 107.993 144.614C107.674 144.21 107.432 143.741 107.27 143.208C107.112 142.67 107.034 142.089 107.034 141.464V141.254C107.034 140.635 107.112 140.056 107.27 139.518C107.432 138.98 107.674 138.509 107.993 138.105C108.313 137.701 108.709 137.389 109.182 137.168C109.659 136.942 110.218 136.829 110.858 136.829C111.533 136.829 112.13 136.966 112.648 137.241C113.171 137.515 113.579 137.911 113.874 138.428C114.168 138.939 114.316 139.556 114.316 140.277H112.076C112.076 139.997 112.028 139.747 111.932 139.526C111.84 139.3 111.698 139.122 111.505 138.993C111.317 138.859 111.083 138.791 110.804 138.791C110.515 138.791 110.276 138.859 110.088 138.993C109.905 139.122 109.766 139.303 109.669 139.534C109.573 139.766 109.507 140.03 109.471 140.326C109.436 140.616 109.418 140.926 109.418 141.254V141.464C109.418 141.798 109.436 142.116 109.471 142.417C109.507 142.713 109.573 142.974 109.669 143.2C109.771 143.427 109.913 143.604 110.096 143.733C110.279 143.863 110.52 143.927 110.819 143.927Z" fill="black"/>
<path d="M105.663 136.99V145.728H103.279V136.99H105.663ZM103.134 134.729C103.134 134.363 103.256 134.064 103.499 133.833C103.743 133.596 104.063 133.478 104.459 133.478C104.855 133.478 105.175 133.596 105.419 133.833C105.668 134.064 105.792 134.363 105.792 134.729C105.792 135.09 105.668 135.389 105.419 135.626C105.175 135.857 104.855 135.973 104.459 135.973C104.063 135.973 103.743 135.857 103.499 135.626C103.256 135.389 103.134 135.09 103.134 134.729Z" fill="black"/>
<path d="M98.0605 143.943L99.782 136.99H102.28L99.5459 145.728H98.0453L98.0605 143.943ZM96.9484 136.99L98.6623 143.951L98.6775 145.728H97.177L94.4424 136.99H96.9484Z" fill="black"/>
<path d="M91.6012 139.026V145.728H89.2246V136.991H91.4564L91.6012 139.026ZM94.0615 136.926L94.0234 139.276C93.9219 139.26 93.7898 139.246 93.6273 139.236C93.4648 139.219 93.3252 139.211 93.2084 139.211C92.9037 139.211 92.6396 139.252 92.4162 139.332C92.1979 139.408 92.015 139.521 91.8678 139.672C91.7256 139.822 91.6189 140.011 91.5479 140.237C91.4768 140.458 91.4412 140.713 91.4412 141.004L90.9918 140.77C90.9918 140.194 91.0451 139.666 91.1518 139.187C91.2584 138.708 91.4133 138.293 91.6164 137.943C91.8195 137.588 92.0684 137.314 92.3629 137.12C92.6574 136.926 92.9926 136.829 93.3684 136.829C93.4902 136.829 93.6146 136.837 93.7416 136.853C93.8686 136.869 93.9752 136.894 94.0615 136.926Z" fill="black"/>
<path d="M84.6315 145.889C83.9764 145.889 83.3899 145.779 82.8719 145.558C82.354 145.338 81.9147 145.033 81.5542 144.646C81.1987 144.253 80.927 143.801 80.7391 143.289C80.5512 142.778 80.4573 142.231 80.4573 141.65V141.343C80.4573 140.692 80.5436 140.091 80.7163 139.542C80.8889 138.993 81.1403 138.517 81.4704 138.113C81.8055 137.704 82.2168 137.389 82.7043 137.168C83.1918 136.942 83.7479 136.829 84.3725 136.829C84.9565 136.829 85.477 136.931 85.934 137.136C86.3911 137.335 86.777 137.623 87.0918 138C87.4067 138.371 87.6454 138.821 87.8079 139.349C87.9754 139.871 88.0592 140.458 88.0592 141.109V142.143H81.417V140.519H85.7284V140.326C85.7284 140.019 85.675 139.75 85.5684 139.518C85.4668 139.287 85.3145 139.109 85.1114 138.985C84.9133 138.856 84.662 138.791 84.3573 138.791C84.0678 138.791 83.8266 138.856 83.6336 138.985C83.4407 139.114 83.2858 139.297 83.169 139.534C83.0573 139.766 82.976 140.038 82.9252 140.35C82.8745 140.657 82.8491 140.988 82.8491 141.343V141.65C82.8491 141.989 82.8922 142.299 82.9786 142.579C83.0649 142.859 83.1918 143.098 83.3594 143.297C83.527 143.497 83.7301 143.653 83.9688 143.766C84.2075 143.879 84.4792 143.935 84.7838 143.935C85.1596 143.935 85.5176 143.86 85.8579 143.709C86.1981 143.553 86.4926 143.311 86.7415 142.982L87.8536 144.331C87.686 144.589 87.4499 144.84 87.1452 145.082C86.8456 145.319 86.485 145.513 86.0635 145.663C85.642 145.814 85.1647 145.889 84.6315 145.889Z" fill="black"/>
<path d="M76.9306 142.627C76.9306 142.428 76.9026 142.25 76.8468 142.094C76.7909 141.932 76.6894 141.784 76.5421 141.65C76.3948 141.515 76.1866 141.38 75.9175 141.246C75.6483 141.106 75.2954 140.963 74.8587 140.818C74.361 140.646 73.8862 140.452 73.4343 140.236C72.9874 140.016 72.5888 139.76 72.2384 139.469C71.888 139.179 71.6112 138.839 71.4081 138.452C71.2101 138.064 71.111 137.612 71.111 137.095C71.111 136.595 71.2151 136.142 71.4233 135.739C71.6315 135.335 71.9235 134.99 72.2993 134.705C72.6751 134.414 73.1169 134.194 73.6247 134.043C74.1325 133.887 74.6911 133.809 75.3005 133.809C76.113 133.809 76.8265 133.962 77.4409 134.269C78.0604 134.57 78.5429 134.996 78.8882 135.545C79.2335 136.088 79.4062 136.721 79.4062 137.442H76.9382C76.9382 137.125 76.8747 136.845 76.7478 136.603C76.6259 136.355 76.438 136.161 76.1841 136.021C75.9353 135.881 75.6229 135.811 75.2472 135.811C74.8815 135.811 74.5743 135.87 74.3255 135.989C74.0817 136.102 73.8964 136.258 73.7694 136.457C73.6476 136.656 73.5866 136.874 73.5866 137.111C73.5866 137.3 73.6323 137.472 73.7237 137.628C73.8202 137.779 73.9573 137.922 74.1351 138.056C74.3179 138.185 74.5413 138.309 74.8054 138.428C75.0694 138.546 75.3716 138.659 75.7118 138.767C76.306 138.966 76.8315 139.187 77.2886 139.429C77.7507 139.671 78.1392 139.946 78.454 140.253C78.7688 140.559 79.005 140.907 79.1624 141.294C79.3249 141.682 79.4062 142.121 79.4062 142.611C79.4062 143.133 79.3097 143.596 79.1167 143.999C78.9288 144.403 78.6546 144.748 78.294 145.033C77.9386 145.313 77.512 145.526 77.0144 145.671C76.5167 145.816 75.9606 145.889 75.3462 145.889C74.7876 145.889 74.2366 145.814 73.6933 145.663C73.1499 145.507 72.6573 145.27 72.2155 144.952C71.7788 144.635 71.4284 144.231 71.1644 143.741C70.9054 143.246 70.7759 142.659 70.7759 141.981H73.2591C73.2591 142.336 73.3073 142.637 73.4038 142.885C73.5003 143.127 73.6374 143.324 73.8151 143.475C73.9979 143.625 74.2188 143.733 74.4778 143.798C74.7368 143.862 75.0263 143.894 75.3462 143.894C75.7169 143.894 76.0165 143.841 76.245 143.733C76.4786 143.62 76.6513 143.467 76.763 143.273C76.8747 143.079 76.9306 142.864 76.9306 142.627Z" fill="black"/>
<path d="M126.48 124.142V130.844H124.104V122.107H126.336L126.48 124.142ZM128.941 122.042L128.903 124.392C128.801 124.376 128.669 124.362 128.506 124.352C128.344 124.336 128.204 124.327 128.088 124.327C127.783 124.327 127.519 124.368 127.295 124.449C127.077 124.524 126.894 124.637 126.747 124.788C126.605 124.939 126.498 125.127 126.427 125.353C126.356 125.574 126.32 125.829 126.32 126.12L125.871 125.886C125.871 125.31 125.924 124.782 126.031 124.303C126.138 123.824 126.292 123.41 126.496 123.06C126.699 122.704 126.948 122.43 127.242 122.236C127.537 122.042 127.872 121.945 128.248 121.945C128.369 121.945 128.494 121.953 128.621 121.97C128.748 121.986 128.854 122.01 128.941 122.042Z" fill="black"/>
<path d="M119.511 131.006C118.856 131.006 118.269 130.895 117.751 130.675C117.233 130.454 116.794 130.15 116.433 129.762C116.078 129.369 115.806 128.917 115.618 128.405C115.43 127.894 115.336 127.348 115.336 126.766V126.459C115.336 125.808 115.423 125.208 115.595 124.659C115.768 124.109 116.019 123.633 116.35 123.229C116.685 122.82 117.096 122.505 117.583 122.284C118.071 122.058 118.627 121.945 119.252 121.945C119.836 121.945 120.356 122.048 120.813 122.252C121.27 122.451 121.656 122.739 121.971 123.116C122.286 123.488 122.525 123.937 122.687 124.465C122.855 124.987 122.938 125.574 122.938 126.225V127.259H116.296V125.636H120.608V125.442C120.608 125.135 120.554 124.866 120.448 124.634C120.346 124.403 120.194 124.225 119.991 124.101C119.792 123.972 119.541 123.908 119.236 123.908C118.947 123.908 118.706 123.972 118.513 124.101C118.32 124.231 118.165 124.414 118.048 124.65C117.936 124.882 117.855 125.154 117.804 125.466C117.754 125.773 117.728 126.104 117.728 126.459V126.766C117.728 127.105 117.771 127.415 117.858 127.695C117.944 127.975 118.071 128.214 118.239 128.414C118.406 128.613 118.609 128.769 118.848 128.882C119.087 128.995 119.358 129.051 119.663 129.051C120.039 129.051 120.397 128.976 120.737 128.825C121.077 128.669 121.372 128.427 121.621 128.099L122.733 129.447C122.565 129.706 122.329 129.956 122.024 130.198C121.725 130.435 121.364 130.629 120.943 130.78C120.521 130.93 120.044 131.006 119.511 131.006Z" fill="black"/>
<path d="M104.528 123.94V130.844H102.151V122.107H104.383L104.528 123.94ZM104.223 126.169L103.621 126.185C103.621 125.571 103.69 125.008 103.827 124.497C103.969 123.98 104.175 123.531 104.444 123.149C104.713 122.766 105.046 122.47 105.442 122.26C105.843 122.05 106.305 121.945 106.828 121.945C107.194 121.945 107.526 122.005 107.826 122.123C108.126 122.236 108.382 122.416 108.595 122.664C108.814 122.906 108.981 123.224 109.098 123.617C109.215 124.004 109.273 124.47 109.273 125.014V130.844H106.897V125.321C106.897 124.933 106.851 124.64 106.76 124.441C106.673 124.236 106.546 124.096 106.379 124.021C106.211 123.945 106.01 123.908 105.777 123.908C105.523 123.908 105.297 123.967 105.099 124.085C104.906 124.198 104.744 124.357 104.611 124.562C104.479 124.766 104.38 125.006 104.314 125.28C104.253 125.555 104.223 125.851 104.223 126.169ZM109.029 126.039L108.275 126.104C108.275 125.512 108.341 124.963 108.473 124.457C108.605 123.951 108.803 123.512 109.068 123.14C109.332 122.764 109.659 122.47 110.05 122.26C110.446 122.05 110.906 121.945 111.429 121.945C111.815 121.945 112.165 122.005 112.48 122.123C112.8 122.241 113.074 122.433 113.303 122.696C113.536 122.96 113.717 123.307 113.844 123.738C113.97 124.163 114.034 124.685 114.034 125.305V130.844H111.642V125.305C111.642 124.922 111.596 124.632 111.505 124.432C111.419 124.233 111.292 124.096 111.124 124.021C110.962 123.945 110.766 123.908 110.538 123.908C110.284 123.908 110.063 123.964 109.875 124.077C109.687 124.185 109.53 124.336 109.403 124.529C109.276 124.718 109.182 124.941 109.121 125.2C109.06 125.458 109.029 125.738 109.029 126.039Z" fill="black"/>
<path d="M93.0105 126.564V126.395C93.0105 125.754 93.0968 125.165 93.2695 124.626C93.4421 124.083 93.696 123.611 94.0312 123.213C94.3664 122.815 94.7777 122.505 95.2652 122.284C95.7527 122.058 96.3113 121.945 96.941 121.945C97.5808 121.945 98.1445 122.058 98.632 122.284C99.1246 122.505 99.5384 122.815 99.8736 123.213C100.209 123.611 100.463 124.083 100.635 124.626C100.808 125.165 100.894 125.754 100.894 126.395V126.564C100.894 127.2 100.808 127.789 100.635 128.333C100.463 128.871 100.209 129.342 99.8736 129.746C99.5384 130.144 99.1271 130.454 98.6396 130.675C98.1521 130.895 97.591 131.006 96.9562 131.006C96.3265 131.006 95.7654 130.895 95.2728 130.675C94.7802 130.454 94.3664 130.144 94.0312 129.746C93.696 129.342 93.4421 128.871 93.2695 128.333C93.0968 127.789 93.0105 127.2 93.0105 126.564ZM95.3947 126.395V126.564C95.3947 126.909 95.4201 127.232 95.4708 127.533C95.5267 127.835 95.6156 128.099 95.7375 128.325C95.8593 128.551 96.0193 128.728 96.2173 128.858C96.4205 128.981 96.6667 129.043 96.9562 129.043C97.2457 129.043 97.4894 128.981 97.6875 128.858C97.8855 128.728 98.0455 128.551 98.1673 128.325C98.2892 128.099 98.3755 127.835 98.4263 127.533C98.4822 127.232 98.5101 126.909 98.5101 126.564V126.395C98.5101 126.056 98.4822 125.738 98.4263 125.442C98.3755 125.14 98.2892 124.874 98.1673 124.642C98.0455 124.411 97.883 124.231 97.6798 124.101C97.4818 123.972 97.2355 123.908 96.941 123.908C96.6566 123.908 96.4154 123.972 96.2173 124.101C96.0193 124.231 95.8593 124.411 95.7375 124.642C95.6156 124.874 95.5267 125.14 95.4708 125.442C95.4201 125.738 95.3947 126.056 95.3947 126.395Z" fill="black"/>
<path d="M92.4239 122.106V123.874H87.5337V122.106H92.4239ZM88.6534 119.941H91.0376V128.105C91.0376 128.348 91.0655 128.533 91.1214 128.663C91.1772 128.792 91.2687 128.883 91.3956 128.937C91.5226 128.986 91.6851 129.01 91.8831 129.01C92.0253 129.01 92.1472 129.004 92.2487 128.994C92.3503 128.983 92.4442 128.969 92.5306 128.953V130.778C92.3274 130.848 92.1116 130.902 91.8831 130.94C91.6546 130.983 91.4058 131.004 91.1366 131.004C90.6237 131.004 90.1794 130.916 89.8036 130.738C89.4329 130.56 89.1485 130.28 88.9505 129.898C88.7524 129.51 88.6534 129.007 88.6534 128.388V119.941Z" fill="black"/>
<path d="M84.6086 128.414C84.6086 128.252 84.5604 128.109 84.4639 127.986C84.3725 127.862 84.2049 127.749 83.9611 127.646C83.7225 127.544 83.3848 127.442 82.948 127.34C82.5367 127.248 82.1533 127.13 81.7979 126.984C81.4424 126.833 81.1326 126.653 80.8686 126.443C80.6045 126.228 80.3988 125.975 80.2516 125.684C80.1043 125.388 80.0307 125.052 80.0307 124.675C80.0307 124.309 80.1043 123.961 80.2516 123.633C80.4039 123.305 80.6223 123.014 80.9066 122.761C81.1961 122.508 81.5465 122.309 81.9578 122.163C82.3742 122.018 82.8465 121.945 83.3746 121.945C84.1008 121.945 84.7279 122.066 85.2561 122.309C85.7842 122.546 86.1904 122.879 86.4748 123.31C86.7592 123.735 86.9014 124.223 86.9014 124.772H84.5248C84.5248 124.546 84.4842 124.349 84.4029 124.182C84.3217 124.015 84.1973 123.886 84.0297 123.795C83.8621 123.698 83.6412 123.649 83.367 123.649C83.1537 123.649 82.9658 123.69 82.8033 123.77C82.6459 123.846 82.5215 123.951 82.4301 124.085C82.3438 124.22 82.3006 124.376 82.3006 124.554C82.3006 124.677 82.326 124.79 82.3768 124.893C82.4326 124.99 82.5164 125.081 82.6281 125.167C82.7449 125.248 82.8947 125.321 83.0775 125.385C83.2654 125.45 83.4939 125.512 83.7631 125.571C84.3369 125.684 84.86 125.843 85.3322 126.048C85.8096 126.252 86.1904 126.535 86.4748 126.895C86.7643 127.256 86.909 127.733 86.909 128.325C86.909 128.712 86.8252 129.068 86.6576 129.391C86.4951 129.714 86.259 129.996 85.9492 130.239C85.6395 130.481 85.2688 130.669 84.8371 130.804C84.4055 130.938 83.918 131.006 83.3746 131.006C82.5977 131.006 81.94 130.858 81.4018 130.562C80.8635 130.265 80.4572 129.894 80.183 129.447C79.9139 128.995 79.7793 128.532 79.7793 128.058H82.0111C82.0213 128.349 82.0898 128.586 82.2168 128.769C82.3488 128.952 82.5189 129.086 82.7271 129.173C82.9354 129.253 83.1689 129.294 83.4279 129.294C83.6869 129.294 83.9027 129.256 84.0754 129.181C84.248 129.105 84.3801 129.003 84.4715 128.874C84.5629 128.739 84.6086 128.586 84.6086 128.414Z" fill="black"/>
<path d="M76.2831 128.736V122.106H78.6749V130.844H76.4354L76.2831 128.736ZM76.5344 126.952L77.1895 126.935C77.1895 127.522 77.1235 128.063 76.9915 128.559C76.8645 129.054 76.6715 129.484 76.4125 129.851C76.1586 130.217 75.8413 130.502 75.4604 130.707C75.0846 130.906 74.6454 131.005 74.1426 131.005C73.7364 131.005 73.3631 130.946 73.0229 130.828C72.6877 130.704 72.3983 130.513 72.1545 130.254C71.9108 129.991 71.7229 129.654 71.5909 129.245C71.4588 128.83 71.3928 128.335 71.3928 127.759V122.106H73.7694V127.775C73.7694 128.001 73.7948 128.195 73.8456 128.357C73.9014 128.513 73.975 128.642 74.0665 128.744C74.1629 128.847 74.2797 128.922 74.4168 128.97C74.559 129.019 74.7139 129.043 74.8815 129.043C75.303 129.043 75.6331 128.952 75.8717 128.768C76.1155 128.58 76.2856 128.33 76.3821 128.017C76.4836 127.7 76.5344 127.345 76.5344 126.952Z" fill="black"/>
<path d="M67.7214 126.903H70.1894C70.1487 127.711 69.9405 128.424 69.5647 129.043C69.194 129.657 68.6786 130.139 68.0185 130.489C67.3583 130.833 66.5737 131.006 65.6647 131.006C64.9386 131.006 64.2886 130.874 63.7147 130.61C63.1409 130.346 62.6534 129.969 62.2522 129.479C61.8562 128.984 61.5515 128.389 61.3382 127.695C61.13 126.995 61.0259 126.206 61.0259 125.329V124.61C61.0259 123.732 61.1351 122.944 61.3534 122.244C61.5718 121.544 61.8841 120.947 62.2903 120.451C62.6966 119.956 63.1841 119.576 63.7528 119.313C64.3216 119.049 64.9563 118.917 65.6571 118.917C66.6017 118.917 67.3989 119.097 68.0489 119.458C68.6989 119.819 69.2017 120.314 69.5571 120.944C69.9177 121.574 70.1335 122.292 70.2046 123.1H67.729C67.7087 122.642 67.6274 122.257 67.4853 121.945C67.3431 121.628 67.1247 121.388 66.8302 121.226C66.5356 121.065 66.1446 120.984 65.6571 120.984C65.3017 120.984 64.9894 121.054 64.7202 121.194C64.4562 121.334 64.2353 121.552 64.0575 121.848C63.8849 122.144 63.7554 122.521 63.669 122.979C63.5827 123.431 63.5396 123.969 63.5396 124.594V125.329C63.5396 125.948 63.5776 126.483 63.6538 126.936C63.73 127.388 63.8519 127.762 64.0194 128.058C64.1921 128.354 64.413 128.575 64.6821 128.72C64.9513 128.866 65.2788 128.938 65.6647 128.938C66.1065 128.938 66.4747 128.866 66.7692 128.72C67.0638 128.57 67.2897 128.343 67.4472 128.042C67.6046 127.74 67.696 127.361 67.7214 126.903Z" fill="black"/>
<path d="M128.476 107.222V108.99H123.586V107.222H128.476ZM124.705 105.058H127.09V113.222C127.09 113.464 127.118 113.65 127.173 113.779C127.229 113.908 127.321 114 127.448 114.053C127.575 114.102 127.737 114.126 127.935 114.126C128.077 114.126 128.199 114.121 128.301 114.11C128.402 114.099 128.496 114.086 128.583 114.07V115.895C128.379 115.964 128.164 116.018 127.935 116.056C127.707 116.099 127.458 116.121 127.189 116.121C126.676 116.121 126.231 116.032 125.856 115.854C125.485 115.676 125.201 115.397 125.002 115.014C124.804 114.627 124.705 114.123 124.705 113.504V105.058Z" fill="black"/>
<path d="M117.842 109.087V115.959H115.458V107.222H117.698L117.842 109.087ZM117.53 111.284L116.936 111.3C116.936 110.643 117.012 110.054 117.165 109.532C117.317 109.009 117.533 108.565 117.812 108.199C118.096 107.828 118.434 107.545 118.825 107.351C119.221 107.157 119.658 107.061 120.135 107.061C120.521 107.061 120.874 107.12 121.194 107.238C121.514 107.357 121.788 107.548 122.017 107.812C122.25 108.07 122.428 108.414 122.55 108.845C122.672 109.27 122.733 109.795 122.733 110.42V115.959H120.341V110.412C120.341 110.046 120.293 109.763 120.196 109.564C120.1 109.365 119.957 109.225 119.77 109.144C119.587 109.063 119.363 109.023 119.099 109.023C118.82 109.023 118.581 109.082 118.383 109.2C118.185 109.314 118.023 109.472 117.896 109.677C117.769 109.881 117.675 110.121 117.614 110.396C117.558 110.67 117.53 110.966 117.53 111.284Z" fill="black"/>
<path d="M110.926 116.121C110.271 116.121 109.685 116.011 109.167 115.79C108.649 115.569 108.209 115.265 107.849 114.877C107.493 114.484 107.222 114.032 107.034 113.521C106.846 113.009 106.752 112.463 106.752 111.881V111.575C106.752 110.923 106.838 110.323 107.011 109.774C107.184 109.225 107.435 108.748 107.765 108.345C108.1 107.935 108.512 107.62 108.999 107.4C109.487 107.174 110.043 107.061 110.667 107.061C111.251 107.061 111.772 107.163 112.229 107.367C112.686 107.567 113.072 107.855 113.387 108.231C113.701 108.603 113.94 109.052 114.103 109.58C114.27 110.102 114.354 110.689 114.354 111.34V112.374H107.712V110.751H112.023V110.557C112.023 110.25 111.97 109.981 111.863 109.75C111.762 109.518 111.609 109.34 111.406 109.217C111.208 109.087 110.957 109.023 110.652 109.023C110.362 109.023 110.121 109.087 109.928 109.217C109.735 109.346 109.58 109.529 109.464 109.766C109.352 109.997 109.271 110.269 109.22 110.581C109.169 110.888 109.144 111.219 109.144 111.575V111.881C109.144 112.221 109.187 112.53 109.273 112.81C109.36 113.09 109.487 113.33 109.654 113.529C109.822 113.728 110.025 113.884 110.263 113.997C110.502 114.11 110.774 114.167 111.079 114.167C111.454 114.167 111.812 114.091 112.153 113.941C112.493 113.784 112.787 113.542 113.036 113.214L114.148 114.562C113.981 114.821 113.745 115.071 113.44 115.313C113.14 115.55 112.78 115.744 112.358 115.895C111.937 116.046 111.459 116.121 110.926 116.121Z" fill="black"/>
<path d="M105.327 103.556V115.959H102.943V103.556H105.327Z" fill="black"/>
<path d="M101.108 103.556V115.959H98.7234V103.556H101.108Z" fill="black"/>
<path d="M94.016 116.121C93.3609 116.121 92.7744 116.011 92.2564 115.79C91.7385 115.569 91.2992 115.265 90.9387 114.877C90.5832 114.484 90.3115 114.032 90.1236 113.521C89.9357 113.009 89.8418 112.463 89.8418 111.881V111.575C89.8418 110.923 89.9281 110.323 90.1008 109.774C90.2734 109.225 90.5248 108.748 90.8549 108.345C91.19 107.935 91.6014 107.62 92.0889 107.4C92.5764 107.174 93.1324 107.061 93.757 107.061C94.341 107.061 94.8615 107.163 95.3186 107.367C95.7756 107.567 96.1615 107.855 96.4764 108.231C96.7912 108.603 97.0299 109.052 97.1924 109.58C97.36 110.102 97.4437 110.689 97.4437 111.34V112.374H90.8016V110.751H95.1129V110.557C95.1129 110.25 95.0596 109.981 94.9529 109.75C94.8514 109.518 94.699 109.34 94.4959 109.217C94.2979 109.087 94.0465 109.023 93.7418 109.023C93.4523 109.023 93.2111 109.087 93.0182 109.217C92.8252 109.346 92.6703 109.529 92.5535 109.766C92.4418 109.997 92.3605 110.269 92.3098 110.581C92.259 110.888 92.2336 111.219 92.2336 111.575V111.881C92.2336 112.221 92.2768 112.53 92.3631 112.81C92.4494 113.09 92.5764 113.33 92.7439 113.529C92.9115 113.728 93.1146 113.884 93.3533 113.997C93.592 114.11 93.8637 114.167 94.1684 114.167C94.5441 114.167 94.9021 114.091 95.2424 113.941C95.5826 113.784 95.8771 113.542 96.126 113.214L97.2381 114.562C97.0705 114.821 96.8344 115.071 96.5297 115.313C96.2301 115.55 95.8695 115.744 95.448 115.895C95.0266 116.046 94.5492 116.121 94.016 116.121Z" fill="black"/>
<path d="M85.4542 114.159C85.7081 114.159 85.929 114.107 86.1169 114.005C86.3048 113.903 86.4495 113.76 86.5511 113.577C86.6577 113.389 86.711 113.163 86.711 112.899H88.9505C88.9505 113.534 88.7956 114.094 88.4858 114.579C88.1812 115.063 87.7698 115.443 87.2519 115.717C86.7339 115.986 86.1499 116.121 85.4999 116.121C84.8601 116.121 84.3015 116.011 83.8241 115.79C83.3468 115.564 82.9481 115.249 82.6282 114.845C82.3083 114.441 82.0671 113.973 81.9046 113.44C81.7472 112.902 81.6685 112.32 81.6685 111.696V111.486C81.6685 110.867 81.7472 110.288 81.9046 109.75C82.0671 109.211 82.3083 108.74 82.6282 108.336C82.9481 107.933 83.3442 107.62 83.8165 107.4C84.2938 107.174 84.8524 107.061 85.4923 107.061C86.1677 107.061 86.7644 107.198 87.2823 107.472C87.8054 107.747 88.2142 108.143 88.5087 108.659C88.8032 109.171 88.9505 109.787 88.9505 110.509H86.711C86.711 110.229 86.6628 109.978 86.5663 109.758C86.4749 109.532 86.3327 109.354 86.1397 109.225C85.9519 109.09 85.7183 109.023 85.439 109.023C85.1495 109.023 84.9108 109.09 84.7229 109.225C84.5401 109.354 84.4005 109.534 84.304 109.766C84.2075 109.997 84.1415 110.261 84.106 110.557C84.0704 110.848 84.0526 111.157 84.0526 111.486V111.696C84.0526 112.029 84.0704 112.347 84.106 112.649C84.1415 112.945 84.2075 113.206 84.304 113.432C84.4056 113.658 84.5478 113.836 84.7306 113.965C84.9134 114.094 85.1546 114.159 85.4542 114.159Z" fill="black"/>
<path d="M76.1309 107.223L77.3953 109.75L78.6979 107.223H81.1963L78.9492 111.486L81.3029 115.96H78.7893L77.4029 113.263L76.0242 115.96H73.5029L75.8566 111.486L73.6172 107.223H76.1309Z" fill="black"/>
<path d="M73.0686 113.925V115.96H67.1653V113.925H73.0686ZM68.0108 104.202V115.96H65.5276V104.202H68.0108ZM72.3069 108.934V110.905H67.1653V108.934H72.3069ZM73.0762 104.202V106.245H67.1653V104.202H73.0762Z" fill="black"/>
<path d="M85.8827 67.2143L78 72.326L92.1345 84.5374L113.88 64.6584L107.356 56.4229L92.1345 74.5979L85.8827 67.2143Z" fill="#085239"/>
<path d="M62.231 80.7802C62.5342 79.867 63.8259 79.867 64.1291 80.7802L65.2292 84.0935C65.365 84.5024 65.7474 84.7784 66.1783 84.7784H69.6915C70.6654 84.7784 71.0647 86.029 70.2709 86.5934L67.4662 88.5875C67.1081 88.8421 66.9581 89.3006 67.0966 89.7176L68.1767 92.9705C68.4813 93.888 67.4361 94.6608 66.6481 94.1006L63.7595 92.0468C63.4126 91.8001 62.9475 91.8001 62.6006 92.0468L59.7119 94.1006C58.924 94.6608 57.8788 93.888 58.1834 92.9705L59.2635 89.7176C59.4019 89.3006 59.252 88.8421 58.8939 88.5875L56.0892 86.5934C55.2954 86.029 55.6946 84.7784 56.6686 84.7784H60.1818C60.6127 84.7784 60.9951 84.5024 61.1309 84.0935L62.231 80.7802Z" fill="#085239"/>
<path d="M132.431 80.7802C132.734 79.867 134.026 79.867 134.329 80.7802L135.429 84.0935C135.565 84.5024 135.947 84.7784 136.378 84.7784H139.891C140.865 84.7784 141.265 86.029 140.471 86.5934L137.666 88.5875C137.308 88.8421 137.158 89.3006 137.297 89.7176L138.377 92.9705C138.681 93.888 137.636 94.6608 136.848 94.1006L133.959 92.0468C133.613 91.8001 133.147 91.8001 132.801 92.0468L129.912 94.1006C129.124 94.6608 128.079 93.888 128.383 92.9705L129.463 89.7176C129.602 89.3006 129.452 88.8421 129.094 88.5875L126.289 86.5934C125.495 86.029 125.895 84.7784 126.869 84.7784H130.382C130.813 84.7784 131.195 84.5024 131.331 84.0935L132.431 80.7802Z" fill="#085239"/>
</svg>
