<svg width="333" height="334" viewBox="0 0 333 334" fill="none" xmlns="http://www.w3.org/2000/svg">
<path d="M166.856 286.57C100.925 286.57 47.2891 232.928 47.2891 166.997C47.2891 101.066 100.925 47.4302 166.856 47.4302C232.787 47.4302 286.423 101.066 286.423 166.997C286.423 232.928 232.787 286.564 166.856 286.564V286.57Z" fill="url(#paint0_linear_3808_193)"/>
<path d="M249.928 250.069C295.807 204.189 295.807 129.805 249.928 83.9256C204.049 38.0465 129.664 38.0465 83.7854 83.9256C37.9062 129.805 37.9062 204.189 83.7854 250.069C129.664 295.948 204.049 295.948 249.928 250.069Z" fill="url(#paint1_linear_3808_193)"/>
<path style="mix-blend-mode:multiply" opacity="0.7" d="M284.338 166.997C284.338 102.114 231.74 49.5161 166.857 49.5161C101.974 49.5161 49.376 102.114 49.376 166.997C49.376 231.88 101.974 284.478 166.857 284.478C231.74 284.478 284.338 231.88 284.338 166.997Z" fill="url(#paint2_linear_3808_193)"/>
<path d="M166.753 276.997C108.955 276.997 60.7856 231.768 57.0842 174.032C53.2069 113.506 99.2953 61.1069 159.822 57.2244C162.193 57.0742 164.595 56.9966 166.966 56.9966C224.759 56.9966 272.933 102.226 276.635 159.962C280.512 220.488 234.429 272.892 173.897 276.77C171.526 276.92 169.124 276.997 166.759 276.997H166.753Z" fill="url(#paint3_linear_3808_193)"/>
<path d="M166.857 274.037C225.973 274.037 273.896 226.114 273.896 166.997C273.896 107.881 225.973 59.958 166.857 59.958C107.741 59.958 59.8174 107.881 59.8174 166.997C59.8174 226.114 107.741 274.037 166.857 274.037Z" fill="url(#paint4_linear_3808_193)"/>
<path d="M166.785 243.328C126.68 243.328 93.2542 211.947 90.6865 171.884C89.382 151.54 96.0807 131.904 109.545 116.592C123.01 101.284 141.631 92.1315 161.975 90.827C163.622 90.7235 165.288 90.6665 166.929 90.6665C207.034 90.6665 240.46 122.048 243.027 162.111C245.719 204.11 213.738 240.471 171.739 243.163C170.092 243.266 168.426 243.323 166.785 243.323V243.328Z" fill="url(#paint5_linear_3808_193)"/>
<path d="M240.946 162.25C243.57 203.167 212.526 238.462 171.609 241.087C130.692 243.711 95.3967 212.667 92.7721 171.75C90.1475 130.833 121.192 95.5378 162.109 92.9132C203.026 90.2886 238.321 121.333 240.946 162.25Z" fill="url(#paint6_linear_3808_193)"/>
<g filter="url(#filter0_d_3808_193)">
<path d="M210.89 132.204C211.21 131.328 212.448 131.328 212.768 132.204L215.364 139.305C215.508 139.7 215.884 139.962 216.303 139.962H224.429C225.426 139.962 225.809 141.261 224.971 141.802L218.608 145.911C218.216 146.165 218.051 146.656 218.212 147.095L220.688 153.871C221.018 154.772 220.012 155.574 219.207 155.054L212.372 150.64C212.041 150.427 211.617 150.427 211.287 150.64L204.452 155.054C203.646 155.574 202.641 154.772 202.97 153.871L205.447 147.095C205.607 146.656 205.442 146.165 205.05 145.911L198.687 141.802C197.849 141.261 198.232 139.962 199.229 139.962H207.355C207.775 139.962 208.15 139.7 208.294 139.305L210.89 132.204Z" fill="#7A1908"/>
<path d="M212.299 132.375L214.895 139.477C215.111 140.068 215.674 140.462 216.303 140.462H224.429C224.927 140.462 225.119 141.111 224.7 141.382L218.337 145.491C217.748 145.871 217.501 146.608 217.742 147.266L220.219 154.042C220.383 154.493 219.881 154.894 219.478 154.634L212.643 150.22C212.148 149.9 211.511 149.9 211.015 150.22L204.18 154.634C203.777 154.894 203.275 154.493 203.44 154.042L205.916 147.266C206.157 146.608 205.91 145.871 205.321 145.491L198.958 141.382C198.539 141.111 198.731 140.462 199.229 140.462H207.355C207.985 140.462 208.547 140.068 208.764 139.477L211.36 132.375C211.52 131.938 212.139 131.938 212.299 132.375Z" stroke="white"/>
</g>
<g filter="url(#filter1_d_3808_193)">
<path d="M184.734 104.179C185.054 103.304 186.292 103.304 186.612 104.179L189.208 111.281C189.352 111.675 189.727 111.937 190.147 111.937H198.273C199.27 111.937 199.653 113.237 198.815 113.777L192.452 117.887C192.06 118.14 191.895 118.632 192.055 119.07L194.532 125.846C194.861 126.747 193.856 127.55 193.05 127.029L186.215 122.615C185.885 122.402 185.461 122.402 185.13 122.615L178.295 127.029C177.49 127.55 176.484 126.747 176.814 125.846L179.29 119.07C179.451 118.632 179.286 118.14 178.894 117.887L172.531 113.777C171.693 113.237 172.076 111.937 173.073 111.937H181.199C181.619 111.937 181.994 111.675 182.138 111.281L184.734 104.179Z" fill="#7A1908"/>
<path d="M186.142 104.351L188.738 111.452C188.955 112.044 189.517 112.437 190.147 112.437H198.273C198.771 112.437 198.963 113.087 198.544 113.357L192.181 117.467C191.592 117.847 191.345 118.584 191.586 119.242L194.062 126.018C194.227 126.468 193.725 126.87 193.322 126.609L186.487 122.195C185.991 121.875 185.354 121.875 184.859 122.195L178.024 126.609C177.621 126.87 177.119 126.468 177.283 126.018L179.76 119.242C180.001 118.584 179.754 117.847 179.165 117.467L172.802 113.357C172.383 113.087 172.575 112.437 173.073 112.437H181.199C181.828 112.437 182.391 112.044 182.607 111.452L185.203 104.351C185.363 103.913 185.982 103.913 186.142 104.351Z" stroke="white"/>
</g>
<g filter="url(#filter2_d_3808_193)">
<path d="M144.566 104.179C144.886 103.304 146.124 103.304 146.444 104.179L149.04 111.281C149.184 111.675 149.559 111.937 149.979 111.937H158.105C159.102 111.937 159.485 113.237 158.647 113.777L152.284 117.887C151.892 118.14 151.727 118.632 151.887 119.07L154.364 125.846C154.693 126.747 153.688 127.55 152.882 127.029L146.047 122.615C145.717 122.402 145.293 122.402 144.962 122.615L138.127 127.029C137.322 127.55 136.316 126.747 136.646 125.846L139.123 119.07C139.283 118.632 139.118 118.14 138.726 117.887L132.363 113.777C131.525 113.237 131.908 111.937 132.905 111.937H141.031C141.451 111.937 141.826 111.675 141.97 111.281L144.566 104.179Z" fill="#7A1908"/>
<path d="M145.975 104.351L148.57 111.452C148.787 112.044 149.349 112.437 149.979 112.437H158.105C158.603 112.437 158.795 113.087 158.376 113.357L152.013 117.467C151.424 117.847 151.177 118.584 151.418 119.242L153.894 126.018C154.059 126.468 153.557 126.87 153.154 126.609L146.319 122.195C145.823 121.875 145.186 121.875 144.691 122.195L137.856 126.609C137.453 126.87 136.951 126.468 137.115 126.018L139.592 119.242C139.833 118.584 139.586 117.847 138.997 117.467L132.634 113.357C132.215 113.087 132.407 112.437 132.905 112.437H141.031C141.66 112.437 142.223 112.044 142.439 111.452L145.035 104.351C145.195 103.913 145.814 103.913 145.975 104.351Z" stroke="white"/>
</g>
<g filter="url(#filter3_d_3808_193)">
<path d="M118.41 132.204C118.73 131.328 119.969 131.328 120.289 132.204L122.885 139.305C123.029 139.7 123.404 139.962 123.824 139.962H131.949C132.946 139.962 133.329 141.261 132.492 141.802L126.129 145.911C125.736 146.165 125.572 146.656 125.732 147.095L128.209 153.871C128.538 154.772 127.533 155.574 126.727 155.054L119.892 150.64C119.562 150.427 119.137 150.427 118.807 150.64L111.972 155.054C111.166 155.574 110.161 154.772 110.49 153.871L112.967 147.095C113.128 146.656 112.963 146.165 112.571 145.911L106.207 141.802C105.37 141.261 105.753 139.962 106.75 139.962H114.875C115.295 139.962 115.67 139.7 115.815 139.305L118.41 132.204Z" fill="#7A1908"/>
<path d="M119.819 132.375L122.415 139.477C122.631 140.068 123.194 140.462 123.824 140.462H131.949C132.448 140.462 132.639 141.111 132.221 141.382L125.857 145.491C125.269 145.871 125.022 146.608 125.262 147.266L127.739 154.042C127.904 154.493 127.401 154.894 126.998 154.634L120.163 150.22C119.668 149.9 119.031 149.9 118.536 150.22L111.701 154.634C111.298 154.894 110.795 154.493 110.96 154.042L113.437 147.266C113.677 146.608 113.43 145.871 112.842 145.491L106.479 141.382C106.06 141.111 106.251 140.462 106.75 140.462H114.875C115.505 140.462 116.068 140.068 116.284 139.477L118.88 132.375C119.04 131.938 119.659 131.938 119.819 132.375Z" stroke="white"/>
</g>
<path d="M231.83 116.721L246.102 104.747L241.925 99.7671L227.652 111.741C229.107 113.34 230.5 115.007 231.83 116.721Z" fill="url(#paint7_linear_3808_193)"/>
<path d="M249.011 166.997C249.011 168.084 248.985 169.166 248.943 170.248H267.58V163.751H248.943C248.985 164.828 249.011 165.91 249.011 167.002V166.997Z" fill="url(#paint8_linear_3808_193)"/>
<path d="M243.188 136.568L260.188 129L257.548 123.062L240.537 130.636C241.495 132.572 242.38 134.549 243.188 136.568Z" fill="url(#paint9_linear_3808_193)"/>
<path d="M248.607 158.792L267.052 156.198L266.146 149.764L247.712 152.352C248.095 154.469 248.39 156.618 248.607 158.787V158.792Z" fill="url(#paint10_linear_3808_193)"/>
<path d="M246.677 147.491L264.573 142.361L262.781 136.112L244.891 141.242C245.569 143.292 246.164 145.373 246.677 147.491Z" fill="url(#paint11_linear_3808_193)"/>
<path d="M195.324 89.9105L201.075 72.2112L194.894 70.2026L189.143 87.9019C191.239 88.492 193.299 89.1598 195.324 89.9105Z" fill="url(#paint12_linear_3808_193)"/>
<path d="M184.313 86.7111L187.548 68.3751L181.15 67.2466L177.914 85.5878C180.073 85.8777 182.211 86.2556 184.313 86.7111Z" fill="url(#paint13_linear_3808_193)"/>
<path d="M205.771 94.6311L213.934 77.8999L208.095 75.0527L199.937 91.7839C201.924 92.6588 203.876 93.6113 205.776 94.6363L205.771 94.6311Z" fill="url(#paint14_linear_3808_193)"/>
<path d="M224.199 108.174L236.669 94.326L231.84 89.9775L219.374 103.825C221.041 105.213 222.651 106.662 224.199 108.179V108.174Z" fill="url(#paint15_linear_3808_193)"/>
<path d="M215.455 100.761L225.871 85.3133L220.482 81.6792L210.066 97.1214C211.909 98.2655 213.706 99.4768 215.45 100.761H215.455Z" fill="url(#paint16_linear_3808_193)"/>
<path d="M223.65 226.358L237.053 239.3L241.567 234.626L228.165 221.679C226.72 223.294 225.219 224.857 223.656 226.353L223.65 226.358Z" fill="url(#paint17_linear_3808_193)"/>
<path d="M205.092 239.725L214.4 255.85L220.027 252.599L210.714 236.469C208.887 237.623 207.007 238.71 205.087 239.72L205.092 239.725Z" fill="url(#paint18_linear_3808_193)"/>
<path d="M248.178 178.696L266.705 180.617L267.373 174.151L248.84 172.23C248.706 174.41 248.483 176.563 248.178 178.696Z" fill="url(#paint19_linear_3808_193)"/>
<path d="M194.604 244.342L201.578 261.602L207.603 259.169L200.63 241.915C198.663 242.805 196.649 243.613 194.604 244.348V244.342Z" fill="url(#paint20_linear_3808_193)"/>
<path d="M183.566 247.449L188.07 265.51L194.375 263.937L189.872 245.875C187.801 246.476 185.699 247.004 183.566 247.444V247.449Z" fill="url(#paint21_linear_3808_193)"/>
<path d="M172.209 248.976L174.156 267.509L180.616 266.83L178.67 248.308C176.542 248.614 174.384 248.841 172.204 248.981L172.209 248.976Z" fill="url(#paint22_linear_3808_193)"/>
<path d="M214.84 233.689L226.311 248.37L231.431 244.369L219.96 229.688C218.308 231.09 216.6 232.426 214.84 233.694V233.689Z" fill="url(#paint23_linear_3808_193)"/>
<path d="M242.902 198.135L260.395 204.503L262.615 198.394L245.123 192.027C244.461 194.098 243.72 196.137 242.902 198.13V198.135Z" fill="url(#paint24_linear_3808_193)"/>
<path d="M166.857 84.8426C168.912 84.8426 170.952 84.9202 172.97 85.0704L173.623 66.4548L167.126 66.2271L166.474 84.8478C166.603 84.8478 166.727 84.8478 166.857 84.8478V84.8426Z" fill="url(#paint25_linear_3808_193)"/>
<path d="M246.495 187.249L264.702 191.121L266.053 184.764L247.836 180.892C247.468 183.04 247.023 185.162 246.495 187.249Z" fill="url(#paint26_linear_3808_193)"/>
<path d="M237.819 208.411L254.261 217.154L257.31 211.419L240.879 202.68C239.931 204.637 238.912 206.547 237.819 208.416V208.411Z" fill="url(#paint27_linear_3808_193)"/>
<path d="M231.364 217.879L246.434 228.828L250.254 223.568L235.185 212.62C233.979 214.421 232.705 216.176 231.364 217.874V217.879Z" fill="url(#paint28_linear_3808_193)"/>
<path d="M238.207 126.246L253.997 116.379L250.554 110.871L234.76 120.743C235.981 122.529 237.131 124.366 238.207 126.251V126.246Z" fill="url(#paint29_linear_3808_193)"/>
<path d="M101.883 217.273L87.6104 229.247L91.788 234.227L106.06 222.253C104.606 220.654 103.213 218.987 101.883 217.273Z" fill="url(#paint30_linear_3808_193)"/>
<path d="M95.5107 207.748L79.7217 217.615L83.1642 223.123L98.9584 213.251C97.7367 211.465 96.5875 209.627 95.5055 207.743L95.5107 207.748Z" fill="url(#paint31_linear_3808_193)"/>
<path d="M109.519 225.825L97.0479 239.673L101.878 244.022L114.343 230.174C112.676 228.787 111.066 227.337 109.519 225.82V225.825Z" fill="url(#paint32_linear_3808_193)"/>
<path d="M85.1097 175.207L66.665 177.801L67.571 184.235L86.0053 181.647C85.6222 179.53 85.3272 177.381 85.1097 175.212V175.207Z" fill="url(#paint33_linear_3808_193)"/>
<path d="M87.0415 186.508L69.1455 191.638L70.9367 197.887L88.8275 192.757C88.1545 190.707 87.554 188.626 87.0415 186.508Z" fill="url(#paint34_linear_3808_193)"/>
<path d="M90.5258 197.426L73.5254 204.994L76.1655 210.932L93.1763 203.358C92.2186 201.422 91.3334 199.445 90.5258 197.426Z" fill="url(#paint35_linear_3808_193)"/>
<path d="M167.239 249.147C167.11 249.147 166.985 249.147 166.856 249.147C164.801 249.147 162.761 249.069 160.742 248.919L160.09 267.534L166.587 267.762L167.239 249.142V249.147Z" fill="url(#paint36_linear_3808_193)"/>
<path d="M149.4 247.288L146.165 265.624L152.563 266.753L155.799 248.411C153.64 248.122 151.502 247.744 149.4 247.288Z" fill="url(#paint37_linear_3808_193)"/>
<path d="M138.395 244.084L132.644 261.783L138.825 263.792L144.576 246.093C142.479 245.502 140.419 244.835 138.395 244.084Z" fill="url(#paint38_linear_3808_193)"/>
<path d="M161.509 85.0234L159.562 66.4907L153.102 67.1689L155.048 85.6912C157.176 85.3858 159.334 85.158 161.514 85.0183L161.509 85.0234Z" fill="url(#paint39_linear_3808_193)"/>
<path d="M127.948 239.368L119.784 256.099L125.624 258.946L133.782 242.215C131.794 241.34 129.843 240.388 127.943 239.363L127.948 239.368Z" fill="url(#paint40_linear_3808_193)"/>
<path d="M118.262 233.239L107.847 248.686L113.236 252.32L123.651 236.878C121.808 235.734 120.012 234.523 118.267 233.239H118.262Z" fill="url(#paint41_linear_3808_193)"/>
<path d="M128.621 94.274L119.314 78.1484L113.687 81.3994L122.999 97.5301C124.827 96.3757 126.706 95.2886 128.627 94.2791L128.621 94.274Z" fill="url(#paint42_linear_3808_193)"/>
<path d="M118.879 100.31L107.407 85.6289L102.287 89.6305L113.759 104.312C115.41 102.909 117.118 101.573 118.879 100.305V100.31Z" fill="url(#paint43_linear_3808_193)"/>
<path d="M84.7018 166.997C84.7018 165.91 84.7276 164.828 84.7691 163.746H66.1328V170.243H84.7691C84.7276 169.166 84.7018 168.084 84.7018 166.992V166.997Z" fill="url(#paint44_linear_3808_193)"/>
<path d="M139.114 89.6513L132.141 72.3921L126.115 74.8252L133.088 92.0792C135.055 91.1888 137.069 90.3812 139.114 89.6462V89.6513Z" fill="url(#paint45_linear_3808_193)"/>
<path d="M150.146 86.5455L145.642 68.4839L139.337 70.0576L143.841 88.1192C145.911 87.5187 148.013 86.9907 150.146 86.5507V86.5455Z" fill="url(#paint46_linear_3808_193)"/>
<path d="M110.067 107.641L96.6645 94.6987L92.1504 99.3733L105.553 112.32C106.997 110.705 108.499 109.142 110.062 107.646L110.067 107.641Z" fill="url(#paint47_linear_3808_193)"/>
<path d="M85.5352 155.298L67.0076 153.377L66.3398 159.843L84.8726 161.763C85.0072 159.584 85.2298 157.43 85.5352 155.298Z" fill="url(#paint48_linear_3808_193)"/>
<path d="M87.2227 146.751L69.0162 142.878L67.665 149.235L85.882 153.108C86.2495 150.959 86.6947 148.837 87.2227 146.751Z" fill="url(#paint49_linear_3808_193)"/>
<path d="M95.8937 125.589L79.4524 116.845L76.4033 122.581L92.8343 131.319C93.7816 129.363 94.8014 127.452 95.8937 125.584V125.589Z" fill="url(#paint50_linear_3808_193)"/>
<path d="M90.8156 135.864L73.3234 129.497L71.1025 135.606L88.5947 141.973C89.2574 139.902 89.9976 137.863 90.8207 135.87L90.8156 135.864Z" fill="url(#paint51_linear_3808_193)"/>
<path d="M102.355 116.12L87.2853 105.171L83.4648 110.431L98.5343 121.38C99.7405 119.578 101.014 117.823 102.355 116.125V116.12Z" fill="url(#paint52_linear_3808_193)"/>
<path d="M176.732 179.144H159.117V157.285L170.327 145.515L172.329 147.616C172.515 147.813 172.669 148.079 172.789 148.415C172.909 148.751 172.969 149.074 172.969 149.382V149.97L171.208 157.285H181.537C182.391 157.285 183.138 157.621 183.778 158.294C184.419 158.966 184.739 159.751 184.739 160.648V164.011C184.739 164.207 184.713 164.417 184.659 164.641C184.606 164.865 184.552 165.075 184.499 165.272L179.695 177.126C179.455 177.686 179.054 178.163 178.494 178.555C177.933 178.947 177.346 179.144 176.732 179.144ZM162.32 175.781H176.732L181.537 164.011V160.648H167.124L169.286 151.4L162.32 158.714V175.781ZM159.117 157.285V160.648H154.313V175.781H159.117V179.144H151.11V157.285H159.117Z" fill="#7A1908"/>
<mask id="path-63-outside-1_3808_193" maskUnits="userSpaceOnUse" x="121.26" y="195.222" width="94" height="25" fill="black">
<rect fill="white" x="121.26" y="195.222" width="94" height="25"/>
<path d="M140.049 207.191V215.497C139.736 215.897 139.243 216.332 138.569 216.801C137.905 217.27 137.036 217.675 135.962 218.017C134.888 218.349 133.569 218.515 132.007 218.515C130.65 218.515 129.409 218.29 128.286 217.841C127.163 217.382 126.196 216.713 125.386 215.834C124.575 214.955 123.95 213.881 123.511 212.611C123.071 211.342 122.852 209.892 122.852 208.261V206.854C122.852 205.224 123.057 203.773 123.467 202.504C123.887 201.234 124.483 200.16 125.254 199.281C126.035 198.402 126.968 197.733 128.052 197.274C129.146 196.815 130.366 196.586 131.714 196.586C133.521 196.586 135.005 196.884 136.167 197.479C137.339 198.075 138.237 198.896 138.862 199.94C139.487 200.976 139.878 202.167 140.034 203.515H136.109C136.001 202.772 135.786 202.123 135.464 201.566C135.142 201 134.683 200.561 134.087 200.248C133.501 199.926 132.739 199.765 131.802 199.765C131.011 199.765 130.313 199.921 129.707 200.233C129.102 200.546 128.594 201 128.184 201.596C127.774 202.191 127.461 202.929 127.246 203.808C127.041 204.687 126.939 205.692 126.939 206.825V208.261C126.939 209.403 127.056 210.419 127.29 211.308C127.525 212.187 127.861 212.929 128.301 213.534C128.75 214.13 129.302 214.584 129.956 214.896C130.62 215.199 131.372 215.351 132.212 215.351C132.974 215.351 133.604 215.287 134.102 215.16C134.61 215.023 135.015 214.862 135.318 214.677C135.62 214.491 135.855 214.311 136.021 214.135V210.136H131.787V207.191H140.049ZM143.858 196.894H151.607C153.228 196.894 154.619 197.138 155.781 197.626C156.943 198.114 157.837 198.837 158.462 199.794C159.087 200.751 159.4 201.928 159.4 203.324C159.4 204.428 159.204 205.385 158.814 206.195C158.423 207.006 157.871 207.685 157.158 208.231C156.455 208.778 155.625 209.208 154.668 209.521L153.408 210.165H146.568L146.538 206.986H151.651C152.481 206.986 153.169 206.84 153.716 206.547C154.263 206.254 154.673 205.849 154.946 205.331C155.23 204.813 155.371 204.223 155.371 203.559C155.371 202.846 155.235 202.23 154.961 201.713C154.688 201.186 154.273 200.78 153.716 200.497C153.159 200.214 152.456 200.072 151.607 200.072H147.886V218.222H143.858V196.894ZM155.899 218.222L150.962 208.671L155.225 208.656L160.22 218.017V218.222H155.899ZM177.066 215.058V218.222H165.728V215.058H177.066ZM166.958 196.894V218.222H162.93V196.894H166.958ZM175.586 205.697V208.788H165.728V205.697H175.586ZM177.022 196.894V200.072H165.728V196.894H177.022ZM188.345 200.131L182.266 218.222H178.003L185.972 196.894H188.696L188.345 200.131ZM193.428 218.222L187.319 200.131L186.953 196.894H189.693L197.705 218.222H193.428ZM193.15 210.297V213.476H181.709V210.297H193.15ZM207.212 196.894V218.222H203.198V196.894H207.212ZM213.833 196.894V200.072H196.651V196.894H213.833Z"/>
</mask>
<path d="M140.049 207.191V215.497C139.736 215.897 139.243 216.332 138.569 216.801C137.905 217.27 137.036 217.675 135.962 218.017C134.888 218.349 133.569 218.515 132.007 218.515C130.65 218.515 129.409 218.29 128.286 217.841C127.163 217.382 126.196 216.713 125.386 215.834C124.575 214.955 123.95 213.881 123.511 212.611C123.071 211.342 122.852 209.892 122.852 208.261V206.854C122.852 205.224 123.057 203.773 123.467 202.504C123.887 201.234 124.483 200.16 125.254 199.281C126.035 198.402 126.968 197.733 128.052 197.274C129.146 196.815 130.366 196.586 131.714 196.586C133.521 196.586 135.005 196.884 136.167 197.479C137.339 198.075 138.237 198.896 138.862 199.94C139.487 200.976 139.878 202.167 140.034 203.515H136.109C136.001 202.772 135.786 202.123 135.464 201.566C135.142 201 134.683 200.561 134.087 200.248C133.501 199.926 132.739 199.765 131.802 199.765C131.011 199.765 130.313 199.921 129.707 200.233C129.102 200.546 128.594 201 128.184 201.596C127.774 202.191 127.461 202.929 127.246 203.808C127.041 204.687 126.939 205.692 126.939 206.825V208.261C126.939 209.403 127.056 210.419 127.29 211.308C127.525 212.187 127.861 212.929 128.301 213.534C128.75 214.13 129.302 214.584 129.956 214.896C130.62 215.199 131.372 215.351 132.212 215.351C132.974 215.351 133.604 215.287 134.102 215.16C134.61 215.023 135.015 214.862 135.318 214.677C135.62 214.491 135.855 214.311 136.021 214.135V210.136H131.787V207.191H140.049ZM143.858 196.894H151.607C153.228 196.894 154.619 197.138 155.781 197.626C156.943 198.114 157.837 198.837 158.462 199.794C159.087 200.751 159.4 201.928 159.4 203.324C159.4 204.428 159.204 205.385 158.814 206.195C158.423 207.006 157.871 207.685 157.158 208.231C156.455 208.778 155.625 209.208 154.668 209.521L153.408 210.165H146.568L146.538 206.986H151.651C152.481 206.986 153.169 206.84 153.716 206.547C154.263 206.254 154.673 205.849 154.946 205.331C155.23 204.813 155.371 204.223 155.371 203.559C155.371 202.846 155.235 202.23 154.961 201.713C154.688 201.186 154.273 200.78 153.716 200.497C153.159 200.214 152.456 200.072 151.607 200.072H147.886V218.222H143.858V196.894ZM155.899 218.222L150.962 208.671L155.225 208.656L160.22 218.017V218.222H155.899ZM177.066 215.058V218.222H165.728V215.058H177.066ZM166.958 196.894V218.222H162.93V196.894H166.958ZM175.586 205.697V208.788H165.728V205.697H175.586ZM177.022 196.894V200.072H165.728V196.894H177.022ZM188.345 200.131L182.266 218.222H178.003L185.972 196.894H188.696L188.345 200.131ZM193.428 218.222L187.319 200.131L186.953 196.894H189.693L197.705 218.222H193.428ZM193.15 210.297V213.476H181.709V210.297H193.15ZM207.212 196.894V218.222H203.198V196.894H207.212ZM213.833 196.894V200.072H196.651V196.894H213.833Z" fill="#7A1908"/>
<path d="M140.049 207.191H141.049V206.191H140.049V207.191ZM140.049 215.497L140.837 216.112L141.049 215.841V215.497H140.049ZM138.569 216.801L137.998 215.98L137.993 215.984L138.569 216.801ZM135.962 218.017L136.257 218.972L136.265 218.97L135.962 218.017ZM128.286 217.841L127.908 218.767L127.915 218.769L128.286 217.841ZM123.467 202.504L122.518 202.19L122.515 202.196L123.467 202.504ZM125.254 199.281L124.507 198.617L124.503 198.622L125.254 199.281ZM128.052 197.274L127.665 196.352L127.662 196.354L128.052 197.274ZM136.167 197.479L135.711 198.369L135.714 198.371L136.167 197.479ZM138.862 199.94L138.004 200.454L138.006 200.457L138.862 199.94ZM140.034 203.515V204.515H141.157L141.028 203.399L140.034 203.515ZM136.109 203.515L135.119 203.658L135.243 204.515H136.109V203.515ZM135.464 201.566L134.595 202.061L134.599 202.067L135.464 201.566ZM134.087 200.248L133.605 201.124L133.614 201.129L133.623 201.134L134.087 200.248ZM127.246 203.808L126.275 203.57L126.272 203.58L127.246 203.808ZM127.29 211.308L126.323 211.563L126.324 211.565L127.29 211.308ZM128.301 213.534L127.492 214.122L127.497 214.129L127.502 214.136L128.301 213.534ZM129.956 214.896L129.525 215.799L129.533 215.803L129.541 215.806L129.956 214.896ZM134.102 215.16L134.349 216.129L134.362 216.126L134.102 215.16ZM136.021 214.135L136.748 214.821L137.021 214.532V214.135H136.021ZM136.021 210.136H137.021V209.136H136.021V210.136ZM131.787 210.136H130.787V211.136H131.787V210.136ZM131.787 207.191V206.191H130.787V207.191H131.787ZM139.049 207.191V215.497H141.049V207.191H139.049ZM139.261 214.882C139.036 215.17 138.634 215.538 137.998 215.98L139.141 217.622C139.853 217.126 140.437 216.625 140.837 216.112L139.261 214.882ZM137.993 215.984C137.438 216.376 136.67 216.742 135.659 217.064L136.265 218.97C137.402 218.608 138.373 218.163 139.146 217.618L137.993 215.984ZM135.667 217.061C134.717 217.355 133.505 217.515 132.007 217.515V219.515C133.634 219.515 135.058 219.343 136.257 218.972L135.667 217.061ZM132.007 217.515C130.761 217.515 129.649 217.309 128.658 216.912L127.915 218.769C129.17 219.271 130.538 219.515 132.007 219.515V217.515ZM128.665 216.915C127.675 216.511 126.831 215.926 126.121 215.156L124.651 216.512C125.562 217.5 126.651 218.253 127.908 218.766L128.665 216.915ZM126.121 215.156C125.415 214.39 124.856 213.44 124.456 212.284L122.566 212.938C123.045 214.322 123.736 215.52 124.651 216.512L126.121 215.156ZM124.456 212.284C124.06 211.14 123.852 209.803 123.852 208.261H121.852C121.852 209.98 122.083 211.544 122.566 212.938L124.456 212.284ZM123.852 208.261V206.854H121.852V208.261H123.852ZM123.852 206.854C123.852 205.306 124.047 203.962 124.419 202.811L122.515 202.196C122.067 203.585 121.852 205.142 121.852 206.854H123.852ZM124.416 202.818C124.8 201.658 125.334 200.706 126.006 199.941L124.503 198.622C123.631 199.615 122.974 200.811 122.518 202.19L124.416 202.818ZM126.001 199.946C126.684 199.178 127.494 198.596 128.442 198.195L127.662 196.354C126.441 196.87 125.387 197.627 124.507 198.617L126.001 199.946ZM128.439 198.197C129.394 197.795 130.481 197.586 131.714 197.586V195.586C130.251 195.586 128.897 195.835 127.665 196.352L128.439 198.197ZM131.714 197.586C133.42 197.586 134.734 197.868 135.711 198.369L136.623 196.59C135.276 195.899 133.622 195.586 131.714 195.586V197.586ZM135.714 198.371C136.732 198.888 137.484 199.583 138.004 200.454L139.721 199.427C138.991 198.208 137.946 197.262 136.62 196.588L135.714 198.371ZM138.006 200.457C138.549 201.356 138.899 202.407 139.041 203.63L141.028 203.399C140.857 201.927 140.426 200.595 139.719 199.424L138.006 200.457ZM140.034 202.515H136.109V204.515H140.034V202.515ZM137.098 203.371C136.976 202.524 136.725 201.749 136.329 201.065L134.599 202.067C134.847 202.497 135.027 203.021 135.119 203.658L137.098 203.371ZM136.333 201.072C135.913 200.334 135.311 199.761 134.552 199.362L133.623 201.134C134.054 201.36 134.37 201.666 134.595 202.061L136.333 201.072ZM134.569 199.372C133.788 198.942 132.844 198.765 131.802 198.765V200.765C132.635 200.765 133.214 200.909 133.605 201.124L134.569 199.372ZM131.802 198.765C130.877 198.765 130.017 198.948 129.249 199.345L130.166 201.122C130.608 200.894 131.145 200.765 131.802 200.765V198.765ZM129.249 199.345C128.488 199.737 127.858 200.306 127.36 201.029L129.007 202.163C129.33 201.694 129.716 201.354 130.166 201.122L129.249 199.345ZM127.36 201.029C126.866 201.746 126.512 202.602 126.275 203.57L128.218 204.045C128.411 203.256 128.681 202.637 129.007 202.163L127.36 201.029ZM126.272 203.58C126.046 204.55 125.939 205.634 125.939 206.825H127.939C127.939 205.75 128.036 204.823 128.22 204.035L126.272 203.58ZM125.939 206.825V208.261H127.939V206.825H125.939ZM125.939 208.261C125.939 209.469 126.062 210.573 126.323 211.563L128.257 211.053C128.049 210.264 127.939 209.337 127.939 208.261H125.939ZM126.324 211.565C126.583 212.538 126.966 213.398 127.492 214.122L129.11 212.947C128.757 212.46 128.466 211.835 128.256 211.05L126.324 211.565ZM127.502 214.136C128.045 214.856 128.722 215.415 129.525 215.799L130.387 213.994C129.882 213.753 129.455 213.404 129.099 212.932L127.502 214.136ZM129.541 215.806C130.354 216.177 131.251 216.351 132.212 216.351V214.351C131.494 214.351 130.887 214.222 130.371 213.987L129.541 215.806ZM132.212 216.351C133.021 216.351 133.741 216.284 134.349 216.129L133.855 214.191C133.466 214.29 132.926 214.351 132.212 214.351V216.351ZM134.362 216.126C134.922 215.975 135.427 215.783 135.84 215.529L134.795 213.824C134.603 213.942 134.297 214.072 133.842 214.195L134.362 216.126ZM135.84 215.529C136.186 215.317 136.5 215.084 136.748 214.821L135.294 213.448C135.209 213.538 135.054 213.665 134.795 213.824L135.84 215.529ZM137.021 214.135V210.136H135.021V214.135H137.021ZM136.021 209.136H131.787V211.136H136.021V209.136ZM132.787 210.136V207.191H130.787V210.136H132.787ZM131.787 208.191H140.049V206.191H131.787V208.191ZM143.858 196.894V195.894H142.858V196.894H143.858ZM157.158 208.231L156.55 207.438L156.544 207.442L157.158 208.231ZM154.668 209.521L154.358 208.57L154.283 208.594L154.213 208.63L154.668 209.521ZM153.408 210.165V211.165H153.649L153.864 211.055L153.408 210.165ZM146.568 210.165L145.568 210.174L145.577 211.165H146.568V210.165ZM146.538 206.986V205.986H145.529L145.538 206.996L146.538 206.986ZM154.946 205.331L154.069 204.851L154.066 204.857L154.062 204.864L154.946 205.331ZM154.961 201.713L154.073 202.173L154.077 202.18L154.961 201.713ZM147.886 200.072V199.072H146.886V200.072H147.886ZM147.886 218.222V219.222H148.886V218.222H147.886ZM143.858 218.222H142.858V219.222H143.858V218.222ZM155.899 218.222L155.01 218.681L155.29 219.222H155.899V218.222ZM150.962 208.671L150.959 207.671L149.322 207.677L150.074 209.13L150.962 208.671ZM155.225 208.656L156.107 208.185L155.823 207.654L155.221 207.656L155.225 208.656ZM160.22 218.017H161.22V217.766L161.102 217.546L160.22 218.017ZM160.22 218.222V219.222H161.22V218.222H160.22ZM143.858 197.894H151.607V195.894H143.858V197.894ZM151.607 197.894C153.131 197.894 154.384 198.124 155.394 198.548L156.169 196.704C154.854 196.152 153.324 195.894 151.607 195.894V197.894ZM155.394 198.548C156.392 198.967 157.12 199.568 157.625 200.341L159.299 199.247C158.554 198.106 157.495 197.261 156.169 196.704L155.394 198.548ZM157.625 200.341C158.122 201.102 158.4 202.079 158.4 203.324H160.4C160.4 201.777 160.052 200.4 159.299 199.247L157.625 200.341ZM158.4 203.324C158.4 204.311 158.225 205.113 157.913 205.761L159.714 206.629C160.183 205.656 160.4 204.545 160.4 203.324H158.4ZM157.913 205.761C157.59 206.431 157.138 206.987 156.55 207.438L157.767 209.025C158.604 208.383 159.256 207.581 159.714 206.629L157.913 205.761ZM156.544 207.442C155.943 207.91 155.219 208.289 154.358 208.57L154.979 210.471C156.031 210.127 156.967 209.647 157.772 209.021L156.544 207.442ZM154.213 208.63L152.953 209.275L153.864 211.055L155.124 210.411L154.213 208.63ZM153.408 209.165H146.568V211.165H153.408V209.165ZM147.567 210.156L147.538 206.977L145.538 206.996L145.568 210.174L147.567 210.156ZM146.538 207.986H151.651V205.986H146.538V207.986ZM151.651 207.986C152.592 207.986 153.455 207.821 154.188 207.428L153.244 205.665C152.883 205.859 152.369 205.986 151.651 205.986V207.986ZM154.188 207.428C154.9 207.047 155.458 206.503 155.831 205.798L154.062 204.864C153.888 205.195 153.626 205.461 153.244 205.665L154.188 207.428ZM155.824 205.811C156.197 205.129 156.371 204.369 156.371 203.559H154.371C154.371 204.076 154.262 204.498 154.069 204.851L155.824 205.811ZM156.371 203.559C156.371 202.718 156.21 201.935 155.845 201.246L154.077 202.18C154.259 202.526 154.371 202.973 154.371 203.559H156.371ZM155.849 201.253C155.474 200.53 154.902 199.979 154.169 199.606L153.263 201.388C153.643 201.582 153.901 201.841 154.073 202.173L155.849 201.253ZM154.169 199.606C153.431 199.23 152.56 199.072 151.607 199.072V201.072C152.353 201.072 152.888 201.198 153.263 201.388L154.169 199.606ZM151.607 199.072H147.886V201.072H151.607V199.072ZM146.886 200.072V218.222H148.886V200.072H146.886ZM147.886 217.222H143.858V219.222H147.886V217.222ZM144.858 218.222V196.894H142.858V218.222H144.858ZM156.787 217.763L151.85 208.212L150.074 209.13L155.01 218.681L156.787 217.763ZM150.965 209.671L155.228 209.656L155.221 207.656L150.959 207.671L150.965 209.671ZM154.343 209.127L159.338 218.487L161.102 217.546L156.107 208.185L154.343 209.127ZM159.22 218.017V218.222H161.22V218.017H159.22ZM160.22 217.222H155.899V219.222H160.22V217.222ZM177.066 215.058H178.066V214.058H177.066V215.058ZM177.066 218.222V219.222H178.066V218.222H177.066ZM165.728 218.222H164.728V219.222H165.728V218.222ZM165.728 215.058V214.058H164.728V215.058H165.728ZM166.958 196.894H167.958V195.894H166.958V196.894ZM166.958 218.222V219.222H167.958V218.222H166.958ZM162.93 218.222H161.93V219.222H162.93V218.222ZM162.93 196.894V195.894H161.93V196.894H162.93ZM175.586 205.697H176.586V204.697H175.586V205.697ZM175.586 208.788V209.788H176.586V208.788H175.586ZM165.728 208.788H164.728V209.788H165.728V208.788ZM165.728 205.697V204.697H164.728V205.697H165.728ZM177.022 196.894H178.022V195.894H177.022V196.894ZM177.022 200.072V201.072H178.022V200.072H177.022ZM165.728 200.072H164.728V201.072H165.728V200.072ZM165.728 196.894V195.894H164.728V196.894H165.728ZM176.066 215.058V218.222H178.066V215.058H176.066ZM177.066 217.222H165.728V219.222H177.066V217.222ZM166.728 218.222V215.058H164.728V218.222H166.728ZM165.728 216.058H177.066V214.058H165.728V216.058ZM165.958 196.894V218.222H167.958V196.894H165.958ZM166.958 217.222H162.93V219.222H166.958V217.222ZM163.93 218.222V196.894H161.93V218.222H163.93ZM162.93 197.894H166.958V195.894H162.93V197.894ZM174.586 205.697V208.788H176.586V205.697H174.586ZM175.586 207.788H165.728V209.788H175.586V207.788ZM166.728 208.788V205.697H164.728V208.788H166.728ZM165.728 206.697H175.586V204.697H165.728V206.697ZM176.022 196.894V200.072H178.022V196.894H176.022ZM177.022 199.072H165.728V201.072H177.022V199.072ZM166.728 200.072V196.894H164.728V200.072H166.728ZM165.728 197.894H177.022V195.894H165.728V197.894ZM188.345 200.131L189.293 200.449L189.327 200.347L189.339 200.239L188.345 200.131ZM182.266 218.222V219.222H182.985L183.214 218.54L182.266 218.222ZM178.003 218.222L177.066 217.872L176.562 219.222H178.003V218.222ZM185.972 196.894V195.894H185.278L185.035 196.544L185.972 196.894ZM188.696 196.894L189.691 197.002L189.811 195.894H188.696V196.894ZM193.428 218.222L192.48 218.542L192.71 219.222H193.428V218.222ZM187.319 200.131L186.326 200.243L186.338 200.349L186.372 200.451L187.319 200.131ZM186.953 196.894V195.894H185.834L185.96 197.006L186.953 196.894ZM189.693 196.894L190.629 196.542L190.385 195.894H189.693V196.894ZM197.705 218.222V219.222H199.149L198.641 217.87L197.705 218.222ZM193.15 210.297H194.15V209.297H193.15V210.297ZM193.15 213.476V214.476H194.15V213.476H193.15ZM181.709 213.476H180.709V214.476H181.709V213.476ZM181.709 210.297V209.297H180.709V210.297H181.709ZM187.397 199.812L181.318 217.903L183.214 218.54L189.293 200.449L187.397 199.812ZM182.266 217.222H178.003V219.222H182.266V217.222ZM178.94 218.572L186.909 197.244L185.035 196.544L177.066 217.872L178.94 218.572ZM185.972 197.894H188.696V195.894H185.972V197.894ZM187.702 196.786L187.351 200.023L189.339 200.239L189.691 197.002L187.702 196.786ZM194.375 217.902L188.267 199.811L186.372 200.451L192.48 218.542L194.375 217.902ZM188.313 200.018L187.947 196.781L185.96 197.006L186.326 200.243L188.313 200.018ZM186.953 197.894H189.693V195.894H186.953V197.894ZM188.756 197.245L196.769 218.573L198.641 217.87L190.629 196.542L188.756 197.245ZM197.705 217.222H193.428V219.222H197.705V217.222ZM192.15 210.297V213.476H194.15V210.297H192.15ZM193.15 212.476H181.709V214.476H193.15V212.476ZM182.709 213.476V210.297H180.709V213.476H182.709ZM181.709 211.297H193.15V209.297H181.709V211.297ZM207.212 196.894H208.212V195.894H207.212V196.894ZM207.212 218.222V219.222H208.212V218.222H207.212ZM203.198 218.222H202.198V219.222H203.198V218.222ZM203.198 196.894V195.894H202.198V196.894H203.198ZM213.833 196.894H214.833V195.894H213.833V196.894ZM213.833 200.072V201.072H214.833V200.072H213.833ZM196.651 200.072H195.651V201.072H196.651V200.072ZM196.651 196.894V195.894H195.651V196.894H196.651ZM206.212 196.894V218.222H208.212V196.894H206.212ZM207.212 217.222H203.198V219.222H207.212V217.222ZM204.198 218.222V196.894H202.198V218.222H204.198ZM203.198 197.894H207.212V195.894H203.198V197.894ZM212.833 196.894V200.072H214.833V196.894H212.833ZM213.833 199.072H196.651V201.072H213.833V199.072ZM197.651 200.072V196.894H195.651V200.072H197.651ZM196.651 197.894H213.833V195.894H196.651V197.894Z" fill="white" fill-opacity="0.11" mask="url(#path-63-outside-1_3808_193)"/>
<path d="M125.889 187.426C132.701 187.115 139.514 186.902 146.332 186.795C153.144 186.668 159.957 186.632 166.775 186.617C173.587 186.632 180.405 186.668 187.218 186.795C194.03 186.902 200.843 187.11 207.661 187.426C200.848 187.741 194.035 187.95 187.218 188.057C180.405 188.184 173.592 188.219 166.775 188.235C159.962 188.219 153.149 188.184 146.332 188.057C139.519 187.95 132.706 187.741 125.889 187.426Z" fill="#4D2D0B"/>
<defs>
<filter id="filter0_d_3808_193" x="194.228" y="131.547" width="35.2031" height="31.6714" filterUnits="userSpaceOnUse" color-interpolation-filters="sRGB">
<feFlood flood-opacity="0" result="BackgroundImageFix"/>
<feColorMatrix in="SourceAlpha" type="matrix" values="0 0 0 0 0 0 0 0 0 0 0 0 0 0 0 0 0 0 127 0" result="hardAlpha"/>
<feOffset dy="4"/>
<feGaussianBlur stdDeviation="2"/>
<feComposite in2="hardAlpha" operator="out"/>
<feColorMatrix type="matrix" values="0 0 0 0 0 0 0 0 0 0 0 0 0 0 0 0 0 0 0.25 0"/>
<feBlend mode="normal" in2="BackgroundImageFix" result="effect1_dropShadow_3808_193"/>
<feBlend mode="normal" in="SourceGraphic" in2="effect1_dropShadow_3808_193" result="shape"/>
</filter>
<filter id="filter1_d_3808_193" x="168.071" y="103.522" width="35.2031" height="31.6714" filterUnits="userSpaceOnUse" color-interpolation-filters="sRGB">
<feFlood flood-opacity="0" result="BackgroundImageFix"/>
<feColorMatrix in="SourceAlpha" type="matrix" values="0 0 0 0 0 0 0 0 0 0 0 0 0 0 0 0 0 0 127 0" result="hardAlpha"/>
<feOffset dy="4"/>
<feGaussianBlur stdDeviation="2"/>
<feComposite in2="hardAlpha" operator="out"/>
<feColorMatrix type="matrix" values="0 0 0 0 0 0 0 0 0 0 0 0 0 0 0 0 0 0 0.25 0"/>
<feBlend mode="normal" in2="BackgroundImageFix" result="effect1_dropShadow_3808_193"/>
<feBlend mode="normal" in="SourceGraphic" in2="effect1_dropShadow_3808_193" result="shape"/>
</filter>
<filter id="filter2_d_3808_193" x="127.903" y="103.522" width="35.2031" height="31.6714" filterUnits="userSpaceOnUse" color-interpolation-filters="sRGB">
<feFlood flood-opacity="0" result="BackgroundImageFix"/>
<feColorMatrix in="SourceAlpha" type="matrix" values="0 0 0 0 0 0 0 0 0 0 0 0 0 0 0 0 0 0 127 0" result="hardAlpha"/>
<feOffset dy="4"/>
<feGaussianBlur stdDeviation="2"/>
<feComposite in2="hardAlpha" operator="out"/>
<feColorMatrix type="matrix" values="0 0 0 0 0 0 0 0 0 0 0 0 0 0 0 0 0 0 0.25 0"/>
<feBlend mode="normal" in2="BackgroundImageFix" result="effect1_dropShadow_3808_193"/>
<feBlend mode="normal" in="SourceGraphic" in2="effect1_dropShadow_3808_193" result="shape"/>
</filter>
<filter id="filter3_d_3808_193" x="101.748" y="131.547" width="35.2031" height="31.6714" filterUnits="userSpaceOnUse" color-interpolation-filters="sRGB">
<feFlood flood-opacity="0" result="BackgroundImageFix"/>
<feColorMatrix in="SourceAlpha" type="matrix" values="0 0 0 0 0 0 0 0 0 0 0 0 0 0 0 0 0 0 127 0" result="hardAlpha"/>
<feOffset dy="4"/>
<feGaussianBlur stdDeviation="2"/>
<feComposite in2="hardAlpha" operator="out"/>
<feColorMatrix type="matrix" values="0 0 0 0 0 0 0 0 0 0 0 0 0 0 0 0 0 0 0.25 0"/>
<feBlend mode="normal" in2="BackgroundImageFix" result="effect1_dropShadow_3808_193"/>
<feBlend mode="normal" in="SourceGraphic" in2="effect1_dropShadow_3808_193" result="shape"/>
</filter>
<linearGradient id="paint0_linear_3808_193" x1="110.098" y1="283.412" x2="246.552" y2="3.54697" gradientUnits="userSpaceOnUse">
<stop offset="0.1" stop-color="#BA903F"/>
<stop offset="0.5" stop-color="#996019"/>
<stop offset="0.64" stop-color="#6F4410"/>
<stop offset="0.8" stop-color="#462908"/>
<stop offset="0.92" stop-color="#2E1903"/>
<stop offset="1" stop-color="#251302"/>
</linearGradient>
<linearGradient id="paint1_linear_3808_193" x1="288.355" y1="-114.493" x2="130.149" y2="252.046" gradientUnits="userSpaceOnUse">
<stop stop-color="#FFD744"/>
<stop offset="0.07" stop-color="#A6761A"/>
<stop offset="0.19" stop-color="#FFD744"/>
<stop offset="0.4" stop-color="#FFD744"/>
<stop offset="0.56" stop-color="#FCF4AE"/>
<stop offset="0.68" stop-color="#FFD744"/>
<stop offset="0.75" stop-color="#A6761A"/>
<stop offset="0.88" stop-color="#FFD744"/>
<stop offset="0.97" stop-color="#FCF4AE"/>
<stop offset="1" stop-color="#FFD744"/>
</linearGradient>
<linearGradient id="paint2_linear_3808_193" x1="53.7257" y1="-117.959" x2="201.039" y2="253.092" gradientUnits="userSpaceOnUse">
<stop offset="0.1" stop-color="#BA903F"/>
<stop offset="0.5" stop-color="#996019"/>
<stop offset="0.64" stop-color="#6F4410"/>
<stop offset="0.8" stop-color="#462908"/>
<stop offset="0.92" stop-color="#2E1903"/>
<stop offset="1" stop-color="#251302"/>
</linearGradient>
<linearGradient id="paint3_linear_3808_193" x1="239.15" y1="-62.2029" x2="116.622" y2="326.264" gradientUnits="userSpaceOnUse">
<stop stop-color="#FFD744"/>
<stop offset="0.07" stop-color="#A6761A"/>
<stop offset="0.19" stop-color="#FFD744"/>
<stop offset="0.4" stop-color="#FFD744"/>
<stop offset="0.56" stop-color="#FCF4AE"/>
<stop offset="0.68" stop-color="#FFD744"/>
<stop offset="0.75" stop-color="#A6761A"/>
<stop offset="0.88" stop-color="#FFD744"/>
<stop offset="0.97" stop-color="#FCF4AE"/>
<stop offset="1" stop-color="#FFD744"/>
</linearGradient>
<linearGradient id="paint4_linear_3808_193" x1="184.541" y1="7.7337" x2="148.724" y2="330.216" gradientUnits="userSpaceOnUse">
<stop stop-color="#FFD744"/>
<stop offset="0.07" stop-color="#A6761A"/>
<stop offset="0.19" stop-color="#FFD744"/>
<stop offset="0.4" stop-color="#FFD744"/>
<stop offset="0.56" stop-color="#FCF4AE"/>
<stop offset="0.68" stop-color="#FFD744"/>
<stop offset="0.75" stop-color="#A6761A"/>
<stop offset="0.88" stop-color="#FFD744"/>
<stop offset="0.97" stop-color="#FCF4AE"/>
<stop offset="1" stop-color="#FFD744"/>
</linearGradient>
<linearGradient id="paint5_linear_3808_193" x1="264.19" y1="-92.6159" x2="85.6236" y2="383.571" gradientUnits="userSpaceOnUse">
<stop offset="0.1" stop-color="#BA903F"/>
<stop offset="0.5" stop-color="#996019"/>
<stop offset="0.64" stop-color="#6F4410"/>
<stop offset="0.8" stop-color="#462908"/>
<stop offset="0.92" stop-color="#2E1903"/>
<stop offset="1" stop-color="#251302"/>
</linearGradient>
<linearGradient id="paint6_linear_3808_193" x1="232.699" y1="-42.9968" x2="94.8583" y2="396.637" gradientUnits="userSpaceOnUse">
<stop stop-color="#FFD744"/>
<stop offset="0.07" stop-color="#A6761A"/>
<stop offset="0.19" stop-color="#FFD744"/>
<stop offset="0.4" stop-color="#FFD744"/>
<stop offset="0.56" stop-color="#FCF4AE"/>
<stop offset="0.68" stop-color="#FFD744"/>
<stop offset="0.75" stop-color="#A6761A"/>
<stop offset="0.88" stop-color="#FFD744"/>
<stop offset="0.97" stop-color="#FCF4AE"/>
<stop offset="1" stop-color="#FFD744"/>
</linearGradient>
<linearGradient id="paint7_linear_3808_193" x1="292.682" y1="116.498" x2="-88.4804" y2="60.1082" gradientUnits="userSpaceOnUse">
<stop offset="0.1" stop-color="#BA903F"/>
<stop offset="0.5" stop-color="#996019"/>
<stop offset="0.64" stop-color="#6F4410"/>
<stop offset="0.8" stop-color="#462908"/>
<stop offset="0.92" stop-color="#2E1903"/>
<stop offset="1" stop-color="#251302"/>
</linearGradient>
<linearGradient id="paint8_linear_3808_193" x1="284.632" y1="170.901" x2="-96.5261" y2="114.51" gradientUnits="userSpaceOnUse">
<stop offset="0.1" stop-color="#BA903F"/>
<stop offset="0.5" stop-color="#996019"/>
<stop offset="0.64" stop-color="#6F4410"/>
<stop offset="0.8" stop-color="#462908"/>
<stop offset="0.92" stop-color="#2E1903"/>
<stop offset="1" stop-color="#251302"/>
</linearGradient>
<linearGradient id="paint9_linear_3808_193" x1="289.851" y1="135.657" x2="-91.3074" y2="79.2668" gradientUnits="userSpaceOnUse">
<stop offset="0.1" stop-color="#BA903F"/>
<stop offset="0.5" stop-color="#996019"/>
<stop offset="0.64" stop-color="#6F4410"/>
<stop offset="0.8" stop-color="#462908"/>
<stop offset="0.92" stop-color="#2E1903"/>
<stop offset="1" stop-color="#251302"/>
</linearGradient>
<linearGradient id="paint10_linear_3808_193" x1="286.46" y1="158.58" x2="-94.7084" y2="102.184" gradientUnits="userSpaceOnUse">
<stop offset="0.1" stop-color="#BA903F"/>
<stop offset="0.5" stop-color="#996019"/>
<stop offset="0.64" stop-color="#6F4410"/>
<stop offset="0.8" stop-color="#462908"/>
<stop offset="0.92" stop-color="#2E1903"/>
<stop offset="1" stop-color="#251302"/>
</linearGradient>
<linearGradient id="paint11_linear_3808_193" x1="288.204" y1="146.756" x2="-92.9588" y2="90.3602" gradientUnits="userSpaceOnUse">
<stop offset="0.1" stop-color="#BA903F"/>
<stop offset="0.5" stop-color="#996019"/>
<stop offset="0.64" stop-color="#6F4410"/>
<stop offset="0.8" stop-color="#462908"/>
<stop offset="0.92" stop-color="#2E1903"/>
<stop offset="1" stop-color="#251302"/>
</linearGradient>
<linearGradient id="paint12_linear_3808_193" x1="295.866" y1="94.963" x2="-85.2868" y2="38.5727" gradientUnits="userSpaceOnUse">
<stop offset="0.1" stop-color="#BA903F"/>
<stop offset="0.5" stop-color="#996019"/>
<stop offset="0.64" stop-color="#6F4410"/>
<stop offset="0.8" stop-color="#462908"/>
<stop offset="0.92" stop-color="#2E1903"/>
<stop offset="1" stop-color="#251302"/>
</linearGradient>
<linearGradient id="paint13_linear_3808_193" x1="296.047" y1="93.7411" x2="-85.1056" y2="37.3509" gradientUnits="userSpaceOnUse">
<stop offset="0.1" stop-color="#BA903F"/>
<stop offset="0.5" stop-color="#996019"/>
<stop offset="0.64" stop-color="#6F4410"/>
<stop offset="0.8" stop-color="#462908"/>
<stop offset="0.92" stop-color="#2E1903"/>
<stop offset="1" stop-color="#251302"/>
</linearGradient>
<linearGradient id="paint14_linear_3808_193" x1="295.432" y1="97.9287" x2="-85.7314" y2="41.5385" gradientUnits="userSpaceOnUse">
<stop offset="0.1" stop-color="#BA903F"/>
<stop offset="0.5" stop-color="#996019"/>
<stop offset="0.64" stop-color="#6F4410"/>
<stop offset="0.8" stop-color="#462908"/>
<stop offset="0.92" stop-color="#2E1903"/>
<stop offset="1" stop-color="#251302"/>
</linearGradient>
<linearGradient id="paint15_linear_3808_193" x1="293.821" y1="108.805" x2="-87.337" y2="52.4152" gradientUnits="userSpaceOnUse">
<stop offset="0.1" stop-color="#BA903F"/>
<stop offset="0.5" stop-color="#996019"/>
<stop offset="0.64" stop-color="#6F4410"/>
<stop offset="0.8" stop-color="#462908"/>
<stop offset="0.92" stop-color="#2E1903"/>
<stop offset="1" stop-color="#251302"/>
</linearGradient>
<linearGradient id="paint16_linear_3808_193" x1="294.742" y1="102.578" x2="-86.4104" y2="46.1875" gradientUnits="userSpaceOnUse">
<stop offset="0.1" stop-color="#BA903F"/>
<stop offset="0.5" stop-color="#996019"/>
<stop offset="0.64" stop-color="#6F4410"/>
<stop offset="0.8" stop-color="#462908"/>
<stop offset="0.92" stop-color="#2E1903"/>
<stop offset="1" stop-color="#251302"/>
</linearGradient>
<linearGradient id="paint17_linear_3808_193" x1="274.89" y1="236.743" x2="-106.263" y2="180.358" gradientUnits="userSpaceOnUse">
<stop offset="0.1" stop-color="#BA903F"/>
<stop offset="0.5" stop-color="#996019"/>
<stop offset="0.64" stop-color="#6F4410"/>
<stop offset="0.8" stop-color="#462908"/>
<stop offset="0.92" stop-color="#2E1903"/>
<stop offset="1" stop-color="#251302"/>
</linearGradient>
<linearGradient id="paint18_linear_3808_193" x1="272.193" y1="254.981" x2="-108.965" y2="198.591" gradientUnits="userSpaceOnUse">
<stop offset="0.1" stop-color="#BA903F"/>
<stop offset="0.5" stop-color="#996019"/>
<stop offset="0.64" stop-color="#6F4410"/>
<stop offset="0.8" stop-color="#462908"/>
<stop offset="0.92" stop-color="#2E1903"/>
<stop offset="1" stop-color="#251302"/>
</linearGradient>
<linearGradient id="paint19_linear_3808_193" x1="283.26" y1="180.192" x2="-97.9028" y2="123.802" gradientUnits="userSpaceOnUse">
<stop offset="0.1" stop-color="#BA903F"/>
<stop offset="0.5" stop-color="#996019"/>
<stop offset="0.64" stop-color="#6F4410"/>
<stop offset="0.8" stop-color="#462908"/>
<stop offset="0.92" stop-color="#2E1903"/>
<stop offset="1" stop-color="#251302"/>
</linearGradient>
<linearGradient id="paint20_linear_3808_193" x1="271.137" y1="262.114" x2="-110.015" y2="205.724" gradientUnits="userSpaceOnUse">
<stop offset="0.1" stop-color="#BA903F"/>
<stop offset="0.5" stop-color="#996019"/>
<stop offset="0.64" stop-color="#6F4410"/>
<stop offset="0.8" stop-color="#462908"/>
<stop offset="0.92" stop-color="#2E1903"/>
<stop offset="1" stop-color="#251302"/>
</linearGradient>
<linearGradient id="paint21_linear_3808_193" x1="270.308" y1="267.726" x2="-110.845" y2="211.336" gradientUnits="userSpaceOnUse">
<stop offset="0.1" stop-color="#BA903F"/>
<stop offset="0.5" stop-color="#996019"/>
<stop offset="0.64" stop-color="#6F4410"/>
<stop offset="0.8" stop-color="#462908"/>
<stop offset="0.92" stop-color="#2E1903"/>
<stop offset="1" stop-color="#251302"/>
</linearGradient>
<linearGradient id="paint22_linear_3808_193" x1="269.723" y1="271.707" x2="-111.445" y2="215.317" gradientUnits="userSpaceOnUse">
<stop offset="0.1" stop-color="#BA903F"/>
<stop offset="0.5" stop-color="#996019"/>
<stop offset="0.64" stop-color="#6F4410"/>
<stop offset="0.8" stop-color="#462908"/>
<stop offset="0.92" stop-color="#2E1903"/>
<stop offset="1" stop-color="#251302"/>
</linearGradient>
<linearGradient id="paint23_linear_3808_193" x1="273.456" y1="246.47" x2="-107.702" y2="190.075" gradientUnits="userSpaceOnUse">
<stop offset="0.1" stop-color="#BA903F"/>
<stop offset="0.5" stop-color="#996019"/>
<stop offset="0.64" stop-color="#6F4410"/>
<stop offset="0.8" stop-color="#462908"/>
<stop offset="0.92" stop-color="#2E1903"/>
<stop offset="1" stop-color="#251302"/>
</linearGradient>
<linearGradient id="paint24_linear_3808_193" x1="279.988" y1="202.292" x2="-101.164" y2="145.902" gradientUnits="userSpaceOnUse">
<stop offset="0.1" stop-color="#BA903F"/>
<stop offset="0.5" stop-color="#996019"/>
<stop offset="0.64" stop-color="#6F4410"/>
<stop offset="0.8" stop-color="#462908"/>
<stop offset="0.92" stop-color="#2E1903"/>
<stop offset="1" stop-color="#251302"/>
</linearGradient>
<linearGradient id="paint25_linear_3808_193" x1="295.975" y1="94.2798" x2="-85.1985" y2="37.8896" gradientUnits="userSpaceOnUse">
<stop offset="0.1" stop-color="#BA903F"/>
<stop offset="0.5" stop-color="#996019"/>
<stop offset="0.64" stop-color="#6F4410"/>
<stop offset="0.8" stop-color="#462908"/>
<stop offset="0.92" stop-color="#2E1903"/>
<stop offset="1" stop-color="#251302"/>
</linearGradient>
<linearGradient id="paint26_linear_3808_193" x1="281.842" y1="189.785" x2="-99.3212" y2="133.395" gradientUnits="userSpaceOnUse">
<stop offset="0.1" stop-color="#BA903F"/>
<stop offset="0.5" stop-color="#996019"/>
<stop offset="0.64" stop-color="#6F4410"/>
<stop offset="0.8" stop-color="#462908"/>
<stop offset="0.92" stop-color="#2E1903"/>
<stop offset="1" stop-color="#251302"/>
</linearGradient>
<linearGradient id="paint27_linear_3808_193" x1="278.193" y1="214.442" x2="-102.96" y2="158.051" gradientUnits="userSpaceOnUse">
<stop offset="0.1" stop-color="#BA903F"/>
<stop offset="0.5" stop-color="#996019"/>
<stop offset="0.64" stop-color="#6F4410"/>
<stop offset="0.8" stop-color="#462908"/>
<stop offset="0.92" stop-color="#2E1903"/>
<stop offset="1" stop-color="#251302"/>
</linearGradient>
<linearGradient id="paint28_linear_3808_193" x1="276.485" y1="226.001" x2="-104.684" y2="169.611" gradientUnits="userSpaceOnUse">
<stop offset="0.1" stop-color="#BA903F"/>
<stop offset="0.5" stop-color="#996019"/>
<stop offset="0.64" stop-color="#6F4410"/>
<stop offset="0.8" stop-color="#462908"/>
<stop offset="0.92" stop-color="#2E1903"/>
<stop offset="1" stop-color="#251302"/>
</linearGradient>
<linearGradient id="paint29_linear_3808_193" x1="291.347" y1="125.505" x2="-89.8007" y2="69.1151" gradientUnits="userSpaceOnUse">
<stop offset="0.1" stop-color="#BA903F"/>
<stop offset="0.5" stop-color="#996019"/>
<stop offset="0.64" stop-color="#6F4410"/>
<stop offset="0.8" stop-color="#462908"/>
<stop offset="0.92" stop-color="#2E1903"/>
<stop offset="1" stop-color="#251302"/>
</linearGradient>
<linearGradient id="paint30_linear_3808_193" x1="272.673" y1="251.766" x2="-108.49" y2="195.371" gradientUnits="userSpaceOnUse">
<stop offset="0.1" stop-color="#BA903F"/>
<stop offset="0.5" stop-color="#996019"/>
<stop offset="0.64" stop-color="#6F4410"/>
<stop offset="0.8" stop-color="#462908"/>
<stop offset="0.92" stop-color="#2E1903"/>
<stop offset="1" stop-color="#251302"/>
</linearGradient>
<linearGradient id="paint31_linear_3808_193" x1="274.005" y1="242.759" x2="-107.153" y2="186.369" gradientUnits="userSpaceOnUse">
<stop offset="0.1" stop-color="#BA903F"/>
<stop offset="0.5" stop-color="#996019"/>
<stop offset="0.64" stop-color="#6F4410"/>
<stop offset="0.8" stop-color="#462908"/>
<stop offset="0.92" stop-color="#2E1903"/>
<stop offset="1" stop-color="#251302"/>
</linearGradient>
<linearGradient id="paint32_linear_3808_193" x1="271.53" y1="259.454" x2="-109.623" y2="203.063" gradientUnits="userSpaceOnUse">
<stop offset="0.1" stop-color="#BA903F"/>
<stop offset="0.5" stop-color="#996019"/>
<stop offset="0.64" stop-color="#6F4410"/>
<stop offset="0.8" stop-color="#462908"/>
<stop offset="0.92" stop-color="#2E1903"/>
<stop offset="1" stop-color="#251302"/>
</linearGradient>
<linearGradient id="paint33_linear_3808_193" x1="278.89" y1="209.684" x2="-102.257" y2="153.294" gradientUnits="userSpaceOnUse">
<stop offset="0.1" stop-color="#BA903F"/>
<stop offset="0.5" stop-color="#996019"/>
<stop offset="0.64" stop-color="#6F4410"/>
<stop offset="0.8" stop-color="#462908"/>
<stop offset="0.92" stop-color="#2E1903"/>
<stop offset="1" stop-color="#251302"/>
</linearGradient>
<linearGradient id="paint34_linear_3808_193" x1="277.147" y1="221.508" x2="-104.011" y2="165.118" gradientUnits="userSpaceOnUse">
<stop offset="0.1" stop-color="#BA903F"/>
<stop offset="0.5" stop-color="#996019"/>
<stop offset="0.64" stop-color="#6F4410"/>
<stop offset="0.8" stop-color="#462908"/>
<stop offset="0.92" stop-color="#2E1903"/>
<stop offset="1" stop-color="#251302"/>
</linearGradient>
<linearGradient id="paint35_linear_3808_193" x1="275.506" y1="232.607" x2="-105.652" y2="176.217" gradientUnits="userSpaceOnUse">
<stop offset="0.1" stop-color="#BA903F"/>
<stop offset="0.5" stop-color="#996019"/>
<stop offset="0.64" stop-color="#6F4410"/>
<stop offset="0.8" stop-color="#462908"/>
<stop offset="0.92" stop-color="#2E1903"/>
<stop offset="1" stop-color="#251302"/>
</linearGradient>
<linearGradient id="paint36_linear_3808_193" x1="269.386" y1="273.985" x2="-111.782" y2="217.594" gradientUnits="userSpaceOnUse">
<stop offset="0.1" stop-color="#BA903F"/>
<stop offset="0.5" stop-color="#996019"/>
<stop offset="0.64" stop-color="#6F4410"/>
<stop offset="0.8" stop-color="#462908"/>
<stop offset="0.92" stop-color="#2E1903"/>
<stop offset="1" stop-color="#251302"/>
</linearGradient>
<linearGradient id="paint37_linear_3808_193" x1="269.304" y1="274.523" x2="-111.854" y2="218.133" gradientUnits="userSpaceOnUse">
<stop offset="0.1" stop-color="#BA903F"/>
<stop offset="0.5" stop-color="#996019"/>
<stop offset="0.64" stop-color="#6F4410"/>
<stop offset="0.8" stop-color="#462908"/>
<stop offset="0.92" stop-color="#2E1903"/>
<stop offset="1" stop-color="#251302"/>
</linearGradient>
<linearGradient id="paint38_linear_3808_193" x1="269.485" y1="273.301" x2="-111.672" y2="216.911" gradientUnits="userSpaceOnUse">
<stop offset="0.1" stop-color="#BA903F"/>
<stop offset="0.5" stop-color="#996019"/>
<stop offset="0.64" stop-color="#6F4410"/>
<stop offset="0.8" stop-color="#462908"/>
<stop offset="0.92" stop-color="#2E1903"/>
<stop offset="1" stop-color="#251302"/>
</linearGradient>
<linearGradient id="paint39_linear_3808_193" x1="295.633" y1="96.5572" x2="-85.5304" y2="40.1619" gradientUnits="userSpaceOnUse">
<stop offset="0.1" stop-color="#BA903F"/>
<stop offset="0.5" stop-color="#996019"/>
<stop offset="0.64" stop-color="#6F4410"/>
<stop offset="0.8" stop-color="#462908"/>
<stop offset="0.92" stop-color="#2E1903"/>
<stop offset="1" stop-color="#251302"/>
</linearGradient>
<linearGradient id="paint40_linear_3808_193" x1="269.925" y1="270.335" x2="-111.238" y2="213.94" gradientUnits="userSpaceOnUse">
<stop offset="0.1" stop-color="#BA903F"/>
<stop offset="0.5" stop-color="#996019"/>
<stop offset="0.64" stop-color="#6F4410"/>
<stop offset="0.8" stop-color="#462908"/>
<stop offset="0.92" stop-color="#2E1903"/>
<stop offset="1" stop-color="#251302"/>
</linearGradient>
<linearGradient id="paint41_linear_3808_193" x1="270.608" y1="265.687" x2="-110.544" y2="209.296" gradientUnits="userSpaceOnUse">
<stop offset="0.1" stop-color="#BA903F"/>
<stop offset="0.5" stop-color="#996019"/>
<stop offset="0.64" stop-color="#6F4410"/>
<stop offset="0.8" stop-color="#462908"/>
<stop offset="0.92" stop-color="#2E1903"/>
<stop offset="1" stop-color="#251302"/>
</linearGradient>
<linearGradient id="paint42_linear_3808_193" x1="293.159" y1="113.283" x2="-87.9991" y2="56.8928" gradientUnits="userSpaceOnUse">
<stop offset="0.1" stop-color="#BA903F"/>
<stop offset="0.5" stop-color="#996019"/>
<stop offset="0.64" stop-color="#6F4410"/>
<stop offset="0.8" stop-color="#462908"/>
<stop offset="0.92" stop-color="#2E1903"/>
<stop offset="1" stop-color="#251302"/>
</linearGradient>
<linearGradient id="paint43_linear_3808_193" x1="291.901" y1="121.794" x2="-89.2573" y2="65.4034" gradientUnits="userSpaceOnUse">
<stop offset="0.1" stop-color="#BA903F"/>
<stop offset="0.5" stop-color="#996019"/>
<stop offset="0.64" stop-color="#6F4410"/>
<stop offset="0.8" stop-color="#462908"/>
<stop offset="0.92" stop-color="#2E1903"/>
<stop offset="1" stop-color="#251302"/>
</linearGradient>
<linearGradient id="paint44_linear_3808_193" x1="280.719" y1="197.364" x2="-100.439" y2="140.974" gradientUnits="userSpaceOnUse">
<stop offset="0.1" stop-color="#BA903F"/>
<stop offset="0.5" stop-color="#996019"/>
<stop offset="0.64" stop-color="#6F4410"/>
<stop offset="0.8" stop-color="#462908"/>
<stop offset="0.92" stop-color="#2E1903"/>
<stop offset="1" stop-color="#251302"/>
</linearGradient>
<linearGradient id="paint45_linear_3808_193" x1="294.214" y1="106.144" x2="-86.9437" y2="49.7542" gradientUnits="userSpaceOnUse">
<stop offset="0.1" stop-color="#BA903F"/>
<stop offset="0.5" stop-color="#996019"/>
<stop offset="0.64" stop-color="#6F4410"/>
<stop offset="0.8" stop-color="#462908"/>
<stop offset="0.92" stop-color="#2E1903"/>
<stop offset="1" stop-color="#251302"/>
</linearGradient>
<linearGradient id="paint46_linear_3808_193" x1="295.043" y1="100.533" x2="-86.11" y2="44.1429" gradientUnits="userSpaceOnUse">
<stop offset="0.1" stop-color="#BA903F"/>
<stop offset="0.5" stop-color="#996019"/>
<stop offset="0.64" stop-color="#6F4410"/>
<stop offset="0.8" stop-color="#462908"/>
<stop offset="0.92" stop-color="#2E1903"/>
<stop offset="1" stop-color="#251302"/>
</linearGradient>
<linearGradient id="paint47_linear_3808_193" x1="290.456" y1="131.516" x2="-90.6971" y2="75.1255" gradientUnits="userSpaceOnUse">
<stop offset="0.1" stop-color="#BA903F"/>
<stop offset="0.5" stop-color="#996019"/>
<stop offset="0.64" stop-color="#6F4410"/>
<stop offset="0.8" stop-color="#462908"/>
<stop offset="0.92" stop-color="#2E1903"/>
<stop offset="1" stop-color="#251302"/>
</linearGradient>
<linearGradient id="paint48_linear_3808_193" x1="282.096" y1="188.066" x2="-99.0672" y2="131.676" gradientUnits="userSpaceOnUse">
<stop offset="0.1" stop-color="#BA903F"/>
<stop offset="0.5" stop-color="#996019"/>
<stop offset="0.64" stop-color="#6F4410"/>
<stop offset="0.8" stop-color="#462908"/>
<stop offset="0.92" stop-color="#2E1903"/>
<stop offset="1" stop-color="#251302"/>
</linearGradient>
<linearGradient id="paint49_linear_3808_193" x1="283.514" y1="178.479" x2="-97.6437" y2="122.089" gradientUnits="userSpaceOnUse">
<stop offset="0.1" stop-color="#BA903F"/>
<stop offset="0.5" stop-color="#996019"/>
<stop offset="0.64" stop-color="#6F4410"/>
<stop offset="0.8" stop-color="#462908"/>
<stop offset="0.92" stop-color="#2E1903"/>
<stop offset="1" stop-color="#251302"/>
</linearGradient>
<linearGradient id="paint50_linear_3808_193" x1="287.159" y1="153.817" x2="-93.9941" y2="97.4325" gradientUnits="userSpaceOnUse">
<stop offset="0.1" stop-color="#BA903F"/>
<stop offset="0.5" stop-color="#996019"/>
<stop offset="0.64" stop-color="#6F4410"/>
<stop offset="0.8" stop-color="#462908"/>
<stop offset="0.92" stop-color="#2E1903"/>
<stop offset="1" stop-color="#251302"/>
</linearGradient>
<linearGradient id="paint51_linear_3808_193" x1="285.362" y1="165.972" x2="-95.7954" y2="109.582" gradientUnits="userSpaceOnUse">
<stop offset="0.1" stop-color="#BA903F"/>
<stop offset="0.5" stop-color="#996019"/>
<stop offset="0.64" stop-color="#6F4410"/>
<stop offset="0.8" stop-color="#462908"/>
<stop offset="0.92" stop-color="#2E1903"/>
<stop offset="1" stop-color="#251302"/>
</linearGradient>
<linearGradient id="paint52_linear_3808_193" x1="288.873" y1="142.263" x2="-92.2854" y2="85.8725" gradientUnits="userSpaceOnUse">
<stop offset="0.1" stop-color="#BA903F"/>
<stop offset="0.5" stop-color="#996019"/>
<stop offset="0.64" stop-color="#6F4410"/>
<stop offset="0.8" stop-color="#462908"/>
<stop offset="0.92" stop-color="#2E1903"/>
<stop offset="1" stop-color="#251302"/>
</linearGradient>
</defs>
</svg>
