<svg width="40" height="40" viewBox="0 0 40 40" fill="none" xmlns="http://www.w3.org/2000/svg">
<path d="M13.3333 33.3333H26.6666V28.3333C26.6666 26.5 26.0138 24.9305 24.7083 23.625C23.4027 22.3194 21.8333 21.6667 20 21.6667C18.1666 21.6667 16.5972 22.3194 15.2916 23.625C13.9861 24.9305 13.3333 26.5 13.3333 28.3333V33.3333ZM20 18.3333C21.8333 18.3333 23.4027 17.6805 24.7083 16.375C26.0138 15.0694 26.6666 13.5 26.6666 11.6667V6.66666H13.3333V11.6667C13.3333 13.5 13.9861 15.0694 15.2916 16.375C16.5972 17.6805 18.1666 18.3333 20 18.3333ZM6.66663 36.6667V33.3333H9.99996V28.3333C9.99996 26.6389 10.3958 25.0486 11.1875 23.5625C11.9791 22.0764 13.0833 20.8889 14.5 20C13.0833 19.1111 11.9791 17.9236 11.1875 16.4375C10.3958 14.9514 9.99996 13.3611 9.99996 11.6667V6.66666H6.66663V3.33333H33.3333V6.66666H30V11.6667C30 13.3611 29.6041 14.9514 28.8125 16.4375C28.0208 17.9236 26.9166 19.1111 25.5 20C26.9166 20.8889 28.0208 22.0764 28.8125 23.5625C29.6041 25.0486 30 26.6389 30 28.3333V33.3333H33.3333V36.6667H6.66663Z" fill="white"/>
</svg>
