<svg width="196" height="196" viewBox="0 0 196 196" fill="none" xmlns="http://www.w3.org/2000/svg">
<path d="M167.296 167.296C181.002 153.591 190.336 136.129 194.117 117.119C197.898 98.1087 195.958 78.4042 188.54 60.497C181.123 42.5899 168.562 27.2844 152.446 16.516C136.33 5.7476 117.383 -5.13096e-06 98 -4.28372e-06C78.6174 -3.43648e-06 59.6701 5.7476 43.5541 16.516C27.4381 27.2844 14.8772 42.5899 7.45981 60.497C0.0424202 78.4042 -1.89831 98.1087 1.88305 117.119C5.6644 136.129 14.998 153.591 28.7035 167.296L63.3518 132.648C56.499 125.795 51.8322 117.064 49.9415 107.559C48.0508 98.0544 49.0212 88.2021 52.7299 79.2485C56.4386 70.2949 62.7191 62.6422 70.7771 57.258C78.8351 51.8738 88.3087 49 98 49C107.691 49 117.165 51.8738 125.223 57.258C133.281 62.6422 139.561 70.2949 143.27 79.2485C146.979 88.2021 147.949 98.0544 146.058 107.559C144.168 117.064 139.501 125.795 132.648 132.648L167.296 167.296Z" fill="#FF0506"/>
<path d="M167.296 167.296C181.002 153.591 190.336 136.129 194.117 117.119C197.898 98.1087 195.958 78.4042 188.54 60.497C181.123 42.5899 168.562 27.2844 152.446 16.516C136.33 5.7476 117.383 -5.13096e-06 98 -4.28372e-06L98 49C107.691 49 117.165 51.8738 125.223 57.258C133.281 62.6422 139.561 70.2949 143.27 79.2485C146.979 88.2021 147.949 98.0544 146.058 107.559C144.168 117.064 139.501 125.795 132.648 132.648L167.296 167.296Z" fill="#FFCC06"/>
<path d="M36.4643 68.9471C36.2424 69.1691 35.9853 69.2759 35.6638 69.2759C35.3423 69.2759 35.0852 69.1691 34.8633 68.9471C34.6413 68.7251 34.5345 68.468 34.5345 68.1466C34.5345 67.8251 34.6413 67.568 34.8633 67.346C35.0852 67.124 35.3423 67.0172 35.6638 67.0172C35.9853 67.0172 36.2424 67.124 36.4643 67.346C36.6863 67.568 36.7931 67.8251 36.7931 68.1466C36.7931 68.468 36.6863 68.7251 36.4643 68.9471ZM28.8609 68.9471C28.6389 69.1691 28.3818 69.2759 28.0604 69.2759C27.7389 69.2759 27.4818 69.1691 27.2598 68.9471C27.0378 68.7251 26.931 68.468 26.931 68.1466C26.931 67.8251 27.0378 67.568 27.2598 67.346C27.4818 67.124 27.7389 67.0172 28.0604 67.0172C28.3818 67.0172 28.6389 67.124 28.8609 67.346C29.0829 67.568 29.1897 67.8251 29.1897 68.1466C29.1897 68.468 29.0829 68.7251 28.8609 68.9471ZM31.8621 81.2241C30.4246 81.2241 29.0802 80.9517 27.824 80.4097C26.558 79.8634 25.4618 79.1245 24.5307 78.1934C23.5996 77.2624 22.8607 76.1661 22.3145 74.9002C21.7724 73.6439 21.5 72.2996 21.5 70.8621C21.5 69.4246 21.7724 68.0802 22.3145 66.824C22.8607 65.558 23.5996 64.4618 24.5307 63.5307C25.4618 62.5996 26.558 61.8607 27.824 61.3145C29.0802 60.7724 30.4246 60.5 31.8621 60.5C33.2996 60.5 34.6439 60.7724 35.9002 61.3145C37.1661 61.8607 38.2624 62.5996 39.1934 63.5307C40.1245 64.4618 40.8634 65.558 41.4097 66.824C41.9518 68.0802 42.2241 69.4246 42.2241 70.8621C42.2241 72.2996 41.9518 73.6439 41.4097 74.9002C40.8634 76.1661 40.1245 77.2624 39.1934 78.1934C38.2624 79.1245 37.1661 79.8634 35.9002 80.4097C34.6439 80.9517 33.2996 81.2241 31.8621 81.2241ZM31.8621 80.0517C34.4177 80.0517 36.6005 79.1592 38.3799 77.3798C40.1592 75.6005 41.0517 73.4177 41.0517 70.8621C41.0517 68.3064 40.1592 66.1236 38.3799 64.3443C36.6005 62.5649 34.4177 61.6724 31.8621 61.6724C29.3064 61.6724 27.1237 62.5649 25.3443 64.3443C23.5649 66.1236 22.6724 68.3064 22.6724 70.8621C22.6724 73.4177 23.5649 75.6005 25.3443 77.3798C27.1237 79.1592 29.3064 80.0517 31.8621 80.0517Z" fill="#292929" stroke="black"/>
<path d="M29.0998 74.0824C29.8528 73.72 30.6982 73.5345 31.6448 73.5345C32.5914 73.5345 33.4368 73.72 34.1898 74.0824C34.5717 74.2662 34.8917 74.475 35.1552 74.7069L28.1345 74.7069C28.398 74.475 28.718 74.2662 29.0998 74.0824Z" fill="#292929" stroke="black"/>
<path d="M146.464 39.9471C146.242 40.1691 145.985 40.2759 145.664 40.2759C145.342 40.2759 145.085 40.1691 144.863 39.9471C144.641 39.7251 144.534 39.468 144.534 39.1466C144.534 38.8251 144.641 38.568 144.863 38.346C145.085 38.124 145.342 38.0172 145.664 38.0172C145.985 38.0172 146.242 38.124 146.464 38.346C146.686 38.568 146.793 38.8251 146.793 39.1466C146.793 39.468 146.686 39.7251 146.464 39.9471ZM138.861 39.9471C138.639 40.1691 138.382 40.2759 138.06 40.2759C137.739 40.2759 137.482 40.1691 137.26 39.9471C137.038 39.7251 136.931 39.468 136.931 39.1466C136.931 38.8251 137.038 38.568 137.26 38.346C137.482 38.124 137.739 38.0172 138.06 38.0172C138.382 38.0172 138.639 38.124 138.861 38.346C139.083 38.568 139.19 38.8251 139.19 39.1466C139.19 39.468 139.083 39.7251 138.861 39.9471ZM141.862 52.2241C140.425 52.2241 139.08 51.9517 137.824 51.4097C136.558 50.8634 135.462 50.1245 134.531 49.1934C133.6 48.2624 132.861 47.1661 132.314 45.9002C131.772 44.6439 131.5 43.2996 131.5 41.8621C131.5 40.4246 131.772 39.0802 132.314 37.824C132.861 36.558 133.6 35.4618 134.531 34.5307C135.462 33.5996 136.558 32.8607 137.824 32.3145C139.08 31.7724 140.425 31.5 141.862 31.5C143.3 31.5 144.644 31.7724 145.9 32.3145C147.166 32.8607 148.262 33.5996 149.193 34.5307C150.125 35.4618 150.863 36.558 151.41 37.824C151.952 39.0802 152.224 40.4246 152.224 41.8621C152.224 43.2996 151.952 44.6439 151.41 45.9002C150.863 47.1661 150.125 48.2624 149.193 49.1934C148.262 50.1245 147.166 50.8634 145.9 51.4097C144.644 51.9517 143.3 52.2241 141.862 52.2241ZM141.862 51.0517C144.418 51.0517 146.601 50.1592 148.38 48.3798C150.159 46.6005 151.052 44.4177 151.052 41.8621C151.052 39.3064 150.159 37.1236 148.38 35.3443C146.601 33.5649 144.418 32.6724 141.862 32.6724C139.306 32.6724 137.124 33.5649 135.344 35.3443C133.565 37.1236 132.672 39.3064 132.672 41.8621C132.672 44.4177 133.565 46.6005 135.344 48.3798C137.124 50.1592 139.306 51.0517 141.862 51.0517Z" fill="#292929" stroke="black"/>
<rect x="138.017" y="44.5344" width="7.68966" height="1.17241" fill="#292929" stroke="black"/>
<path d="M167.296 167.296C179.461 155.132 188.208 139.981 192.661 123.364C197.113 106.748 197.113 89.2522 192.661 72.6357L145.33 85.3179C147.557 93.6261 147.557 102.374 145.33 110.682C143.104 118.99 138.73 126.566 132.648 132.648L167.296 167.296Z" fill="#03BE53"/>
<path d="M171.464 112.947C171.242 113.169 170.985 113.276 170.664 113.276C170.342 113.276 170.085 113.169 169.863 112.947C169.641 112.725 169.534 112.468 169.534 112.147C169.534 111.825 169.641 111.568 169.863 111.346C170.085 111.124 170.342 111.017 170.664 111.017C170.985 111.017 171.242 111.124 171.464 111.346C171.686 111.568 171.793 111.825 171.793 112.147C171.793 112.468 171.686 112.725 171.464 112.947ZM163.861 112.947C163.639 113.169 163.382 113.276 163.06 113.276C162.739 113.276 162.482 113.169 162.26 112.947C162.038 112.725 161.931 112.468 161.931 112.147C161.931 111.825 162.038 111.568 162.26 111.346C162.482 111.124 162.739 111.017 163.06 111.017C163.382 111.017 163.639 111.124 163.861 111.346C164.083 111.568 164.19 111.825 164.19 112.147C164.19 112.468 164.083 112.725 163.861 112.947ZM166.862 125.224C165.425 125.224 164.08 124.952 162.824 124.41C161.558 123.863 160.462 123.125 159.531 122.193C158.6 121.262 157.861 120.166 157.314 118.9C156.772 117.644 156.5 116.3 156.5 114.862C156.5 113.425 156.772 112.08 157.314 110.824C157.861 109.558 158.6 108.462 159.531 107.531C160.462 106.6 161.558 105.861 162.824 105.314C164.08 104.772 165.425 104.5 166.862 104.5C168.3 104.5 169.644 104.772 170.9 105.314C172.166 105.861 173.262 106.6 174.193 107.531C175.125 108.462 175.863 109.558 176.41 110.824C176.952 112.08 177.224 113.425 177.224 114.862C177.224 116.3 176.952 117.644 176.41 118.9C175.863 120.166 175.125 121.262 174.193 122.193C173.262 123.125 172.166 123.863 170.9 124.41C169.644 124.952 168.3 125.224 166.862 125.224ZM166.862 124.052C169.418 124.052 171.601 123.159 173.38 121.38C175.159 119.6 176.052 117.418 176.052 114.862C176.052 112.306 175.159 110.124 173.38 108.344C171.601 106.565 169.418 105.672 166.862 105.672C164.306 105.672 162.124 106.565 160.344 108.344C158.565 110.124 157.672 112.306 157.672 114.862C157.672 117.418 158.565 119.6 160.344 121.38C162.124 123.159 164.306 124.052 166.862 124.052Z" fill="#292929" stroke="black"/>
<path d="M169.19 118.159C168.437 118.521 167.591 118.707 166.645 118.707C165.698 118.707 164.853 118.521 164.1 118.159C163.718 117.975 163.398 117.766 163.134 117.534H170.155C169.892 117.766 169.572 117.975 169.19 118.159Z" fill="#292929" stroke="black"/>
<mask id="path-10-inside-1_2270_336" fill="white">
<path fill-rule="evenodd" clip-rule="evenodd" d="M99.0114 122.501L125.702 81.2817L104.49 125.612C106.542 127.818 107.634 130.886 107.219 134.107C106.479 139.858 101.217 143.921 95.4655 143.181C89.7139 142.442 85.6511 137.179 86.3909 131.428C87.1308 125.676 92.3931 121.613 98.1447 122.353C98.4381 122.391 98.7272 122.44 99.0114 122.501Z"/>
</mask>
<path d="M125.702 81.2817L121.505 78.564L130.212 83.4398L125.702 81.2817ZM99.0114 122.501L103.208 125.219L101.336 128.111L97.9663 127.391L99.0114 122.501ZM104.49 125.612L100.829 129.017L98.5103 126.524L99.9797 123.454L104.49 125.612ZM129.899 83.9993L103.208 125.219L94.8144 119.783L121.505 78.564L129.899 83.9993ZM99.9797 123.454L121.192 79.1235L130.212 83.4398L109 127.77L99.9797 123.454ZM102.26 133.469C102.477 131.783 101.912 130.182 100.829 129.017L108.151 122.207C111.171 125.454 112.79 129.988 112.178 134.745L102.26 133.469ZM96.1034 138.222C99.1162 138.61 101.873 136.482 102.26 133.469L112.178 134.745C111.086 143.235 103.318 149.233 94.8276 148.141L96.1034 138.222ZM91.3501 132.066C90.9625 135.078 93.0907 137.835 96.1034 138.222L94.8276 148.141C86.3372 147.048 80.3396 139.28 81.4318 130.79L91.3501 132.066ZM97.5068 127.312C94.4941 126.925 91.7376 129.053 91.3501 132.066L81.4318 130.79C82.5239 122.299 90.2922 116.302 98.7826 117.394L97.5068 127.312ZM97.9663 127.391C97.8166 127.359 97.6635 127.332 97.5068 127.312L98.7826 117.394C99.2128 117.449 99.6377 117.522 100.056 117.611L97.9663 127.391Z" fill="black" mask="url(#path-10-inside-1_2270_336)"/>
</svg>
