<svg width="333" height="334" viewBox="0 0 333 334" fill="none" xmlns="http://www.w3.org/2000/svg">
<path d="M166.857 286.57C100.926 286.57 47.2896 232.928 47.2896 166.997C47.2896 101.066 100.926 47.4302 166.857 47.4302C232.788 47.4302 286.424 101.066 286.424 166.997C286.424 232.928 232.788 286.564 166.857 286.564V286.57Z" fill="url(#paint0_linear_3808_195)"/>
<path d="M249.928 250.069C295.807 204.189 295.807 129.805 249.928 83.9256C204.049 38.0465 129.664 38.0465 83.7854 83.9256C37.9062 129.805 37.9062 204.189 83.7854 250.069C129.664 295.948 204.049 295.948 249.928 250.069Z" fill="url(#paint1_linear_3808_195)"/>
<path style="mix-blend-mode:multiply" opacity="0.7" d="M249.928 250.069C295.807 204.189 295.807 129.805 249.928 83.9256C204.049 38.0465 129.664 38.0465 83.7854 83.9256C37.9062 129.805 37.9062 204.189 83.7854 250.069C129.664 295.948 204.049 295.948 249.928 250.069Z" fill="url(#paint2_linear_3808_195)"/>
<path d="M166.753 276.997C108.955 276.997 60.7851 231.768 57.0837 174.032C53.2064 113.506 99.2949 61.1069 159.821 57.2244C162.192 57.0742 164.594 56.9966 166.965 56.9966C224.758 56.9966 272.933 102.226 276.634 159.962C280.512 220.488 234.428 272.892 173.897 276.77C171.526 276.92 169.124 276.997 166.758 276.997H166.753Z" fill="url(#paint3_linear_3808_195)"/>
<path d="M166.857 274.036C225.973 274.036 273.896 226.113 273.896 166.997C273.896 107.881 225.973 59.9578 166.857 59.9578C107.741 59.9578 59.8174 107.881 59.8174 166.997C59.8174 226.113 107.741 274.036 166.857 274.036Z" fill="url(#paint4_linear_3808_195)"/>
<path d="M166.785 243.328C126.68 243.328 93.2542 211.947 90.6865 171.884C89.382 151.539 96.0807 131.904 109.545 116.591C123.01 101.284 141.631 92.131 161.975 90.8265C163.622 90.723 165.288 90.666 166.929 90.666C207.034 90.666 240.46 122.047 243.027 162.11C245.719 204.109 213.738 240.47 171.739 243.162C170.092 243.266 168.426 243.323 166.785 243.323V243.328Z" fill="url(#paint5_linear_3808_195)"/>
<path d="M240.946 162.25C243.57 203.167 212.526 238.462 171.609 241.086C130.692 243.711 95.3967 212.666 92.7721 171.749C90.1475 130.832 121.192 95.5373 162.109 92.9127C203.026 90.2881 238.321 121.333 240.946 162.25Z" fill="url(#paint6_linear_3808_195)"/>
<g filter="url(#filter0_d_3808_195)">
<path d="M197.812 112.587C198.132 111.711 199.37 111.711 199.69 112.587L202.286 119.688C202.43 120.083 202.805 120.345 203.225 120.345H211.351C212.348 120.345 212.731 121.644 211.893 122.185L205.53 126.294C205.138 126.548 204.973 127.039 205.133 127.478L207.61 134.254C207.94 135.155 206.934 135.957 206.128 135.437L199.294 131.023C198.963 130.81 198.539 130.81 198.208 131.023L191.374 135.437C190.568 135.957 189.562 135.155 189.892 134.254L192.369 127.478C192.529 127.039 192.364 126.548 191.972 126.294L185.609 122.185C184.771 121.644 185.154 120.345 186.151 120.345H194.277C194.697 120.345 195.072 120.083 195.216 119.688L197.812 112.587Z" fill="#7A1908"/>
<path d="M199.221 112.758L201.816 119.86C202.033 120.451 202.595 120.845 203.225 120.845H211.351C211.849 120.845 212.041 121.495 211.622 121.765L205.259 125.874C204.67 126.255 204.423 126.991 204.664 127.649L207.141 134.425C207.305 134.876 206.803 135.277 206.4 135.017L199.565 130.603C199.069 130.283 198.433 130.283 197.937 130.603L191.102 135.017C190.699 135.277 190.197 134.876 190.361 134.425L192.838 127.649C193.079 126.991 192.832 126.255 192.243 125.874L185.88 121.765C185.461 121.494 185.653 120.845 186.151 120.845H194.277C194.907 120.845 195.469 120.451 195.686 119.86L198.281 112.758C198.441 112.321 199.061 112.321 199.221 112.758Z" stroke="white"/>
</g>
<g filter="url(#filter1_d_3808_195)">
<path d="M165.117 100.443C165.437 99.5674 166.675 99.5674 166.995 100.443L169.591 107.544C169.735 107.939 170.111 108.201 170.53 108.201H178.656C179.653 108.201 180.036 109.5 179.199 110.041L172.835 114.151C172.443 114.404 172.278 114.895 172.439 115.334L174.915 122.11C175.245 123.011 174.239 123.814 173.434 123.293L166.599 118.879C166.268 118.666 165.844 118.666 165.514 118.879L158.679 123.293C157.873 123.814 156.868 123.011 157.197 122.11L159.674 115.334C159.834 114.895 159.669 114.404 159.277 114.151L152.914 110.041C152.076 109.5 152.459 108.201 153.456 108.201H161.582C162.002 108.201 162.377 107.939 162.521 107.544L165.117 100.443Z" fill="#7A1908"/>
<path d="M166.526 100.615L169.122 107.716C169.338 108.308 169.901 108.701 170.53 108.701H178.656C179.154 108.701 179.346 109.351 178.927 109.621L172.564 113.731C171.975 114.111 171.728 114.848 171.969 115.506L174.446 122.281C174.61 122.732 174.108 123.133 173.705 122.873L166.87 118.459C166.375 118.139 165.738 118.139 165.242 118.459L158.407 122.873C158.005 123.133 157.502 122.732 157.667 122.281L160.143 115.506C160.384 114.848 160.137 114.111 159.548 113.731L153.185 109.621C152.766 109.351 152.958 108.701 153.456 108.701H161.582C162.212 108.701 162.775 108.308 162.991 107.716L165.587 100.615C165.747 100.177 166.366 100.177 166.526 100.615Z" stroke="white"/>
</g>
<g filter="url(#filter2_d_3808_195)">
<path d="M132.422 112.587C132.742 111.711 133.981 111.711 134.301 112.587L136.896 119.688C137.041 120.083 137.416 120.345 137.836 120.345H145.961C146.958 120.345 147.341 121.644 146.504 122.185L140.14 126.294C139.748 126.548 139.583 127.039 139.744 127.478L142.221 134.254C142.55 135.155 141.545 135.957 140.739 135.437L133.904 131.023C133.574 130.81 133.149 130.81 132.819 131.023L125.984 135.437C125.178 135.957 124.173 135.155 124.502 134.254L126.979 127.478C127.139 127.039 126.975 126.548 126.582 126.294L120.219 122.185C119.382 121.644 119.765 120.345 120.762 120.345H128.887C129.307 120.345 129.682 120.083 129.826 119.688L132.422 112.587Z" fill="#7A1908"/>
<path d="M133.831 112.758L136.427 119.86C136.643 120.451 137.206 120.845 137.836 120.845H145.961C146.46 120.845 146.651 121.495 146.232 121.765L139.869 125.874C139.281 126.255 139.034 126.991 139.274 127.649L141.751 134.425C141.916 134.876 141.413 135.277 141.01 135.017L134.175 130.603C133.68 130.283 133.043 130.283 132.548 130.603L125.713 135.017C125.31 135.277 124.807 134.876 124.972 134.425L127.449 127.649C127.689 126.991 127.442 126.255 126.854 125.874L120.49 121.765C120.072 121.494 120.263 120.845 120.762 120.845H128.887C129.517 120.845 130.08 120.451 130.296 119.86L132.892 112.758C133.052 112.321 133.671 112.321 133.831 112.758Z" stroke="white"/>
</g>
<path d="M231.829 116.721L246.102 104.747L241.924 99.7668L227.652 111.741C229.107 113.34 230.499 115.007 231.829 116.721Z" fill="url(#paint7_linear_3808_195)"/>
<path d="M249.012 166.997C249.012 168.084 248.986 169.166 248.944 170.248H267.581V163.751H248.944C248.986 164.828 249.012 165.91 249.012 167.002V166.997Z" fill="url(#paint8_linear_3808_195)"/>
<path d="M243.188 136.568L260.188 129L257.548 123.062L240.537 130.636C241.495 132.572 242.38 134.549 243.188 136.568Z" fill="url(#paint9_linear_3808_195)"/>
<path d="M248.607 158.792L267.052 156.198L266.146 149.764L247.712 152.352C248.095 154.469 248.39 156.618 248.607 158.787V158.792Z" fill="url(#paint10_linear_3808_195)"/>
<path d="M246.677 147.491L264.573 142.361L262.781 136.113L244.891 141.243C245.569 143.293 246.164 145.374 246.677 147.491Z" fill="url(#paint11_linear_3808_195)"/>
<path d="M195.324 89.9102L201.075 72.211L194.894 70.2024L189.143 87.9017C191.239 88.4918 193.299 89.1596 195.324 89.9102Z" fill="url(#paint12_linear_3808_195)"/>
<path d="M184.313 86.7111L187.548 68.3751L181.15 67.2466L177.914 85.5878C180.073 85.8777 182.211 86.2556 184.313 86.7111Z" fill="url(#paint13_linear_3808_195)"/>
<path d="M205.77 94.6314L213.933 77.9002L208.094 75.053L199.936 91.7842C201.923 92.6591 203.875 93.6116 205.775 94.6366L205.77 94.6314Z" fill="url(#paint14_linear_3808_195)"/>
<path d="M224.199 108.174L236.67 94.326L231.84 89.9775L219.375 103.825C221.041 105.213 222.651 106.662 224.199 108.179V108.174Z" fill="url(#paint15_linear_3808_195)"/>
<path d="M215.455 100.761L225.871 85.3135L220.482 81.6794L210.066 97.1216C211.909 98.2657 213.706 99.4771 215.45 100.761H215.455Z" fill="url(#paint16_linear_3808_195)"/>
<path d="M223.65 226.359L237.053 239.301L241.567 234.626L228.165 221.679C226.72 223.294 225.219 224.857 223.656 226.354L223.65 226.359Z" fill="url(#paint17_linear_3808_195)"/>
<path d="M205.092 239.725L214.399 255.851L220.026 252.6L210.714 236.469C208.886 237.623 207.007 238.711 205.086 239.72L205.092 239.725Z" fill="url(#paint18_linear_3808_195)"/>
<path d="M248.178 178.696L266.705 180.617L267.373 174.151L248.84 172.231C248.706 174.41 248.483 176.564 248.178 178.696Z" fill="url(#paint19_linear_3808_195)"/>
<path d="M194.604 244.343L201.577 261.602L207.602 259.169L200.629 241.915C198.662 242.805 196.648 243.613 194.604 244.348V244.343Z" fill="url(#paint20_linear_3808_195)"/>
<path d="M183.567 247.449L188.071 265.51L194.376 263.937L189.872 245.875C187.801 246.476 185.7 247.004 183.567 247.444V247.449Z" fill="url(#paint21_linear_3808_195)"/>
<path d="M172.209 248.976L174.156 267.509L180.616 266.83L178.67 248.308C176.542 248.614 174.384 248.841 172.204 248.981L172.209 248.976Z" fill="url(#paint22_linear_3808_195)"/>
<path d="M214.839 233.689L226.311 248.37L231.431 244.368L219.959 229.687C218.308 231.09 216.599 232.426 214.839 233.694V233.689Z" fill="url(#paint23_linear_3808_195)"/>
<path d="M242.903 198.135L260.395 204.503L262.616 198.394L245.124 192.027C244.461 194.097 243.721 196.137 242.903 198.13V198.135Z" fill="url(#paint24_linear_3808_195)"/>
<path d="M166.856 84.8421C168.911 84.8421 170.951 84.9198 172.97 85.0699L173.622 66.4543L167.125 66.2266L166.473 84.8473C166.603 84.8473 166.727 84.8473 166.856 84.8473V84.8421Z" fill="url(#paint25_linear_3808_195)"/>
<path d="M246.495 187.248L264.702 191.121L266.053 184.764L247.836 180.891C247.468 183.04 247.023 185.162 246.495 187.248Z" fill="url(#paint26_linear_3808_195)"/>
<path d="M237.819 208.411L254.261 217.155L257.31 211.419L240.879 202.68C239.931 204.637 238.912 206.547 237.819 208.416V208.411Z" fill="url(#paint27_linear_3808_195)"/>
<path d="M231.364 217.879L246.433 228.828L250.254 223.568L235.184 212.62C233.978 214.421 232.705 216.176 231.364 217.874V217.879Z" fill="url(#paint28_linear_3808_195)"/>
<path d="M238.207 126.246L253.997 116.379L250.554 110.871L234.76 120.743C235.981 122.529 237.131 124.367 238.207 126.251V126.246Z" fill="url(#paint29_linear_3808_195)"/>
<path d="M101.883 217.273L87.6108 229.247L91.7885 234.227L106.061 222.253C104.606 220.654 103.214 218.987 101.883 217.273Z" fill="url(#paint30_linear_3808_195)"/>
<path d="M95.5107 207.748L79.7217 217.615L83.1642 223.123L98.9584 213.251C97.7367 211.465 96.5875 209.627 95.5055 207.743L95.5107 207.748Z" fill="url(#paint31_linear_3808_195)"/>
<path d="M109.519 225.825L97.0483 239.673L101.878 244.022L114.344 230.174C112.677 228.787 111.067 227.337 109.519 225.82V225.825Z" fill="url(#paint32_linear_3808_195)"/>
<path d="M85.1107 175.208L66.666 177.801L67.5719 184.236L86.0063 181.647C85.6232 179.53 85.3281 177.382 85.1107 175.213V175.208Z" fill="url(#paint33_linear_3808_195)"/>
<path d="M87.0415 186.508L69.1455 191.638L70.9367 197.887L88.8275 192.756C88.1545 190.706 87.554 188.625 87.0415 186.508Z" fill="url(#paint34_linear_3808_195)"/>
<path d="M90.5253 197.426L73.5249 204.994L76.165 210.932L93.1758 203.358C92.2181 201.422 91.3329 199.445 90.5253 197.426Z" fill="url(#paint35_linear_3808_195)"/>
<path d="M167.24 249.146C167.11 249.146 166.986 249.146 166.857 249.146C164.802 249.146 162.762 249.069 160.743 248.919L160.091 267.534L166.588 267.762L167.24 249.141V249.146Z" fill="url(#paint36_linear_3808_195)"/>
<path d="M149.4 247.288L146.165 265.624L152.563 266.753L155.799 248.411C153.64 248.122 151.502 247.744 149.4 247.288Z" fill="url(#paint37_linear_3808_195)"/>
<path d="M138.395 244.084L132.644 261.783L138.825 263.792L144.576 246.093C142.479 245.502 140.419 244.835 138.395 244.084Z" fill="url(#paint38_linear_3808_195)"/>
<path d="M161.509 85.0234L159.563 66.4907L153.102 67.1689L155.049 85.6912C157.176 85.3858 159.335 85.158 161.514 85.0183L161.509 85.0234Z" fill="url(#paint39_linear_3808_195)"/>
<path d="M127.948 239.368L119.785 256.099L125.624 258.946L133.783 242.215C131.795 241.34 129.843 240.388 127.943 239.363L127.948 239.368Z" fill="url(#paint40_linear_3808_195)"/>
<path d="M118.262 233.239L107.847 248.686L113.236 252.32L123.651 236.878C121.808 235.734 120.012 234.523 118.267 233.239H118.262Z" fill="url(#paint41_linear_3808_195)"/>
<path d="M128.621 94.2742L119.313 78.1487L113.686 81.3997L122.999 97.5304C124.826 96.376 126.706 95.2889 128.626 94.2794L128.621 94.2742Z" fill="url(#paint42_linear_3808_195)"/>
<path d="M118.879 100.31L107.407 85.6292L102.287 89.6308L113.759 104.312C115.41 102.909 117.118 101.573 118.879 100.305V100.31Z" fill="url(#paint43_linear_3808_195)"/>
<path d="M84.7018 166.997C84.7018 165.91 84.7276 164.828 84.7691 163.746H66.1328V170.243H84.7691C84.7276 169.166 84.7018 168.084 84.7018 166.992V166.997Z" fill="url(#paint44_linear_3808_195)"/>
<path d="M139.115 89.6516L132.141 72.3923L126.116 74.8254L133.089 92.0795C135.056 91.1891 137.07 90.3815 139.115 89.6464V89.6516Z" fill="url(#paint45_linear_3808_195)"/>
<path d="M150.146 86.5453L145.642 68.4836L139.337 70.0574L143.841 88.119C145.911 87.5185 148.013 86.9905 150.146 86.5505V86.5453Z" fill="url(#paint46_linear_3808_195)"/>
<path d="M110.068 107.641L96.665 94.6987L92.1509 99.3733L105.553 112.32C106.998 110.705 108.499 109.142 110.062 107.646L110.068 107.641Z" fill="url(#paint47_linear_3808_195)"/>
<path d="M85.5352 155.298L67.0076 153.377L66.3398 159.843L84.8726 161.763C85.0072 159.584 85.2298 157.43 85.5352 155.298Z" fill="url(#paint48_linear_3808_195)"/>
<path d="M87.2227 146.751L69.0162 142.879L67.665 149.236L85.882 153.108C86.2495 150.96 86.6947 148.837 87.2227 146.751Z" fill="url(#paint49_linear_3808_195)"/>
<path d="M95.8937 125.588L79.4524 116.845L76.4033 122.581L92.8343 131.319C93.7816 129.362 94.8014 127.452 95.8937 125.583V125.588Z" fill="url(#paint50_linear_3808_195)"/>
<path d="M90.8151 135.864L73.3229 129.497L71.1021 135.605L88.5942 141.973C89.2569 139.902 89.9971 137.862 90.8202 135.869L90.8151 135.864Z" fill="url(#paint51_linear_3808_195)"/>
<path d="M102.354 116.12L87.2848 105.171L83.4644 110.431L98.5338 121.38C99.74 119.578 101.013 117.823 102.354 116.125V116.12Z" fill="url(#paint52_linear_3808_195)"/>
<path d="M163.347 173.539L152.698 162.889L155.361 160.227L163.347 168.214L180.489 151.073L183.151 153.735L163.347 173.539Z" fill="#7A1908" stroke="#7A1908" stroke-width="3"/>
<mask id="path-61-outside-1_3808_195" maskUnits="userSpaceOnUse" x="127.259" y="195.221" width="81" height="25" fill="black">
<rect fill="white" x="127.259" y="195.221" width="81" height="25"/>
<path d="M145.923 207.191V215.497C145.61 215.897 145.117 216.332 144.443 216.801C143.779 217.269 142.91 217.675 141.836 218.016C140.761 218.348 139.443 218.514 137.881 218.514C136.523 218.514 135.283 218.29 134.16 217.841C133.037 217.382 132.07 216.713 131.259 215.834C130.449 214.955 129.824 213.881 129.384 212.611C128.945 211.342 128.725 209.891 128.725 208.26V206.854C128.725 205.223 128.93 203.773 129.34 202.504C129.76 201.234 130.356 200.16 131.128 199.281C131.909 198.402 132.841 197.733 133.925 197.274C135.019 196.815 136.24 196.586 137.588 196.586C139.394 196.586 140.879 196.884 142.041 197.479C143.213 198.075 144.111 198.895 144.736 199.94C145.361 200.975 145.752 202.167 145.908 203.514H141.982C141.875 202.772 141.66 202.123 141.338 201.566C141.015 201 140.556 200.56 139.961 200.248C139.375 199.926 138.613 199.764 137.675 199.764C136.884 199.764 136.186 199.921 135.581 200.233C134.975 200.546 134.467 201 134.057 201.595C133.647 202.191 133.335 202.928 133.12 203.807C132.915 204.686 132.812 205.692 132.812 206.825V208.26C132.812 209.403 132.929 210.419 133.164 211.307C133.398 212.186 133.735 212.928 134.174 213.534C134.624 214.13 135.175 214.584 135.83 214.896C136.494 215.199 137.246 215.35 138.086 215.35C138.847 215.35 139.477 215.287 139.975 215.16C140.483 215.023 140.888 214.862 141.191 214.677C141.494 214.491 141.728 214.31 141.894 214.135V210.135H137.661V207.191H145.923ZM167.002 207.015V208.114C167.002 209.725 166.787 211.176 166.357 212.465C165.927 213.744 165.317 214.833 164.526 215.731C163.735 216.63 162.793 217.318 161.699 217.797C160.605 218.275 159.389 218.514 158.051 218.514C156.733 218.514 155.522 218.275 154.419 217.797C153.325 217.318 152.378 216.63 151.577 215.731C150.776 214.833 150.156 213.744 149.716 212.465C149.277 211.176 149.057 209.725 149.057 208.114V207.015C149.057 205.394 149.277 203.944 149.716 202.665C150.156 201.385 150.771 200.297 151.562 199.398C152.353 198.49 153.296 197.797 154.389 197.318C155.493 196.84 156.704 196.6 158.022 196.6C159.36 196.6 160.576 196.84 161.67 197.318C162.763 197.797 163.706 198.49 164.497 199.398C165.298 200.297 165.913 201.385 166.342 202.665C166.782 203.944 167.002 205.394 167.002 207.015ZM162.929 208.114V206.986C162.929 205.824 162.822 204.803 162.607 203.925C162.392 203.036 162.075 202.289 161.655 201.683C161.235 201.078 160.717 200.624 160.102 200.321C159.487 200.009 158.794 199.852 158.022 199.852C157.241 199.852 156.548 200.009 155.942 200.321C155.346 200.624 154.839 201.078 154.419 201.683C153.999 202.289 153.676 203.036 153.452 203.925C153.237 204.803 153.13 205.824 153.13 206.986V208.114C153.13 209.266 153.237 210.287 153.452 211.176C153.676 212.064 153.999 212.816 154.419 213.431C154.848 214.037 155.366 214.496 155.971 214.808C156.577 215.121 157.27 215.277 158.051 215.277C158.833 215.277 159.526 215.121 160.131 214.808C160.737 214.496 161.245 214.037 161.655 213.431C162.075 212.816 162.392 212.064 162.607 211.176C162.822 210.287 162.929 209.266 162.929 208.114ZM187.685 207.015V208.114C187.685 209.725 187.47 211.176 187.041 212.465C186.611 213.744 186.001 214.833 185.21 215.731C184.419 216.63 183.476 217.318 182.382 217.797C181.289 218.275 180.073 218.514 178.735 218.514C177.417 218.514 176.206 218.275 175.102 217.797C174.008 217.318 173.061 216.63 172.26 215.731C171.46 214.833 170.839 213.744 170.4 212.465C169.961 211.176 169.741 209.725 169.741 208.114V207.015C169.741 205.394 169.961 203.944 170.4 202.665C170.839 201.385 171.455 200.297 172.246 199.398C173.037 198.49 173.979 197.797 175.073 197.318C176.176 196.84 177.387 196.6 178.706 196.6C180.044 196.6 181.259 196.84 182.353 197.318C183.447 197.797 184.389 198.49 185.18 199.398C185.981 200.297 186.596 201.385 187.026 202.665C187.465 203.944 187.685 205.394 187.685 207.015ZM183.613 208.114V206.986C183.613 205.824 183.506 204.803 183.291 203.925C183.076 203.036 182.758 202.289 182.339 201.683C181.919 201.078 181.401 200.624 180.786 200.321C180.171 200.009 179.477 199.852 178.706 199.852C177.924 199.852 177.231 200.009 176.626 200.321C176.03 200.624 175.522 201.078 175.102 201.683C174.682 202.289 174.36 203.036 174.135 203.925C173.921 204.803 173.813 205.824 173.813 206.986V208.114C173.813 209.266 173.921 210.287 174.135 211.176C174.36 212.064 174.682 212.816 175.102 213.431C175.532 214.037 176.049 214.496 176.655 214.808C177.26 215.121 177.954 215.277 178.735 215.277C179.516 215.277 180.21 215.121 180.815 214.808C181.421 214.496 181.928 214.037 182.339 213.431C182.758 212.816 183.076 212.064 183.291 211.176C183.506 210.287 183.613 209.266 183.613 208.114ZM197.47 218.221H192.871L192.9 215.057H197.47C198.711 215.057 199.751 214.784 200.59 214.237C201.43 213.68 202.065 212.885 202.495 211.849C202.924 210.804 203.139 209.554 203.139 208.099V207.001C203.139 205.878 203.017 204.886 202.773 204.027C202.529 203.168 202.168 202.445 201.689 201.859C201.22 201.273 200.639 200.829 199.946 200.526C199.253 200.223 198.457 200.072 197.558 200.072H192.783V196.893H197.558C198.984 196.893 200.283 197.133 201.455 197.611C202.636 198.09 203.657 198.778 204.516 199.677C205.385 200.565 206.049 201.63 206.508 202.87C206.977 204.11 207.212 205.497 207.212 207.03V208.099C207.212 209.623 206.977 211.01 206.508 212.26C206.049 213.5 205.385 214.564 204.516 215.453C203.657 216.342 202.631 217.025 201.44 217.504C200.249 217.982 198.925 218.221 197.47 218.221ZM195.127 196.893V218.221H191.098V196.893H195.127Z"/>
</mask>
<path d="M145.923 207.191V215.497C145.61 215.897 145.117 216.332 144.443 216.801C143.779 217.269 142.91 217.675 141.836 218.016C140.761 218.348 139.443 218.514 137.881 218.514C136.523 218.514 135.283 218.29 134.16 217.841C133.037 217.382 132.07 216.713 131.259 215.834C130.449 214.955 129.824 213.881 129.384 212.611C128.945 211.342 128.725 209.891 128.725 208.26V206.854C128.725 205.223 128.93 203.773 129.34 202.504C129.76 201.234 130.356 200.16 131.128 199.281C131.909 198.402 132.841 197.733 133.925 197.274C135.019 196.815 136.24 196.586 137.588 196.586C139.394 196.586 140.879 196.884 142.041 197.479C143.213 198.075 144.111 198.895 144.736 199.94C145.361 200.975 145.752 202.167 145.908 203.514H141.982C141.875 202.772 141.66 202.123 141.338 201.566C141.015 201 140.556 200.56 139.961 200.248C139.375 199.926 138.613 199.764 137.675 199.764C136.884 199.764 136.186 199.921 135.581 200.233C134.975 200.546 134.467 201 134.057 201.595C133.647 202.191 133.335 202.928 133.12 203.807C132.915 204.686 132.812 205.692 132.812 206.825V208.26C132.812 209.403 132.929 210.419 133.164 211.307C133.398 212.186 133.735 212.928 134.174 213.534C134.624 214.13 135.175 214.584 135.83 214.896C136.494 215.199 137.246 215.35 138.086 215.35C138.847 215.35 139.477 215.287 139.975 215.16C140.483 215.023 140.888 214.862 141.191 214.677C141.494 214.491 141.728 214.31 141.894 214.135V210.135H137.661V207.191H145.923ZM167.002 207.015V208.114C167.002 209.725 166.787 211.176 166.357 212.465C165.927 213.744 165.317 214.833 164.526 215.731C163.735 216.63 162.793 217.318 161.699 217.797C160.605 218.275 159.389 218.514 158.051 218.514C156.733 218.514 155.522 218.275 154.419 217.797C153.325 217.318 152.378 216.63 151.577 215.731C150.776 214.833 150.156 213.744 149.716 212.465C149.277 211.176 149.057 209.725 149.057 208.114V207.015C149.057 205.394 149.277 203.944 149.716 202.665C150.156 201.385 150.771 200.297 151.562 199.398C152.353 198.49 153.296 197.797 154.389 197.318C155.493 196.84 156.704 196.6 158.022 196.6C159.36 196.6 160.576 196.84 161.67 197.318C162.763 197.797 163.706 198.49 164.497 199.398C165.298 200.297 165.913 201.385 166.342 202.665C166.782 203.944 167.002 205.394 167.002 207.015ZM162.929 208.114V206.986C162.929 205.824 162.822 204.803 162.607 203.925C162.392 203.036 162.075 202.289 161.655 201.683C161.235 201.078 160.717 200.624 160.102 200.321C159.487 200.009 158.794 199.852 158.022 199.852C157.241 199.852 156.548 200.009 155.942 200.321C155.346 200.624 154.839 201.078 154.419 201.683C153.999 202.289 153.676 203.036 153.452 203.925C153.237 204.803 153.13 205.824 153.13 206.986V208.114C153.13 209.266 153.237 210.287 153.452 211.176C153.676 212.064 153.999 212.816 154.419 213.431C154.848 214.037 155.366 214.496 155.971 214.808C156.577 215.121 157.27 215.277 158.051 215.277C158.833 215.277 159.526 215.121 160.131 214.808C160.737 214.496 161.245 214.037 161.655 213.431C162.075 212.816 162.392 212.064 162.607 211.176C162.822 210.287 162.929 209.266 162.929 208.114ZM187.685 207.015V208.114C187.685 209.725 187.47 211.176 187.041 212.465C186.611 213.744 186.001 214.833 185.21 215.731C184.419 216.63 183.476 217.318 182.382 217.797C181.289 218.275 180.073 218.514 178.735 218.514C177.417 218.514 176.206 218.275 175.102 217.797C174.008 217.318 173.061 216.63 172.26 215.731C171.46 214.833 170.839 213.744 170.4 212.465C169.961 211.176 169.741 209.725 169.741 208.114V207.015C169.741 205.394 169.961 203.944 170.4 202.665C170.839 201.385 171.455 200.297 172.246 199.398C173.037 198.49 173.979 197.797 175.073 197.318C176.176 196.84 177.387 196.6 178.706 196.6C180.044 196.6 181.259 196.84 182.353 197.318C183.447 197.797 184.389 198.49 185.18 199.398C185.981 200.297 186.596 201.385 187.026 202.665C187.465 203.944 187.685 205.394 187.685 207.015ZM183.613 208.114V206.986C183.613 205.824 183.506 204.803 183.291 203.925C183.076 203.036 182.758 202.289 182.339 201.683C181.919 201.078 181.401 200.624 180.786 200.321C180.171 200.009 179.477 199.852 178.706 199.852C177.924 199.852 177.231 200.009 176.626 200.321C176.03 200.624 175.522 201.078 175.102 201.683C174.682 202.289 174.36 203.036 174.135 203.925C173.921 204.803 173.813 205.824 173.813 206.986V208.114C173.813 209.266 173.921 210.287 174.135 211.176C174.36 212.064 174.682 212.816 175.102 213.431C175.532 214.037 176.049 214.496 176.655 214.808C177.26 215.121 177.954 215.277 178.735 215.277C179.516 215.277 180.21 215.121 180.815 214.808C181.421 214.496 181.928 214.037 182.339 213.431C182.758 212.816 183.076 212.064 183.291 211.176C183.506 210.287 183.613 209.266 183.613 208.114ZM197.47 218.221H192.871L192.9 215.057H197.47C198.711 215.057 199.751 214.784 200.59 214.237C201.43 213.68 202.065 212.885 202.495 211.849C202.924 210.804 203.139 209.554 203.139 208.099V207.001C203.139 205.878 203.017 204.886 202.773 204.027C202.529 203.168 202.168 202.445 201.689 201.859C201.22 201.273 200.639 200.829 199.946 200.526C199.253 200.223 198.457 200.072 197.558 200.072H192.783V196.893H197.558C198.984 196.893 200.283 197.133 201.455 197.611C202.636 198.09 203.657 198.778 204.516 199.677C205.385 200.565 206.049 201.63 206.508 202.87C206.977 204.11 207.212 205.497 207.212 207.03V208.099C207.212 209.623 206.977 211.01 206.508 212.26C206.049 213.5 205.385 214.564 204.516 215.453C203.657 216.342 202.631 217.025 201.44 217.504C200.249 217.982 198.925 218.221 197.47 218.221ZM195.127 196.893V218.221H191.098V196.893H195.127Z" fill="#7A1908"/>
<path d="M145.923 207.191H146.923V206.191H145.923V207.191ZM145.923 215.497L146.711 216.112L146.923 215.841V215.497H145.923ZM144.443 216.801L143.872 215.98L143.866 215.984L144.443 216.801ZM141.836 218.016L142.131 218.972L142.139 218.969L141.836 218.016ZM134.16 217.841L133.781 218.766L133.788 218.769L134.16 217.841ZM129.34 202.504L128.391 202.19L128.389 202.196L129.34 202.504ZM131.128 199.281L130.38 198.617L130.376 198.621L131.128 199.281ZM133.925 197.274L133.538 196.352L133.536 196.353L133.925 197.274ZM142.041 197.479L141.584 198.369L141.588 198.371L142.041 197.479ZM144.736 199.94L143.878 200.454L143.88 200.457L144.736 199.94ZM145.908 203.514V204.514H147.03L146.901 203.399L145.908 203.514ZM141.982 203.514L140.992 203.658L141.116 204.514H141.982V203.514ZM141.338 201.566L140.468 202.061L140.472 202.067L141.338 201.566ZM139.961 200.248L139.479 201.124L139.487 201.129L139.496 201.133L139.961 200.248ZM133.12 203.807L132.148 203.57L132.146 203.58L133.12 203.807ZM133.164 211.307L132.197 211.562L132.197 211.565L133.164 211.307ZM134.174 213.534L133.365 214.121L133.371 214.129L133.376 214.136L134.174 213.534ZM135.83 214.896L135.399 215.799L135.407 215.802L135.415 215.806L135.83 214.896ZM139.975 215.16L140.222 216.129L140.235 216.126L139.975 215.16ZM141.894 214.135L142.621 214.821L142.894 214.532V214.135H141.894ZM141.894 210.135H142.894V209.135H141.894V210.135ZM137.661 210.135H136.661V211.135H137.661V210.135ZM137.661 207.191V206.191H136.661V207.191H137.661ZM144.923 207.191V215.497H146.923V207.191H144.923ZM145.134 214.882C144.909 215.17 144.508 215.538 143.872 215.98L145.014 217.621C145.726 217.126 146.311 216.625 146.711 216.112L145.134 214.882ZM143.866 215.984C143.311 216.375 142.544 216.742 141.532 217.063L142.139 218.969C143.276 218.608 144.247 218.163 145.02 217.618L143.866 215.984ZM141.54 217.061C140.591 217.354 139.379 217.514 137.881 217.514V219.514C139.507 219.514 140.932 219.342 142.131 218.972L141.54 217.061ZM137.881 217.514C136.635 217.514 135.523 217.309 134.531 216.912L133.788 218.769C135.043 219.271 136.411 219.514 137.881 219.514V217.514ZM134.538 216.915C133.549 216.511 132.704 215.925 131.995 215.156L130.524 216.512C131.436 217.5 132.525 218.253 133.781 218.766L134.538 216.915ZM131.995 215.156C131.288 214.39 130.729 213.439 130.329 212.284L128.439 212.938C128.918 214.322 129.609 215.52 130.524 216.512L131.995 215.156ZM130.329 212.284C129.933 211.139 129.725 209.803 129.725 208.26H127.725C127.725 209.98 127.957 211.544 128.439 212.938L130.329 212.284ZM129.725 208.26V206.854H127.725V208.26H129.725ZM129.725 206.854C129.725 205.305 129.92 203.962 130.292 202.811L128.389 202.196C127.94 203.584 127.725 205.141 127.725 206.854H129.725ZM130.29 202.818C130.674 201.657 131.208 200.705 131.879 199.941L130.376 198.621C129.504 199.614 128.847 200.811 128.391 202.19L130.29 202.818ZM131.875 199.945C132.557 199.178 133.368 198.596 134.315 198.195L133.536 196.353C132.315 196.87 131.26 197.627 130.38 198.617L131.875 199.945ZM134.312 198.196C135.268 197.795 136.355 197.586 137.588 197.586V195.586C136.125 195.586 134.77 195.835 133.538 196.352L134.312 198.196ZM137.588 197.586C139.293 197.586 140.607 197.868 141.584 198.369L142.497 196.589C141.15 195.899 139.495 195.586 137.588 195.586V197.586ZM141.588 198.371C142.605 198.888 143.357 199.583 143.878 200.454L145.594 199.427C144.865 198.207 143.82 197.262 142.494 196.588L141.588 198.371ZM143.88 200.457C144.422 201.356 144.773 202.407 144.915 203.63L146.901 203.399C146.73 201.927 146.3 200.595 145.592 199.423L143.88 200.457ZM145.908 202.514H141.982V204.514H145.908V202.514ZM142.972 203.371C142.849 202.523 142.599 201.749 142.203 201.065L140.472 202.067C140.721 202.497 140.9 203.021 140.992 203.658L142.972 203.371ZM142.207 201.072C141.787 200.333 141.185 199.761 140.425 199.362L139.496 201.133C139.928 201.36 140.244 201.666 140.468 202.061L142.207 201.072ZM140.443 199.372C139.661 198.942 138.717 198.764 137.675 198.764V200.764C138.508 200.764 139.088 200.909 139.479 201.124L140.443 199.372ZM137.675 198.764C136.751 198.764 135.891 198.948 135.122 199.345L136.039 201.122C136.482 200.893 137.018 200.764 137.675 200.764V198.764ZM135.122 199.345C134.361 199.737 133.731 200.306 133.234 201.028L134.881 202.163C135.204 201.694 135.589 201.354 136.039 201.122L135.122 199.345ZM133.234 201.028C132.74 201.746 132.385 202.602 132.148 203.57L134.091 204.045C134.284 203.255 134.554 202.637 134.881 202.163L133.234 201.028ZM132.146 203.58C131.92 204.55 131.812 205.634 131.812 206.825H133.812C133.812 205.75 133.91 204.823 134.094 204.035L132.146 203.58ZM131.812 206.825V208.26H133.812V206.825H131.812ZM131.812 208.26C131.812 209.469 131.936 210.573 132.197 211.562L134.131 211.052C133.923 210.264 133.812 209.337 133.812 208.26H131.812ZM132.197 211.565C132.457 212.538 132.84 213.398 133.365 214.121L134.984 212.947C134.63 212.459 134.339 211.835 134.13 211.05L132.197 211.565ZM133.376 214.136C133.919 214.856 134.595 215.415 135.399 215.799L136.261 213.994C135.755 213.753 135.328 213.403 134.973 212.932L133.376 214.136ZM135.415 215.806C136.227 216.177 137.124 216.35 138.086 216.35V214.35C137.367 214.35 136.76 214.221 136.245 213.986L135.415 215.806ZM138.086 216.35C138.895 216.35 139.615 216.284 140.222 216.129L139.728 214.191C139.34 214.29 138.8 214.35 138.086 214.35V216.35ZM140.235 216.126C140.796 215.975 141.3 215.783 141.714 215.529L140.668 213.824C140.476 213.942 140.171 214.072 139.715 214.194L140.235 216.126ZM141.714 215.529C142.06 215.317 142.374 215.083 142.621 214.821L141.167 213.448C141.083 213.537 140.928 213.665 140.668 213.824L141.714 215.529ZM142.894 214.135V210.135H140.894V214.135H142.894ZM141.894 209.135H137.661V211.135H141.894V209.135ZM138.661 210.135V207.191H136.661V210.135H138.661ZM137.661 208.191H145.923V206.191H137.661V208.191ZM166.357 212.465L167.305 212.783L167.306 212.781L166.357 212.465ZM161.699 217.797L161.298 216.88L161.699 217.797ZM154.419 217.797L154.018 218.713L154.021 218.714L154.419 217.797ZM149.716 212.465L148.77 212.787L148.771 212.789L149.716 212.465ZM151.562 199.398L152.313 200.059L152.316 200.055L151.562 199.398ZM154.389 197.318L153.991 196.401L153.988 196.402L154.389 197.318ZM161.67 197.318L161.269 198.234L161.67 197.318ZM164.497 199.398L163.743 200.055L163.75 200.064L164.497 199.398ZM166.342 202.665L165.394 202.983L165.397 202.99L166.342 202.665ZM162.607 203.925L161.635 204.16L161.636 204.162L162.607 203.925ZM161.655 201.683L160.833 202.253L161.655 201.683ZM160.102 200.321L159.649 201.213L159.661 201.218L160.102 200.321ZM155.942 200.321L156.395 201.213L156.401 201.21L155.942 200.321ZM154.419 201.683L155.24 202.253L154.419 201.683ZM153.452 203.925L152.482 203.68L152.48 203.687L153.452 203.925ZM153.452 211.176L152.48 211.411L152.482 211.421L153.452 211.176ZM154.419 213.431L153.593 213.995L153.598 214.003L153.603 214.01L154.419 213.431ZM161.655 213.431L160.829 212.868L160.827 212.871L161.655 213.431ZM162.607 211.176L161.635 210.941L162.607 211.176ZM166.002 207.015V208.114H168.002V207.015H166.002ZM166.002 208.114C166.002 209.637 165.798 210.978 165.408 212.148L167.306 212.781C167.775 211.373 168.002 209.813 168.002 208.114H166.002ZM165.409 212.146C165.016 213.315 164.468 214.284 163.775 215.07L165.277 216.392C166.166 215.382 166.838 214.172 167.305 212.783L165.409 212.146ZM163.775 215.07C163.081 215.859 162.258 216.461 161.298 216.88L162.1 218.713C163.328 218.176 164.389 217.4 165.277 216.392L163.775 215.07ZM161.298 216.88C160.345 217.297 159.268 217.514 158.051 217.514V219.514C159.511 219.514 160.865 219.253 162.1 218.713L161.298 216.88ZM158.051 217.514C156.857 217.514 155.783 217.298 154.816 216.879L154.021 218.714C155.261 219.252 156.609 219.514 158.051 219.514V217.514ZM154.819 216.88C153.859 216.46 153.029 215.858 152.323 215.066L150.83 216.397C151.726 217.402 152.791 218.176 154.018 218.713L154.819 216.88ZM152.323 215.066C151.621 214.278 151.064 213.309 150.662 212.14L148.771 212.789C149.248 214.179 149.931 215.387 150.83 216.397L152.323 215.066ZM150.663 212.142C150.265 210.974 150.057 209.635 150.057 208.114H148.057C148.057 209.816 148.289 211.377 148.77 212.787L150.663 212.142ZM150.057 208.114V207.015H148.057V208.114H150.057ZM150.057 207.015C150.057 205.484 150.265 204.146 150.662 202.99L148.771 202.34C148.289 203.742 148.057 205.305 148.057 207.015H150.057ZM150.662 202.99C151.065 201.818 151.619 200.847 152.313 200.059L150.812 198.737C149.924 199.746 149.247 200.953 148.771 202.34L150.662 202.99ZM152.316 200.055C153.011 199.257 153.833 198.653 154.79 198.234L153.988 196.402C152.758 196.94 151.695 197.723 150.808 198.741L152.316 200.055ZM154.787 198.236C155.753 197.817 156.827 197.6 158.022 197.6V195.6C156.58 195.6 155.232 195.863 153.991 196.401L154.787 198.236ZM158.022 197.6C159.239 197.6 160.316 197.817 161.269 198.234L162.07 196.402C160.836 195.862 159.481 195.6 158.022 195.6V197.6ZM161.269 198.234C162.226 198.653 163.048 199.257 163.743 200.055L165.251 198.741C164.364 197.723 163.301 196.94 162.07 196.402L161.269 198.234ZM163.75 200.064C164.451 200.85 165.003 201.816 165.394 202.983L167.29 202.346C166.823 200.955 166.144 199.744 165.243 198.733L163.75 200.064ZM165.397 202.99C165.794 204.146 166.002 205.484 166.002 207.015H168.002C168.002 205.305 167.77 203.742 167.288 202.34L165.397 202.99ZM163.929 208.114V206.986H161.929V208.114H163.929ZM163.929 206.986C163.929 205.765 163.817 204.662 163.578 203.687L161.636 204.162C161.827 204.945 161.929 205.883 161.929 206.986H163.929ZM163.579 203.69C163.342 202.709 162.982 201.841 162.477 201.113L160.833 202.253C161.168 202.736 161.442 203.363 161.635 204.16L163.579 203.69ZM162.477 201.113C161.967 200.379 161.323 199.807 160.544 199.424L159.661 201.218C160.112 201.44 160.503 201.777 160.833 202.253L162.477 201.113ZM160.555 199.429C159.784 199.038 158.932 198.852 158.022 198.852V200.852C158.655 200.852 159.19 200.979 159.649 201.213L160.555 199.429ZM158.022 198.852C157.105 198.852 156.25 199.037 155.483 199.432L156.401 201.21C156.845 200.98 157.377 200.852 158.022 200.852V198.852ZM155.489 199.43C154.731 199.815 154.101 200.386 153.597 201.113L155.24 202.253C155.576 201.77 155.962 201.433 156.395 201.213L155.489 199.43ZM153.597 201.113C153.094 201.838 152.729 202.702 152.482 203.68L154.421 204.17C154.623 203.37 154.903 202.739 155.24 202.253L153.597 201.113ZM152.48 203.687C152.242 204.662 152.13 205.765 152.13 206.986H154.13C154.13 205.883 154.232 204.945 154.423 204.162L152.48 203.687ZM152.13 206.986V208.114H154.13V206.986H152.13ZM152.13 208.114C152.13 209.326 152.242 210.428 152.48 211.411L154.424 210.941C154.232 210.146 154.13 209.207 154.13 208.114H152.13ZM152.482 211.421C152.729 212.398 153.093 213.263 153.593 213.995L155.245 212.868C154.904 212.369 154.624 211.731 154.421 210.93L152.482 211.421ZM153.603 214.01C154.117 214.734 154.753 215.305 155.513 215.697L156.43 213.92C155.979 213.687 155.58 213.34 155.234 212.853L153.603 214.01ZM155.513 215.697C156.279 216.093 157.134 216.277 158.051 216.277V214.277C157.406 214.277 156.874 214.149 156.43 213.92L155.513 215.697ZM158.051 216.277C158.969 216.277 159.823 216.093 160.59 215.697L159.673 213.92C159.229 214.149 158.697 214.277 158.051 214.277V216.277ZM160.59 215.697C161.355 215.302 161.986 214.726 162.483 213.992L160.827 212.871C160.504 213.348 160.119 213.689 159.673 213.92L160.59 215.697ZM162.481 213.995C162.982 213.26 163.342 212.391 163.579 211.411L161.635 210.941C161.442 211.738 161.167 212.372 160.829 212.868L162.481 213.995ZM163.579 211.411C163.817 210.428 163.929 209.326 163.929 208.114H161.929C161.929 209.207 161.827 210.146 161.635 210.941L163.579 211.411ZM187.041 212.465L187.989 212.783L187.989 212.781L187.041 212.465ZM182.382 217.797L181.982 216.88L182.382 217.797ZM175.102 217.797L174.701 218.713L174.704 218.714L175.102 217.797ZM170.4 212.465L169.454 212.787L169.454 212.789L170.4 212.465ZM172.246 199.398L172.996 200.059L173 200.055L172.246 199.398ZM175.073 197.318L174.675 196.401L174.672 196.402L175.073 197.318ZM182.353 197.318L181.952 198.234L182.353 197.318ZM185.18 199.398L184.426 200.055L184.434 200.064L185.18 199.398ZM187.026 202.665L186.078 202.983L186.08 202.99L187.026 202.665ZM183.291 203.925L182.319 204.16L182.319 204.162L183.291 203.925ZM182.339 201.683L181.517 202.253L182.339 201.683ZM180.786 200.321L180.333 201.213L180.344 201.218L180.786 200.321ZM176.626 200.321L177.079 201.213L177.084 201.21L176.626 200.321ZM175.102 201.683L175.924 202.253L175.102 201.683ZM174.135 203.925L173.166 203.68L173.164 203.687L174.135 203.925ZM174.135 211.176L173.163 211.411L173.166 211.421L174.135 211.176ZM175.102 213.431L174.276 213.995L174.281 214.003L174.287 214.01L175.102 213.431ZM182.339 213.431L181.513 212.868L181.511 212.871L182.339 213.431ZM183.291 211.176L182.319 210.941L183.291 211.176ZM186.685 207.015V208.114H188.685V207.015H186.685ZM186.685 208.114C186.685 209.637 186.482 210.978 186.092 212.148L187.989 212.781C188.459 211.373 188.685 209.813 188.685 208.114H186.685ZM186.093 212.146C185.7 213.315 185.152 214.284 184.459 215.07L185.96 216.392C186.85 215.382 187.522 214.172 187.989 212.783L186.093 212.146ZM184.459 215.07C183.764 215.859 182.941 216.461 181.982 216.88L182.783 218.713C184.011 218.176 185.073 217.4 185.96 216.392L184.459 215.07ZM181.982 216.88C181.029 217.297 179.952 217.514 178.735 217.514V219.514C180.194 219.514 181.549 219.253 182.783 218.713L181.982 216.88ZM178.735 217.514C177.54 217.514 176.466 217.298 175.5 216.879L174.704 218.714C175.945 219.252 177.293 219.514 178.735 219.514V217.514ZM175.503 216.88C174.542 216.46 173.713 215.858 173.007 215.066L171.514 216.397C172.41 217.402 173.475 218.176 174.701 218.713L175.503 216.88ZM173.007 215.066C172.305 214.278 171.747 213.309 171.346 212.14L169.454 212.789C169.932 214.179 170.614 215.387 171.514 216.397L173.007 215.066ZM171.347 212.142C170.948 210.974 170.741 209.635 170.741 208.114H168.741C168.741 209.816 168.973 211.377 169.454 212.787L171.347 212.142ZM170.741 208.114V207.015H168.741V208.114H170.741ZM170.741 207.015C170.741 205.484 170.949 204.146 171.346 202.99L169.454 202.34C168.973 203.742 168.741 205.305 168.741 207.015H170.741ZM171.346 202.99C171.748 201.818 172.302 200.847 172.996 200.059L171.495 198.737C170.607 199.746 169.931 200.953 169.454 202.34L171.346 202.99ZM173 200.055C173.695 199.257 174.517 198.653 175.474 198.234L174.672 196.402C173.442 196.94 172.379 197.723 171.492 198.741L173 200.055ZM175.471 198.236C176.437 197.817 177.511 197.6 178.706 197.6V195.6C177.264 195.6 175.916 195.863 174.675 196.401L175.471 198.236ZM178.706 197.6C179.922 197.6 180.999 197.817 181.952 198.234L182.754 196.402C181.519 195.862 180.165 195.6 178.706 195.6V197.6ZM181.952 198.234C182.909 198.653 183.731 199.257 184.426 200.055L185.934 198.741C185.047 197.723 183.984 196.94 182.754 196.402L181.952 198.234ZM184.434 200.064C185.134 200.85 185.686 201.816 186.078 202.983L187.974 202.346C187.506 200.955 186.828 199.744 185.927 198.733L184.434 200.064ZM186.08 202.99C186.477 204.146 186.685 205.484 186.685 207.015H188.685C188.685 205.305 188.453 203.742 187.972 202.34L186.08 202.99ZM184.613 208.114V206.986H182.613V208.114H184.613ZM184.613 206.986C184.613 205.765 184.5 204.662 184.262 203.687L182.319 204.162C182.511 204.945 182.613 205.883 182.613 206.986H184.613ZM184.263 203.69C184.026 202.709 183.665 201.841 183.16 201.113L181.517 202.253C181.852 202.736 182.126 203.363 182.319 204.16L184.263 203.69ZM183.16 201.113C182.651 200.379 182.006 199.807 181.227 199.424L180.344 201.218C180.796 201.44 181.186 201.777 181.517 202.253L183.16 201.113ZM181.239 199.429C180.467 199.038 179.616 198.852 178.706 198.852V200.852C179.339 200.852 179.874 200.979 180.333 201.213L181.239 199.429ZM178.706 198.852C177.788 198.852 176.934 199.037 176.167 199.432L177.084 201.21C177.528 200.98 178.061 200.852 178.706 200.852V198.852ZM176.173 199.43C175.415 199.815 174.785 200.386 174.28 201.113L175.924 202.253C176.259 201.77 176.645 201.433 177.079 201.213L176.173 199.43ZM174.28 201.113C173.778 201.838 173.413 202.702 173.166 203.68L175.105 204.17C175.307 203.37 175.587 202.739 175.924 202.253L174.28 201.113ZM173.164 203.687C172.926 204.662 172.813 205.765 172.813 206.986H174.813C174.813 205.883 174.915 204.945 175.107 204.162L173.164 203.687ZM172.813 206.986V208.114H174.813V206.986H172.813ZM172.813 208.114C172.813 209.326 172.926 210.428 173.163 211.411L175.107 210.941C174.915 210.146 174.813 209.207 174.813 208.114H172.813ZM173.166 211.421C173.413 212.398 173.777 213.263 174.276 213.995L175.928 212.868C175.588 212.369 175.307 211.731 175.105 210.93L173.166 211.421ZM174.287 214.01C174.8 214.734 175.436 215.305 176.196 215.697L177.114 213.92C176.663 213.687 176.263 213.34 175.918 212.853L174.287 214.01ZM176.196 215.697C176.963 216.093 177.818 216.277 178.735 216.277V214.277C178.09 214.277 177.558 214.149 177.114 213.92L176.196 215.697ZM178.735 216.277C179.652 216.277 180.507 216.093 181.274 215.697L180.356 213.92C179.912 214.149 179.38 214.277 178.735 214.277V216.277ZM181.274 215.697C182.039 215.302 182.67 214.726 183.166 213.992L181.511 212.871C181.187 213.348 180.803 213.689 180.356 213.92L181.274 215.697ZM183.164 213.995C183.666 213.26 184.026 212.391 184.263 211.411L182.319 210.941C182.126 211.738 181.851 212.372 181.513 212.868L183.164 213.995ZM184.263 211.411C184.5 210.428 184.613 209.326 184.613 208.114H182.613C182.613 209.207 182.511 210.146 182.319 210.941L184.263 211.411ZM192.871 218.221L191.871 218.212L191.861 219.221H192.871V218.221ZM192.9 215.057V214.057H191.909L191.9 215.048L192.9 215.057ZM200.59 214.237L201.136 215.075L201.143 215.071L200.59 214.237ZM202.495 211.849L203.418 212.233L203.42 212.23L202.495 211.849ZM202.773 204.027L201.811 204.3L202.773 204.027ZM201.689 201.859L200.908 202.484L200.915 202.492L201.689 201.859ZM192.783 200.072H191.783V201.072H192.783V200.072ZM192.783 196.893V195.893H191.783V196.893H192.783ZM201.455 197.611L201.077 198.537L201.079 198.538L201.455 197.611ZM204.516 199.677L203.794 200.368L203.801 200.376L204.516 199.677ZM206.508 202.87L205.571 203.217L205.573 203.223L206.508 202.87ZM206.508 212.26L205.572 211.908L205.571 211.912L206.508 212.26ZM204.516 215.453L203.801 214.754L203.797 214.758L204.516 215.453ZM195.127 196.893H196.127V195.893H195.127V196.893ZM195.127 218.221V219.221H196.127V218.221H195.127ZM191.098 218.221H190.098V219.221H191.098V218.221ZM191.098 196.893V195.893H190.098V196.893H191.098ZM197.47 217.221H192.871V219.221H197.47V217.221ZM193.871 218.231L193.9 215.067L191.9 215.048L191.871 218.212L193.871 218.231ZM192.9 216.057H197.47V214.057H192.9V216.057ZM197.47 216.057C198.858 216.057 200.099 215.75 201.136 215.075L200.045 213.399C199.402 213.818 198.563 214.057 197.47 214.057V216.057ZM201.143 215.071C202.167 214.392 202.921 213.43 203.418 212.233L201.571 211.466C201.209 212.339 200.694 212.969 200.038 213.404L201.143 215.071ZM203.42 212.23C203.911 211.035 204.139 209.649 204.139 208.099H202.139C202.139 209.46 201.938 210.574 201.57 211.469L203.42 212.23ZM204.139 208.099V207.001H202.139V208.099H204.139ZM204.139 207.001C204.139 205.808 204.01 204.721 203.735 203.754L201.811 204.3C202.025 205.051 202.139 205.948 202.139 207.001H204.139ZM203.735 203.754C203.46 202.787 203.043 201.936 202.464 201.227L200.915 202.492C201.293 202.955 201.598 203.549 201.811 204.3L203.735 203.754ZM202.47 201.234C201.899 200.521 201.187 199.977 200.346 199.61L199.546 201.443C200.092 201.681 200.542 202.026 200.908 202.484L202.47 201.234ZM200.346 199.61C199.505 199.242 198.569 199.072 197.558 199.072V201.072C198.344 201.072 199 201.204 199.546 201.443L200.346 199.61ZM197.558 199.072H192.783V201.072H197.558V199.072ZM193.783 200.072V196.893H191.783V200.072H193.783ZM192.783 197.893H197.558V195.893H192.783V197.893ZM197.558 197.893C198.871 197.893 200.039 198.113 201.077 198.537L201.833 196.685C200.527 196.152 199.097 195.893 197.558 195.893V197.893ZM201.079 198.538C202.133 198.965 203.035 199.574 203.794 200.368L205.239 198.985C204.279 197.982 203.139 197.214 201.83 196.684L201.079 198.538ZM203.801 200.376C204.566 201.158 205.157 202.1 205.571 203.217L207.446 202.523C206.942 201.159 206.205 199.973 205.231 198.977L203.801 200.376ZM205.573 203.223C205.993 204.334 206.212 205.599 206.212 207.03H208.212C208.212 205.395 207.961 203.886 207.444 202.516L205.573 203.223ZM206.212 207.03V208.099H208.212V207.03H206.212ZM206.212 208.099C206.212 209.52 205.993 210.785 205.572 211.908L207.445 212.611C207.961 211.234 208.212 209.726 208.212 208.099H206.212ZM205.571 211.912C205.157 213.03 204.566 213.972 203.801 214.754L205.231 216.152C206.205 215.157 206.942 213.97 207.446 212.607L205.571 211.912ZM203.797 214.758C203.04 215.541 202.133 216.148 201.067 216.576L201.813 218.432C203.13 217.903 204.274 217.142 205.235 216.148L203.797 214.758ZM201.067 216.576C200.009 217.001 198.815 217.221 197.47 217.221V219.221C199.036 219.221 200.488 218.964 201.813 218.432L201.067 216.576ZM194.127 196.893V218.221H196.127V196.893H194.127ZM195.127 217.221H191.098V219.221H195.127V217.221ZM192.098 218.221V196.893H190.098V218.221H192.098ZM191.098 197.893H195.127V195.893H191.098V197.893Z" fill="white" fill-opacity="0.11" mask="url(#path-61-outside-1_3808_195)"/>
<path d="M125.888 185.557C132.701 185.247 139.513 185.033 146.331 184.926C153.144 184.799 159.956 184.764 166.774 184.748C173.587 184.764 180.405 184.799 187.217 184.926C194.03 185.033 200.842 185.242 207.66 185.557C200.848 185.873 194.035 186.081 187.217 186.188C180.405 186.315 173.592 186.351 166.774 186.366C159.962 186.351 153.149 186.315 146.331 186.188C139.519 186.081 132.706 185.873 125.888 185.557Z" fill="#4D2D0B"/>
<defs>
<filter id="filter0_d_3808_195" x="181.149" y="111.93" width="35.2031" height="31.6711" filterUnits="userSpaceOnUse" color-interpolation-filters="sRGB">
<feFlood flood-opacity="0" result="BackgroundImageFix"/>
<feColorMatrix in="SourceAlpha" type="matrix" values="0 0 0 0 0 0 0 0 0 0 0 0 0 0 0 0 0 0 127 0" result="hardAlpha"/>
<feOffset dy="4"/>
<feGaussianBlur stdDeviation="2"/>
<feComposite in2="hardAlpha" operator="out"/>
<feColorMatrix type="matrix" values="0 0 0 0 0 0 0 0 0 0 0 0 0 0 0 0 0 0 0.25 0"/>
<feBlend mode="normal" in2="BackgroundImageFix" result="effect1_dropShadow_3808_195"/>
<feBlend mode="normal" in="SourceGraphic" in2="effect1_dropShadow_3808_195" result="shape"/>
</filter>
<filter id="filter1_d_3808_195" x="148.455" y="99.7864" width="35.2031" height="31.6711" filterUnits="userSpaceOnUse" color-interpolation-filters="sRGB">
<feFlood flood-opacity="0" result="BackgroundImageFix"/>
<feColorMatrix in="SourceAlpha" type="matrix" values="0 0 0 0 0 0 0 0 0 0 0 0 0 0 0 0 0 0 127 0" result="hardAlpha"/>
<feOffset dy="4"/>
<feGaussianBlur stdDeviation="2"/>
<feComposite in2="hardAlpha" operator="out"/>
<feColorMatrix type="matrix" values="0 0 0 0 0 0 0 0 0 0 0 0 0 0 0 0 0 0 0.25 0"/>
<feBlend mode="normal" in2="BackgroundImageFix" result="effect1_dropShadow_3808_195"/>
<feBlend mode="normal" in="SourceGraphic" in2="effect1_dropShadow_3808_195" result="shape"/>
</filter>
<filter id="filter2_d_3808_195" x="115.76" y="111.93" width="35.2031" height="31.6711" filterUnits="userSpaceOnUse" color-interpolation-filters="sRGB">
<feFlood flood-opacity="0" result="BackgroundImageFix"/>
<feColorMatrix in="SourceAlpha" type="matrix" values="0 0 0 0 0 0 0 0 0 0 0 0 0 0 0 0 0 0 127 0" result="hardAlpha"/>
<feOffset dy="4"/>
<feGaussianBlur stdDeviation="2"/>
<feComposite in2="hardAlpha" operator="out"/>
<feColorMatrix type="matrix" values="0 0 0 0 0 0 0 0 0 0 0 0 0 0 0 0 0 0 0.25 0"/>
<feBlend mode="normal" in2="BackgroundImageFix" result="effect1_dropShadow_3808_195"/>
<feBlend mode="normal" in="SourceGraphic" in2="effect1_dropShadow_3808_195" result="shape"/>
</filter>
<linearGradient id="paint0_linear_3808_195" x1="110.099" y1="283.412" x2="246.552" y2="3.54697" gradientUnits="userSpaceOnUse">
<stop offset="0.1" stop-color="#BA903F"/>
<stop offset="0.5" stop-color="#996019"/>
<stop offset="0.64" stop-color="#6F4410"/>
<stop offset="0.8" stop-color="#462908"/>
<stop offset="0.92" stop-color="#2E1903"/>
<stop offset="1" stop-color="#251302"/>
</linearGradient>
<linearGradient id="paint1_linear_3808_195" x1="288.355" y1="-114.493" x2="130.149" y2="252.046" gradientUnits="userSpaceOnUse">
<stop stop-color="#FFD744"/>
<stop offset="0.07" stop-color="#A6761A"/>
<stop offset="0.19" stop-color="#FFD744"/>
<stop offset="0.4" stop-color="#FFD744"/>
<stop offset="0.56" stop-color="#FCF4AE"/>
<stop offset="0.68" stop-color="#FFD744"/>
<stop offset="0.75" stop-color="#A6761A"/>
<stop offset="0.88" stop-color="#FFD744"/>
<stop offset="0.97" stop-color="#FCF4AE"/>
<stop offset="1" stop-color="#FFD744"/>
</linearGradient>
<linearGradient id="paint2_linear_3808_195" x1="288.355" y1="-114.493" x2="130.149" y2="252.046" gradientUnits="userSpaceOnUse">
<stop offset="0.1" stop-color="#BA903F"/>
<stop offset="0.5" stop-color="#996019"/>
<stop offset="0.64" stop-color="#6F4410"/>
<stop offset="0.8" stop-color="#462908"/>
<stop offset="0.92" stop-color="#2E1903"/>
<stop offset="1" stop-color="#251302"/>
</linearGradient>
<linearGradient id="paint3_linear_3808_195" x1="239.15" y1="-62.2029" x2="116.621" y2="326.264" gradientUnits="userSpaceOnUse">
<stop stop-color="#FFD744"/>
<stop offset="0.07" stop-color="#A6761A"/>
<stop offset="0.19" stop-color="#FFD744"/>
<stop offset="0.4" stop-color="#FFD744"/>
<stop offset="0.56" stop-color="#FCF4AE"/>
<stop offset="0.68" stop-color="#FFD744"/>
<stop offset="0.75" stop-color="#A6761A"/>
<stop offset="0.88" stop-color="#FFD744"/>
<stop offset="0.97" stop-color="#FCF4AE"/>
<stop offset="1" stop-color="#FFD744"/>
</linearGradient>
<linearGradient id="paint4_linear_3808_195" x1="184.541" y1="7.73345" x2="148.724" y2="330.216" gradientUnits="userSpaceOnUse">
<stop stop-color="#FFD744"/>
<stop offset="0.07" stop-color="#A6761A"/>
<stop offset="0.19" stop-color="#FFD744"/>
<stop offset="0.4" stop-color="#FFD744"/>
<stop offset="0.56" stop-color="#FCF4AE"/>
<stop offset="0.68" stop-color="#FFD744"/>
<stop offset="0.75" stop-color="#A6761A"/>
<stop offset="0.88" stop-color="#FFD744"/>
<stop offset="0.97" stop-color="#FCF4AE"/>
<stop offset="1" stop-color="#FFD744"/>
</linearGradient>
<linearGradient id="paint5_linear_3808_195" x1="264.19" y1="-92.6164" x2="85.6236" y2="383.571" gradientUnits="userSpaceOnUse">
<stop offset="0.1" stop-color="#BA903F"/>
<stop offset="0.5" stop-color="#996019"/>
<stop offset="0.64" stop-color="#6F4410"/>
<stop offset="0.8" stop-color="#462908"/>
<stop offset="0.92" stop-color="#2E1903"/>
<stop offset="1" stop-color="#251302"/>
</linearGradient>
<linearGradient id="paint6_linear_3808_195" x1="232.699" y1="-42.9973" x2="94.8583" y2="396.637" gradientUnits="userSpaceOnUse">
<stop stop-color="#FFD744"/>
<stop offset="0.07" stop-color="#A6761A"/>
<stop offset="0.19" stop-color="#FFD744"/>
<stop offset="0.4" stop-color="#FFD744"/>
<stop offset="0.56" stop-color="#FCF4AE"/>
<stop offset="0.68" stop-color="#FFD744"/>
<stop offset="0.75" stop-color="#A6761A"/>
<stop offset="0.88" stop-color="#FFD744"/>
<stop offset="0.97" stop-color="#FCF4AE"/>
<stop offset="1" stop-color="#FFD744"/>
</linearGradient>
<linearGradient id="paint7_linear_3808_195" x1="292.682" y1="116.498" x2="-88.4809" y2="60.1079" gradientUnits="userSpaceOnUse">
<stop offset="0.1" stop-color="#BA903F"/>
<stop offset="0.5" stop-color="#996019"/>
<stop offset="0.64" stop-color="#6F4410"/>
<stop offset="0.8" stop-color="#462908"/>
<stop offset="0.92" stop-color="#2E1903"/>
<stop offset="1" stop-color="#251302"/>
</linearGradient>
<linearGradient id="paint8_linear_3808_195" x1="284.633" y1="170.9" x2="-96.5252" y2="114.51" gradientUnits="userSpaceOnUse">
<stop offset="0.1" stop-color="#BA903F"/>
<stop offset="0.5" stop-color="#996019"/>
<stop offset="0.64" stop-color="#6F4410"/>
<stop offset="0.8" stop-color="#462908"/>
<stop offset="0.92" stop-color="#2E1903"/>
<stop offset="1" stop-color="#251302"/>
</linearGradient>
<linearGradient id="paint9_linear_3808_195" x1="289.851" y1="135.657" x2="-91.3074" y2="79.267" gradientUnits="userSpaceOnUse">
<stop offset="0.1" stop-color="#BA903F"/>
<stop offset="0.5" stop-color="#996019"/>
<stop offset="0.64" stop-color="#6F4410"/>
<stop offset="0.8" stop-color="#462908"/>
<stop offset="0.92" stop-color="#2E1903"/>
<stop offset="1" stop-color="#251302"/>
</linearGradient>
<linearGradient id="paint10_linear_3808_195" x1="286.46" y1="158.58" x2="-94.7084" y2="102.184" gradientUnits="userSpaceOnUse">
<stop offset="0.1" stop-color="#BA903F"/>
<stop offset="0.5" stop-color="#996019"/>
<stop offset="0.64" stop-color="#6F4410"/>
<stop offset="0.8" stop-color="#462908"/>
<stop offset="0.92" stop-color="#2E1903"/>
<stop offset="1" stop-color="#251302"/>
</linearGradient>
<linearGradient id="paint11_linear_3808_195" x1="288.204" y1="146.756" x2="-92.9588" y2="90.3607" gradientUnits="userSpaceOnUse">
<stop offset="0.1" stop-color="#BA903F"/>
<stop offset="0.5" stop-color="#996019"/>
<stop offset="0.64" stop-color="#6F4410"/>
<stop offset="0.8" stop-color="#462908"/>
<stop offset="0.92" stop-color="#2E1903"/>
<stop offset="1" stop-color="#251302"/>
</linearGradient>
<linearGradient id="paint12_linear_3808_195" x1="295.866" y1="94.9627" x2="-85.2868" y2="38.5724" gradientUnits="userSpaceOnUse">
<stop offset="0.1" stop-color="#BA903F"/>
<stop offset="0.5" stop-color="#996019"/>
<stop offset="0.64" stop-color="#6F4410"/>
<stop offset="0.8" stop-color="#462908"/>
<stop offset="0.92" stop-color="#2E1903"/>
<stop offset="1" stop-color="#251302"/>
</linearGradient>
<linearGradient id="paint13_linear_3808_195" x1="296.047" y1="93.7411" x2="-85.1056" y2="37.3509" gradientUnits="userSpaceOnUse">
<stop offset="0.1" stop-color="#BA903F"/>
<stop offset="0.5" stop-color="#996019"/>
<stop offset="0.64" stop-color="#6F4410"/>
<stop offset="0.8" stop-color="#462908"/>
<stop offset="0.92" stop-color="#2E1903"/>
<stop offset="1" stop-color="#251302"/>
</linearGradient>
<linearGradient id="paint14_linear_3808_195" x1="295.431" y1="97.929" x2="-85.7324" y2="41.5387" gradientUnits="userSpaceOnUse">
<stop offset="0.1" stop-color="#BA903F"/>
<stop offset="0.5" stop-color="#996019"/>
<stop offset="0.64" stop-color="#6F4410"/>
<stop offset="0.8" stop-color="#462908"/>
<stop offset="0.92" stop-color="#2E1903"/>
<stop offset="1" stop-color="#251302"/>
</linearGradient>
<linearGradient id="paint15_linear_3808_195" x1="293.821" y1="108.805" x2="-87.3365" y2="52.4152" gradientUnits="userSpaceOnUse">
<stop offset="0.1" stop-color="#BA903F"/>
<stop offset="0.5" stop-color="#996019"/>
<stop offset="0.64" stop-color="#6F4410"/>
<stop offset="0.8" stop-color="#462908"/>
<stop offset="0.92" stop-color="#2E1903"/>
<stop offset="1" stop-color="#251302"/>
</linearGradient>
<linearGradient id="paint16_linear_3808_195" x1="294.742" y1="102.578" x2="-86.4104" y2="46.1877" gradientUnits="userSpaceOnUse">
<stop offset="0.1" stop-color="#BA903F"/>
<stop offset="0.5" stop-color="#996019"/>
<stop offset="0.64" stop-color="#6F4410"/>
<stop offset="0.8" stop-color="#462908"/>
<stop offset="0.92" stop-color="#2E1903"/>
<stop offset="1" stop-color="#251302"/>
</linearGradient>
<linearGradient id="paint17_linear_3808_195" x1="274.89" y1="236.743" x2="-106.263" y2="180.358" gradientUnits="userSpaceOnUse">
<stop offset="0.1" stop-color="#BA903F"/>
<stop offset="0.5" stop-color="#996019"/>
<stop offset="0.64" stop-color="#6F4410"/>
<stop offset="0.8" stop-color="#462908"/>
<stop offset="0.92" stop-color="#2E1903"/>
<stop offset="1" stop-color="#251302"/>
</linearGradient>
<linearGradient id="paint18_linear_3808_195" x1="272.192" y1="254.981" x2="-108.965" y2="198.591" gradientUnits="userSpaceOnUse">
<stop offset="0.1" stop-color="#BA903F"/>
<stop offset="0.5" stop-color="#996019"/>
<stop offset="0.64" stop-color="#6F4410"/>
<stop offset="0.8" stop-color="#462908"/>
<stop offset="0.92" stop-color="#2E1903"/>
<stop offset="1" stop-color="#251302"/>
</linearGradient>
<linearGradient id="paint19_linear_3808_195" x1="283.26" y1="180.193" x2="-97.9028" y2="123.802" gradientUnits="userSpaceOnUse">
<stop offset="0.1" stop-color="#BA903F"/>
<stop offset="0.5" stop-color="#996019"/>
<stop offset="0.64" stop-color="#6F4410"/>
<stop offset="0.8" stop-color="#462908"/>
<stop offset="0.92" stop-color="#2E1903"/>
<stop offset="1" stop-color="#251302"/>
</linearGradient>
<linearGradient id="paint20_linear_3808_195" x1="271.136" y1="262.114" x2="-110.016" y2="205.724" gradientUnits="userSpaceOnUse">
<stop offset="0.1" stop-color="#BA903F"/>
<stop offset="0.5" stop-color="#996019"/>
<stop offset="0.64" stop-color="#6F4410"/>
<stop offset="0.8" stop-color="#462908"/>
<stop offset="0.92" stop-color="#2E1903"/>
<stop offset="1" stop-color="#251302"/>
</linearGradient>
<linearGradient id="paint21_linear_3808_195" x1="270.308" y1="267.726" x2="-110.844" y2="211.336" gradientUnits="userSpaceOnUse">
<stop offset="0.1" stop-color="#BA903F"/>
<stop offset="0.5" stop-color="#996019"/>
<stop offset="0.64" stop-color="#6F4410"/>
<stop offset="0.8" stop-color="#462908"/>
<stop offset="0.92" stop-color="#2E1903"/>
<stop offset="1" stop-color="#251302"/>
</linearGradient>
<linearGradient id="paint22_linear_3808_195" x1="269.723" y1="271.707" x2="-111.445" y2="215.317" gradientUnits="userSpaceOnUse">
<stop offset="0.1" stop-color="#BA903F"/>
<stop offset="0.5" stop-color="#996019"/>
<stop offset="0.64" stop-color="#6F4410"/>
<stop offset="0.8" stop-color="#462908"/>
<stop offset="0.92" stop-color="#2E1903"/>
<stop offset="1" stop-color="#251302"/>
</linearGradient>
<linearGradient id="paint23_linear_3808_195" x1="273.456" y1="246.47" x2="-107.702" y2="190.075" gradientUnits="userSpaceOnUse">
<stop offset="0.1" stop-color="#BA903F"/>
<stop offset="0.5" stop-color="#996019"/>
<stop offset="0.64" stop-color="#6F4410"/>
<stop offset="0.8" stop-color="#462908"/>
<stop offset="0.92" stop-color="#2E1903"/>
<stop offset="1" stop-color="#251302"/>
</linearGradient>
<linearGradient id="paint24_linear_3808_195" x1="279.989" y1="202.292" x2="-101.164" y2="145.902" gradientUnits="userSpaceOnUse">
<stop offset="0.1" stop-color="#BA903F"/>
<stop offset="0.5" stop-color="#996019"/>
<stop offset="0.64" stop-color="#6F4410"/>
<stop offset="0.8" stop-color="#462908"/>
<stop offset="0.92" stop-color="#2E1903"/>
<stop offset="1" stop-color="#251302"/>
</linearGradient>
<linearGradient id="paint25_linear_3808_195" x1="295.974" y1="94.2793" x2="-85.199" y2="37.8891" gradientUnits="userSpaceOnUse">
<stop offset="0.1" stop-color="#BA903F"/>
<stop offset="0.5" stop-color="#996019"/>
<stop offset="0.64" stop-color="#6F4410"/>
<stop offset="0.8" stop-color="#462908"/>
<stop offset="0.92" stop-color="#2E1903"/>
<stop offset="1" stop-color="#251302"/>
</linearGradient>
<linearGradient id="paint26_linear_3808_195" x1="281.842" y1="189.785" x2="-99.3212" y2="133.395" gradientUnits="userSpaceOnUse">
<stop offset="0.1" stop-color="#BA903F"/>
<stop offset="0.5" stop-color="#996019"/>
<stop offset="0.64" stop-color="#6F4410"/>
<stop offset="0.8" stop-color="#462908"/>
<stop offset="0.92" stop-color="#2E1903"/>
<stop offset="1" stop-color="#251302"/>
</linearGradient>
<linearGradient id="paint27_linear_3808_195" x1="278.193" y1="214.442" x2="-102.96" y2="158.052" gradientUnits="userSpaceOnUse">
<stop offset="0.1" stop-color="#BA903F"/>
<stop offset="0.5" stop-color="#996019"/>
<stop offset="0.64" stop-color="#6F4410"/>
<stop offset="0.8" stop-color="#462908"/>
<stop offset="0.92" stop-color="#2E1903"/>
<stop offset="1" stop-color="#251302"/>
</linearGradient>
<linearGradient id="paint28_linear_3808_195" x1="276.484" y1="226.001" x2="-104.684" y2="169.611" gradientUnits="userSpaceOnUse">
<stop offset="0.1" stop-color="#BA903F"/>
<stop offset="0.5" stop-color="#996019"/>
<stop offset="0.64" stop-color="#6F4410"/>
<stop offset="0.8" stop-color="#462908"/>
<stop offset="0.92" stop-color="#2E1903"/>
<stop offset="1" stop-color="#251302"/>
</linearGradient>
<linearGradient id="paint29_linear_3808_195" x1="291.347" y1="125.505" x2="-89.8007" y2="69.1154" gradientUnits="userSpaceOnUse">
<stop offset="0.1" stop-color="#BA903F"/>
<stop offset="0.5" stop-color="#996019"/>
<stop offset="0.64" stop-color="#6F4410"/>
<stop offset="0.8" stop-color="#462908"/>
<stop offset="0.92" stop-color="#2E1903"/>
<stop offset="1" stop-color="#251302"/>
</linearGradient>
<linearGradient id="paint30_linear_3808_195" x1="272.674" y1="251.766" x2="-108.489" y2="195.371" gradientUnits="userSpaceOnUse">
<stop offset="0.1" stop-color="#BA903F"/>
<stop offset="0.5" stop-color="#996019"/>
<stop offset="0.64" stop-color="#6F4410"/>
<stop offset="0.8" stop-color="#462908"/>
<stop offset="0.92" stop-color="#2E1903"/>
<stop offset="1" stop-color="#251302"/>
</linearGradient>
<linearGradient id="paint31_linear_3808_195" x1="274.005" y1="242.759" x2="-107.153" y2="186.369" gradientUnits="userSpaceOnUse">
<stop offset="0.1" stop-color="#BA903F"/>
<stop offset="0.5" stop-color="#996019"/>
<stop offset="0.64" stop-color="#6F4410"/>
<stop offset="0.8" stop-color="#462908"/>
<stop offset="0.92" stop-color="#2E1903"/>
<stop offset="1" stop-color="#251302"/>
</linearGradient>
<linearGradient id="paint32_linear_3808_195" x1="271.53" y1="259.454" x2="-109.622" y2="203.063" gradientUnits="userSpaceOnUse">
<stop offset="0.1" stop-color="#BA903F"/>
<stop offset="0.5" stop-color="#996019"/>
<stop offset="0.64" stop-color="#6F4410"/>
<stop offset="0.8" stop-color="#462908"/>
<stop offset="0.92" stop-color="#2E1903"/>
<stop offset="1" stop-color="#251302"/>
</linearGradient>
<linearGradient id="paint33_linear_3808_195" x1="278.891" y1="209.685" x2="-102.256" y2="153.294" gradientUnits="userSpaceOnUse">
<stop offset="0.1" stop-color="#BA903F"/>
<stop offset="0.5" stop-color="#996019"/>
<stop offset="0.64" stop-color="#6F4410"/>
<stop offset="0.8" stop-color="#462908"/>
<stop offset="0.92" stop-color="#2E1903"/>
<stop offset="1" stop-color="#251302"/>
</linearGradient>
<linearGradient id="paint34_linear_3808_195" x1="277.147" y1="221.508" x2="-104.011" y2="165.118" gradientUnits="userSpaceOnUse">
<stop offset="0.1" stop-color="#BA903F"/>
<stop offset="0.5" stop-color="#996019"/>
<stop offset="0.64" stop-color="#6F4410"/>
<stop offset="0.8" stop-color="#462908"/>
<stop offset="0.92" stop-color="#2E1903"/>
<stop offset="1" stop-color="#251302"/>
</linearGradient>
<linearGradient id="paint35_linear_3808_195" x1="275.506" y1="232.607" x2="-105.652" y2="176.217" gradientUnits="userSpaceOnUse">
<stop offset="0.1" stop-color="#BA903F"/>
<stop offset="0.5" stop-color="#996019"/>
<stop offset="0.64" stop-color="#6F4410"/>
<stop offset="0.8" stop-color="#462908"/>
<stop offset="0.92" stop-color="#2E1903"/>
<stop offset="1" stop-color="#251302"/>
</linearGradient>
<linearGradient id="paint36_linear_3808_195" x1="269.387" y1="273.984" x2="-111.781" y2="217.594" gradientUnits="userSpaceOnUse">
<stop offset="0.1" stop-color="#BA903F"/>
<stop offset="0.5" stop-color="#996019"/>
<stop offset="0.64" stop-color="#6F4410"/>
<stop offset="0.8" stop-color="#462908"/>
<stop offset="0.92" stop-color="#2E1903"/>
<stop offset="1" stop-color="#251302"/>
</linearGradient>
<linearGradient id="paint37_linear_3808_195" x1="269.304" y1="274.523" x2="-111.854" y2="218.133" gradientUnits="userSpaceOnUse">
<stop offset="0.1" stop-color="#BA903F"/>
<stop offset="0.5" stop-color="#996019"/>
<stop offset="0.64" stop-color="#6F4410"/>
<stop offset="0.8" stop-color="#462908"/>
<stop offset="0.92" stop-color="#2E1903"/>
<stop offset="1" stop-color="#251302"/>
</linearGradient>
<linearGradient id="paint38_linear_3808_195" x1="269.485" y1="273.301" x2="-111.672" y2="216.911" gradientUnits="userSpaceOnUse">
<stop offset="0.1" stop-color="#BA903F"/>
<stop offset="0.5" stop-color="#996019"/>
<stop offset="0.64" stop-color="#6F4410"/>
<stop offset="0.8" stop-color="#462908"/>
<stop offset="0.92" stop-color="#2E1903"/>
<stop offset="1" stop-color="#251302"/>
</linearGradient>
<linearGradient id="paint39_linear_3808_195" x1="295.633" y1="96.5572" x2="-85.5299" y2="40.1619" gradientUnits="userSpaceOnUse">
<stop offset="0.1" stop-color="#BA903F"/>
<stop offset="0.5" stop-color="#996019"/>
<stop offset="0.64" stop-color="#6F4410"/>
<stop offset="0.8" stop-color="#462908"/>
<stop offset="0.92" stop-color="#2E1903"/>
<stop offset="1" stop-color="#251302"/>
</linearGradient>
<linearGradient id="paint40_linear_3808_195" x1="269.926" y1="270.335" x2="-111.238" y2="213.94" gradientUnits="userSpaceOnUse">
<stop offset="0.1" stop-color="#BA903F"/>
<stop offset="0.5" stop-color="#996019"/>
<stop offset="0.64" stop-color="#6F4410"/>
<stop offset="0.8" stop-color="#462908"/>
<stop offset="0.92" stop-color="#2E1903"/>
<stop offset="1" stop-color="#251302"/>
</linearGradient>
<linearGradient id="paint41_linear_3808_195" x1="270.608" y1="265.687" x2="-110.544" y2="209.296" gradientUnits="userSpaceOnUse">
<stop offset="0.1" stop-color="#BA903F"/>
<stop offset="0.5" stop-color="#996019"/>
<stop offset="0.64" stop-color="#6F4410"/>
<stop offset="0.8" stop-color="#462908"/>
<stop offset="0.92" stop-color="#2E1903"/>
<stop offset="1" stop-color="#251302"/>
</linearGradient>
<linearGradient id="paint42_linear_3808_195" x1="293.158" y1="113.283" x2="-87.9996" y2="56.893" gradientUnits="userSpaceOnUse">
<stop offset="0.1" stop-color="#BA903F"/>
<stop offset="0.5" stop-color="#996019"/>
<stop offset="0.64" stop-color="#6F4410"/>
<stop offset="0.8" stop-color="#462908"/>
<stop offset="0.92" stop-color="#2E1903"/>
<stop offset="1" stop-color="#251302"/>
</linearGradient>
<linearGradient id="paint43_linear_3808_195" x1="291.901" y1="121.794" x2="-89.2573" y2="65.4037" gradientUnits="userSpaceOnUse">
<stop offset="0.1" stop-color="#BA903F"/>
<stop offset="0.5" stop-color="#996019"/>
<stop offset="0.64" stop-color="#6F4410"/>
<stop offset="0.8" stop-color="#462908"/>
<stop offset="0.92" stop-color="#2E1903"/>
<stop offset="1" stop-color="#251302"/>
</linearGradient>
<linearGradient id="paint44_linear_3808_195" x1="280.719" y1="197.364" x2="-100.439" y2="140.974" gradientUnits="userSpaceOnUse">
<stop offset="0.1" stop-color="#BA903F"/>
<stop offset="0.5" stop-color="#996019"/>
<stop offset="0.64" stop-color="#6F4410"/>
<stop offset="0.8" stop-color="#462908"/>
<stop offset="0.92" stop-color="#2E1903"/>
<stop offset="1" stop-color="#251302"/>
</linearGradient>
<linearGradient id="paint45_linear_3808_195" x1="294.215" y1="106.145" x2="-86.9432" y2="49.7545" gradientUnits="userSpaceOnUse">
<stop offset="0.1" stop-color="#BA903F"/>
<stop offset="0.5" stop-color="#996019"/>
<stop offset="0.64" stop-color="#6F4410"/>
<stop offset="0.8" stop-color="#462908"/>
<stop offset="0.92" stop-color="#2E1903"/>
<stop offset="1" stop-color="#251302"/>
</linearGradient>
<linearGradient id="paint46_linear_3808_195" x1="295.043" y1="100.533" x2="-86.11" y2="44.1426" gradientUnits="userSpaceOnUse">
<stop offset="0.1" stop-color="#BA903F"/>
<stop offset="0.5" stop-color="#996019"/>
<stop offset="0.64" stop-color="#6F4410"/>
<stop offset="0.8" stop-color="#462908"/>
<stop offset="0.92" stop-color="#2E1903"/>
<stop offset="1" stop-color="#251302"/>
</linearGradient>
<linearGradient id="paint47_linear_3808_195" x1="290.456" y1="131.516" x2="-90.6966" y2="75.1255" gradientUnits="userSpaceOnUse">
<stop offset="0.1" stop-color="#BA903F"/>
<stop offset="0.5" stop-color="#996019"/>
<stop offset="0.64" stop-color="#6F4410"/>
<stop offset="0.8" stop-color="#462908"/>
<stop offset="0.92" stop-color="#2E1903"/>
<stop offset="1" stop-color="#251302"/>
</linearGradient>
<linearGradient id="paint48_linear_3808_195" x1="282.096" y1="188.066" x2="-99.0672" y2="131.676" gradientUnits="userSpaceOnUse">
<stop offset="0.1" stop-color="#BA903F"/>
<stop offset="0.5" stop-color="#996019"/>
<stop offset="0.64" stop-color="#6F4410"/>
<stop offset="0.8" stop-color="#462908"/>
<stop offset="0.92" stop-color="#2E1903"/>
<stop offset="1" stop-color="#251302"/>
</linearGradient>
<linearGradient id="paint49_linear_3808_195" x1="283.514" y1="178.479" x2="-97.6437" y2="122.089" gradientUnits="userSpaceOnUse">
<stop offset="0.1" stop-color="#BA903F"/>
<stop offset="0.5" stop-color="#996019"/>
<stop offset="0.64" stop-color="#6F4410"/>
<stop offset="0.8" stop-color="#462908"/>
<stop offset="0.92" stop-color="#2E1903"/>
<stop offset="1" stop-color="#251302"/>
</linearGradient>
<linearGradient id="paint50_linear_3808_195" x1="287.159" y1="153.817" x2="-93.9941" y2="97.432" gradientUnits="userSpaceOnUse">
<stop offset="0.1" stop-color="#BA903F"/>
<stop offset="0.5" stop-color="#996019"/>
<stop offset="0.64" stop-color="#6F4410"/>
<stop offset="0.8" stop-color="#462908"/>
<stop offset="0.92" stop-color="#2E1903"/>
<stop offset="1" stop-color="#251302"/>
</linearGradient>
<linearGradient id="paint51_linear_3808_195" x1="285.362" y1="165.972" x2="-95.7959" y2="109.582" gradientUnits="userSpaceOnUse">
<stop offset="0.1" stop-color="#BA903F"/>
<stop offset="0.5" stop-color="#996019"/>
<stop offset="0.64" stop-color="#6F4410"/>
<stop offset="0.8" stop-color="#462908"/>
<stop offset="0.92" stop-color="#2E1903"/>
<stop offset="1" stop-color="#251302"/>
</linearGradient>
<linearGradient id="paint52_linear_3808_195" x1="288.872" y1="142.262" x2="-92.2859" y2="85.8723" gradientUnits="userSpaceOnUse">
<stop offset="0.1" stop-color="#BA903F"/>
<stop offset="0.5" stop-color="#996019"/>
<stop offset="0.64" stop-color="#6F4410"/>
<stop offset="0.8" stop-color="#462908"/>
<stop offset="0.92" stop-color="#2E1903"/>
<stop offset="1" stop-color="#251302"/>
</linearGradient>
</defs>
</svg>
