<svg width="13" height="31" viewBox="0 0 13 31" fill="none" xmlns="http://www.w3.org/2000/svg">
<path d="M6.5 7.0625C5.59375 7.0625 4.82031 6.74219 4.17969 6.10156C3.53906 5.46094 3.21875 4.6875 3.21875 3.78125C3.21875 2.875 3.53906 2.10156 4.17969 1.46094C4.82031 0.820312 5.59375 0.5 6.5 0.5C7.40625 0.5 8.17969 0.820312 8.82031 1.46094C9.46094 2.10156 9.78125 2.875 9.78125 3.78125C9.78125 4.6875 9.46094 5.46094 8.82031 6.10156C8.17969 6.74219 7.40625 7.0625 6.5 7.0625ZM2.75 30.5V21.125H0.875V12.6875C0.875 11.6562 1.24219 10.7734 1.97656 10.0391C2.71094 9.30469 3.59375 8.9375 4.625 8.9375H8.375C9.40625 8.9375 10.2891 9.30469 11.0234 10.0391C11.7578 10.7734 12.125 11.6562 12.125 12.6875V21.125H10.25V30.5H2.75Z" fill="#089000"/>
</svg>
