<svg width="332" height="332" viewBox="0 0 332 332" fill="none" xmlns="http://www.w3.org/2000/svg">
<path d="M169.982 294.318C241.017 291.924 296.661 232.389 294.268 161.344C291.874 90.2993 232.348 34.6466 161.313 37.0407C90.2782 39.4347 34.6334 98.9689 37.0271 170.014C39.4208 241.059 98.9465 296.712 169.982 294.318Z" fill="url(#paint0_linear_3808_258)"/>
<path d="M290.981 186.027C302.216 116.806 255.216 51.5815 186.004 40.3452C116.792 29.1089 51.5769 76.1155 40.3422 145.337C29.1075 214.559 76.1074 279.783 145.319 291.019C214.531 302.256 279.746 255.249 290.981 186.027Z" fill="url(#paint1_linear_3808_258)"/>
<path d="M202.757 277.005C196.759 281.886 185.712 284.338 178.22 282.457C170.729 280.552 158.448 280.481 150.909 282.267C143.394 284.052 132.37 281.457 126.443 276.481C120.516 271.505 109.469 266.076 101.93 264.41C94.3908 262.743 85.5954 255.6 82.3949 248.529C79.1944 241.458 71.608 231.768 65.5152 226.982C59.4461 222.196 54.5861 211.935 54.7758 204.173C54.9417 196.411 52.2865 184.364 48.8726 177.412C45.4588 170.459 45.5299 159.079 49.0386 152.174C52.5473 145.269 55.3685 133.246 55.2973 125.484C55.2262 117.722 60.2048 107.532 66.345 102.818C72.4852 98.1036 80.2138 88.5324 83.5091 81.5087C86.8045 74.4851 95.6947 67.4614 103.257 65.9138C110.82 64.3424 121.939 59.0806 127.937 54.1759C133.935 49.2951 144.982 46.8428 152.474 48.7237C159.965 50.6046 172.246 50.6998 179.785 48.9141C187.3 47.1285 198.324 49.7237 204.251 54.6997C210.178 59.6758 221.225 65.1043 228.764 66.7709C236.327 68.4376 245.099 75.5803 248.299 82.6516C251.5 89.7228 259.086 99.4131 265.179 104.199C271.272 108.984 276.108 119.246 275.942 127.008C275.776 134.77 278.431 146.817 281.845 153.769C285.259 160.745 285.188 172.102 281.679 179.007C278.171 185.935 275.349 197.935 275.42 205.697C275.492 213.458 270.513 223.672 264.373 228.363C258.233 233.077 250.504 242.672 247.209 249.672C243.913 256.696 235.023 263.719 227.46 265.267C219.898 266.838 208.779 272.1 202.781 277.005H202.757Z" fill="url(#paint2_linear_3808_258)"/>
<path d="M202.437 276.082C196.493 280.908 185.533 283.332 178.091 281.454C170.649 279.577 158.476 279.505 151.01 281.264C143.545 283.023 132.632 280.456 126.759 275.56C120.862 270.663 109.926 265.291 102.46 263.651C94.9707 262.011 86.245 254.952 83.0828 247.987C79.9206 241.023 72.3837 231.444 66.3446 226.714C60.3056 221.984 55.5029 211.858 55.6931 204.181C55.8595 196.527 53.2204 184.618 49.8442 177.749C46.4681 170.88 46.5394 159.661 50.0107 152.839C53.4819 146.017 56.2875 134.156 56.2161 126.503C56.1448 118.849 61.0902 108.771 67.1768 104.112C73.2634 99.4771 80.943 89.9931 84.2002 83.0763C87.4575 76.1594 96.2783 69.2188 103.791 67.6738C111.305 66.1288 122.313 60.9234 128.257 56.0982C134.201 51.2731 145.161 48.8486 152.603 50.7264C160.045 52.6041 172.218 52.6754 179.684 50.9165C187.149 49.1576 198.062 51.7247 203.935 56.6211C209.831 61.5414 220.768 66.8894 228.258 68.5295C235.747 70.1696 244.473 77.2291 247.635 84.1934C250.797 91.1816 258.334 100.737 264.373 105.467C270.412 110.197 275.215 120.323 275.025 128C274.858 135.654 277.497 147.562 280.874 154.432C284.25 161.301 284.178 172.52 280.707 179.342C277.236 186.163 274.43 198.024 274.502 205.678C274.573 213.332 269.628 223.41 263.541 228.045C257.454 232.68 249.775 242.164 246.518 249.081C243.26 256.021 234.439 262.938 226.926 264.483C219.413 266.028 208.405 271.234 202.461 276.059L202.437 276.082Z" fill="url(#paint3_radial_3808_258)"/>
<path d="M200.882 269.411C195.264 273.957 184.905 276.254 177.889 274.502C170.872 272.726 159.352 272.655 152.312 274.336C145.272 275.994 134.96 273.579 129.39 268.938C123.819 264.297 113.508 259.254 106.42 257.691C99.3564 256.128 91.1073 249.475 88.1206 242.892C85.1101 236.31 77.9988 227.265 72.3098 222.814C66.6208 218.362 62.0695 208.773 62.2355 201.551C62.4014 194.33 59.9124 183.106 56.7124 176.595C53.5123 170.107 53.5834 159.523 56.8783 153.083C60.1732 146.643 62.8044 135.443 62.7332 128.222C62.6621 121 67.3319 111.482 73.092 107.101C78.8522 102.721 86.082 93.7707 89.1873 87.2357C92.2688 80.7006 100.613 74.1419 107.7 72.6976C114.788 71.2533 125.194 66.3283 130.812 61.7585C136.43 57.2124 146.789 54.9157 153.805 56.6915C160.822 58.4673 172.342 58.5384 179.382 56.8573C186.422 55.1998 196.734 57.6149 202.304 62.2558C207.875 66.8966 218.21 71.9399 225.274 73.5026C232.338 75.0654 240.587 81.7188 243.597 88.3011C246.584 94.8835 253.719 103.928 259.408 108.38C265.097 112.855 269.648 122.421 269.482 129.642C269.316 136.864 271.805 148.087 275.005 154.598C278.206 161.086 278.134 171.67 274.839 178.11C271.545 184.551 268.913 195.75 268.985 202.972C269.056 210.194 264.386 219.712 258.626 224.092C252.866 228.473 245.636 237.423 242.554 243.958C239.473 250.493 231.129 257.052 224.041 258.496C216.954 259.94 206.547 264.865 200.929 269.435L200.882 269.411Z" fill="url(#paint4_radial_3808_258)"/>
<path style="mix-blend-mode:screen" d="M62.2883 201.492C62.1221 208.71 66.6814 218.271 72.3806 222.743C77.3436 226.601 83.3515 233.937 86.8185 240.09C100.782 215.17 118.164 192.096 138.657 171.697C170.739 139.724 209.375 115.325 251.359 99.753C248.272 95.9429 245.517 91.7777 243.926 88.2752C240.91 81.6961 232.67 75.0461 225.57 73.4841C218.494 71.9222 208.14 66.8814 202.56 62.243C196.979 57.6045 186.649 55.1906 179.597 56.8472C172.544 58.5275 161.003 58.4328 153.974 56.6815C146.945 54.9303 136.568 57.2022 130.94 61.746C125.312 66.2898 114.887 71.2122 107.787 72.6795C100.687 74.1231 92.3278 80.6785 89.2407 87.2102C86.1536 93.7419 78.9109 102.688 73.1167 107.066C67.3463 111.444 62.6682 120.957 62.7395 128.175C62.8107 135.393 60.1511 146.587 56.874 153.024C53.597 159.461 53.502 170.04 56.7078 176.524C59.9136 183.009 62.407 194.226 62.2408 201.468L62.2883 201.492Z" fill="url(#paint5_radial_3808_258)"/>
<path style="mix-blend-mode:screen" d="M127.333 274.784C127.333 274.784 127.547 274.95 127.642 275.021L165.835 165.59L125.031 273.054C125.838 273.646 126.621 274.215 127.309 274.784H127.333ZM49.2609 173.959L165.859 165.614L48.5488 170.853C48.7387 171.944 48.9761 172.987 49.2846 173.983L49.2609 173.959ZM167.402 279.265L165.859 165.59L164.316 279.217C165.337 279.217 166.357 279.217 167.402 279.265ZM140.246 280.427L165.835 165.59L137.137 279.692C138.157 279.976 139.202 280.237 140.223 280.427H140.246ZM91.371 256.767L165.859 165.614L89.021 254.633C89.7569 255.368 90.5639 256.103 91.371 256.767ZM151.545 280.498C152.329 280.308 153.159 280.166 154.014 280.024L165.859 165.614L150.809 280.664C151.07 280.616 151.332 280.569 151.569 280.521L151.545 280.498ZM103.05 262.907C103.216 262.931 103.382 263.002 103.548 263.026L165.835 165.59L100.391 262.125C101.293 262.457 102.172 262.717 103.05 262.907ZM56.2397 199.965L165.835 165.59L55.9074 196.812C56.0498 197.879 56.1447 198.946 56.216 199.942L56.2397 199.965ZM58.3761 213.621L165.859 165.614L57.3553 210.61C57.6402 211.605 57.9725 212.625 58.3761 213.621ZM53.9609 186.879L165.835 165.59L53.0826 183.892C53.3912 184.864 53.6761 185.86 53.9372 186.855L53.9609 186.879ZM75.4907 234.672L165.859 165.59L73.4968 232.325C74.1614 233.084 74.8498 233.866 75.4907 234.672ZM82.968 245.791L165.859 165.614L81.425 243.017C81.9947 243.965 82.517 244.89 82.9917 245.814L82.968 245.791ZM65.8296 225.071L165.859 165.59L63.622 222.7C64.3341 223.554 65.07 224.36 65.8296 225.071ZM116.177 267.814L165.859 165.59L113.399 266.511C114.325 266.937 115.251 267.364 116.177 267.814ZM274.149 210.515L165.859 165.614L273.247 213.573C273.603 212.554 273.911 211.534 274.149 210.515ZM268.309 222.842L165.859 165.614L266.244 225.284C266.956 224.526 267.668 223.72 268.333 222.842H268.309ZM275.573 196.765L165.859 165.59L275.146 199.87C275.264 198.851 275.407 197.832 275.573 196.765ZM278.849 183.939L165.859 165.59L277.876 186.903C278.184 185.883 278.516 184.888 278.849 183.939ZM194.534 279.62L165.859 165.614L191.448 280.474C192.492 280.237 193.513 279.952 194.51 279.644L194.534 279.62ZM258.363 232.444L165.859 165.59L256.275 234.72C256.963 233.937 257.651 233.179 258.363 232.444ZM283.359 170.83L165.859 165.59L282.765 173.959C283.003 172.939 283.216 171.896 283.359 170.83ZM218.366 266.605L165.859 165.59L215.541 267.814C216.491 267.388 217.44 266.985 218.366 266.582V266.605ZM250.079 242.804L165.835 165.59L248.417 245.483C248.916 244.605 249.486 243.705 250.079 242.804ZM206.521 272.698L165.859 165.59L203.886 274.524C204.693 273.907 205.595 273.291 206.521 272.698ZM242.602 254.515L165.859 165.614L240.323 256.743C241.13 256.032 241.89 255.297 242.602 254.515ZM231.493 262.409L165.859 165.59L228.431 263.476C229.451 263.192 230.472 262.836 231.493 262.409ZM178.582 280.664C179.342 280.853 180.149 280.996 180.98 281.09L165.859 165.59L177.751 280.474C178.036 280.545 178.321 280.592 178.606 280.664H178.582ZM228.644 68.2735C228.478 68.2498 228.312 68.1787 228.122 68.155L165.835 165.59L231.279 69.0558C230.377 68.724 229.499 68.4632 228.62 68.2735H228.644ZM248.726 85.4136L165.859 165.614L250.293 88.211C249.723 87.2627 249.201 86.3145 248.726 85.4136ZM240.323 74.4373L165.835 165.59L242.673 76.5709C241.937 75.836 241.13 75.1011 240.323 74.4373ZM215.541 63.3662L165.859 165.59L218.318 64.6701C217.393 64.2434 216.467 63.8166 215.541 63.3662ZM204.361 56.3964C204.361 56.3964 204.147 56.2304 204.052 56.1593L165.859 165.59L206.663 58.127C205.833 57.5343 205.073 56.9653 204.385 56.3727L204.361 56.3964ZM191.448 50.7541L165.859 165.59L194.557 51.489C193.537 51.2046 192.492 50.9438 191.472 50.7541H191.448ZM265.864 106.133L165.835 165.614L268.072 108.504C267.36 107.651 266.624 106.845 265.864 106.133ZM256.203 96.5084L165.859 165.59L258.221 98.8554C257.556 98.0968 256.868 97.3145 256.227 96.5084H256.203ZM282.433 157.245L165.835 165.614L283.145 160.375C282.955 159.284 282.718 158.241 282.409 157.245H282.433ZM275.454 131.215L165.835 165.59L275.763 134.345C275.62 133.278 275.526 132.211 275.454 131.215ZM277.733 144.325L165.859 165.614L278.611 147.312C278.303 146.34 278.018 145.345 277.757 144.349L277.733 144.325ZM273.342 117.584L165.859 165.59L274.362 120.595C274.078 119.575 273.745 118.58 273.342 117.584ZM180.149 50.7067C179.389 50.8964 178.558 51.0386 177.68 51.1809L165.835 165.59L180.885 50.5408C180.624 50.5882 180.362 50.6356 180.125 50.683L180.149 50.7067ZM63.4084 108.362L165.859 165.59L65.4735 105.896C64.7614 106.655 64.0493 107.461 63.3846 108.338L63.4084 108.362ZM48.3589 160.351L165.859 165.59L48.9523 157.198C48.6912 158.217 48.5013 159.261 48.3589 160.327V160.351ZM73.3543 98.7369L165.859 165.59L75.4432 96.461C74.7548 97.2434 74.0427 98.002 73.3543 98.7369ZM57.569 120.689L165.859 165.59L58.471 117.608C58.1149 118.627 57.8064 119.646 57.569 120.666V120.689ZM52.869 147.241L165.859 165.59L53.8422 144.278C53.5336 145.297 53.2013 146.293 52.869 147.241ZM81.6149 88.4007L165.835 165.614L83.2766 85.7218C82.7781 86.5989 82.2084 87.4998 81.6149 88.4007ZM56.1447 134.416L165.859 165.59L56.572 131.31C56.4533 132.306 56.3109 133.349 56.1447 134.392V134.416ZM100.225 68.7714L165.859 165.59L103.287 67.7046C102.266 67.989 101.246 68.3446 100.225 68.7714ZM137.184 51.5839L165.859 165.59L140.27 50.7304C139.226 50.9675 138.205 51.252 137.208 51.5602L137.184 51.5839ZM89.116 76.6895L165.859 165.59L91.3947 74.461C90.5877 75.1722 89.8281 75.9071 89.116 76.6895ZM153.112 50.5171C152.352 50.3274 151.545 50.1852 150.738 50.0903L165.859 165.59L153.966 50.7067C153.682 50.6356 153.397 50.5882 153.112 50.5171ZM125.173 58.4826L165.835 165.59L127.808 56.6571C127.001 57.2735 126.099 57.8899 125.173 58.4826ZM164.316 51.9158L165.859 165.59L167.402 51.9632C166.381 51.9632 165.337 51.9632 164.316 51.9158ZM113.328 64.5752L165.835 165.59L116.153 63.3425C115.203 63.7692 114.254 64.1722 113.328 64.5752Z" fill="url(#paint6_radial_3808_258)"/>
<path d="M258 242.09C275 220.59 288.674 208.171 291 184.09H40C45 208.09 47 215.09 64.5 242.09H258Z" fill="url(#paint7_linear_3808_258)"/>
<path d="M75.3268 220.09L70.3822 217.003L65.4143 220.09L66.6738 214.209L62.3589 210.215L68.0965 209.652L70.3589 204.09L72.6446 209.652L78.3589 210.191L74.044 214.185L75.3268 220.09Z" fill="url(#paint8_linear_3808_258)"/>
<path d="M74.3035 219.09L69.3589 216.191L64.4143 219.09L65.6738 213.568L61.3589 209.818L67.0965 209.289L69.3589 204.09L71.6446 209.289L77.3589 209.795L73.044 213.568L74.3035 219.09Z" fill="url(#paint9_radial_3808_258)"/>
<path d="M264.968 220.09L260.023 217.003L255.055 220.09L256.315 214.209L252 210.215L257.738 209.652L260 204.09L262.286 209.652L268 210.191L263.685 214.185L264.968 220.09Z" fill="url(#paint10_linear_3808_258)"/>
<path d="M263.945 219.09L259 216.191L254.055 219.09L255.315 213.568L251 209.818L256.738 209.289L259 204.09L261.286 209.289L267 209.795L262.685 213.568L263.945 219.09Z" fill="url(#paint11_radial_3808_258)"/>
<mask id="path-13-outside-1_3808_258" maskUnits="userSpaceOnUse" x="85.3589" y="199.09" width="161" height="25" fill="black">
<rect fill="white" x="85.3589" y="199.09" width="161" height="25"/>
<path d="M101.14 218.926V222.09H89.8022V218.926H101.14ZM91.0327 200.762V222.09H87.0044V200.762H91.0327ZM99.6606 209.565V212.656H89.8022V209.565H99.6606ZM101.096 200.762V203.94H89.8022V200.762H101.096ZM107.146 200.762L111.409 208.364L115.686 200.762H120.315L113.987 211.338L120.476 222.09H115.803L111.409 214.341L107.029 222.09H102.341L108.831 211.338L102.502 200.762H107.146ZM135.051 215.073H139.08C138.972 216.499 138.577 217.764 137.893 218.867C137.209 219.961 136.257 220.82 135.037 221.445C133.816 222.07 132.336 222.383 130.598 222.383C129.26 222.383 128.054 222.148 126.98 221.68C125.916 221.201 125.002 220.522 124.241 219.644C123.489 218.755 122.913 217.69 122.512 216.45C122.112 215.2 121.912 213.799 121.912 212.246V210.62C121.912 209.067 122.117 207.666 122.527 206.416C122.937 205.166 123.523 204.102 124.285 203.223C125.056 202.334 125.979 201.65 127.053 201.172C128.137 200.693 129.348 200.454 130.686 200.454C132.424 200.454 133.894 200.776 135.095 201.421C136.296 202.056 137.229 202.93 137.893 204.043C138.557 205.156 138.958 206.436 139.094 207.881H135.066C134.988 206.982 134.792 206.221 134.48 205.596C134.177 204.971 133.718 204.497 133.103 204.175C132.498 203.843 131.692 203.677 130.686 203.677C129.905 203.677 129.216 203.823 128.621 204.116C128.035 204.409 127.546 204.849 127.156 205.435C126.765 206.011 126.472 206.733 126.277 207.603C126.082 208.462 125.984 209.458 125.984 210.591V212.246C125.984 213.33 126.072 214.302 126.248 215.161C126.423 216.021 126.697 216.748 127.068 217.344C127.439 217.939 127.917 218.394 128.503 218.706C129.089 219.019 129.788 219.175 130.598 219.175C131.584 219.175 132.385 219.019 133 218.706C133.625 218.394 134.099 217.935 134.421 217.329C134.753 216.724 134.963 215.972 135.051 215.073ZM156.335 218.926V222.09H144.998V218.926H156.335ZM146.228 200.762V222.09H142.2V200.762H146.228ZM154.856 209.565V212.656H144.998V209.565H154.856ZM156.292 200.762V203.94H144.998V200.762H156.292ZM172.668 218.926V222.09H161.946V218.926H172.668ZM163.162 200.762V222.09H159.133V200.762H163.162ZM188.899 218.926V222.09H178.176V218.926H188.899ZM179.392 200.762V222.09H175.364V200.762H179.392ZM205.73 218.926V222.09H194.392V218.926H205.73ZM195.623 200.762V222.09H191.594V200.762H195.623ZM204.25 209.565V212.656H194.392V209.565H204.25ZM205.686 200.762V203.94H194.392V200.762H205.686ZM225.667 200.762V222.09H221.624L212.556 207.295V222.09H208.528V200.762H212.556L221.653 215.571V200.762H225.667ZM238.484 200.762V222.09H234.47V200.762H238.484ZM245.105 200.762V203.94H227.922V200.762H245.105Z"/>
</mask>
<path d="M101.14 218.926V222.09H89.8022V218.926H101.14ZM91.0327 200.762V222.09H87.0044V200.762H91.0327ZM99.6606 209.565V212.656H89.8022V209.565H99.6606ZM101.096 200.762V203.94H89.8022V200.762H101.096ZM107.146 200.762L111.409 208.364L115.686 200.762H120.315L113.987 211.338L120.476 222.09H115.803L111.409 214.341L107.029 222.09H102.341L108.831 211.338L102.502 200.762H107.146ZM135.051 215.073H139.08C138.972 216.499 138.577 217.764 137.893 218.867C137.209 219.961 136.257 220.82 135.037 221.445C133.816 222.07 132.336 222.383 130.598 222.383C129.26 222.383 128.054 222.148 126.98 221.68C125.916 221.201 125.002 220.522 124.241 219.644C123.489 218.755 122.913 217.69 122.512 216.45C122.112 215.2 121.912 213.799 121.912 212.246V210.62C121.912 209.067 122.117 207.666 122.527 206.416C122.937 205.166 123.523 204.102 124.285 203.223C125.056 202.334 125.979 201.65 127.053 201.172C128.137 200.693 129.348 200.454 130.686 200.454C132.424 200.454 133.894 200.776 135.095 201.421C136.296 202.056 137.229 202.93 137.893 204.043C138.557 205.156 138.958 206.436 139.094 207.881H135.066C134.988 206.982 134.792 206.221 134.48 205.596C134.177 204.971 133.718 204.497 133.103 204.175C132.498 203.843 131.692 203.677 130.686 203.677C129.905 203.677 129.216 203.823 128.621 204.116C128.035 204.409 127.546 204.849 127.156 205.435C126.765 206.011 126.472 206.733 126.277 207.603C126.082 208.462 125.984 209.458 125.984 210.591V212.246C125.984 213.33 126.072 214.302 126.248 215.161C126.423 216.021 126.697 216.748 127.068 217.344C127.439 217.939 127.917 218.394 128.503 218.706C129.089 219.019 129.788 219.175 130.598 219.175C131.584 219.175 132.385 219.019 133 218.706C133.625 218.394 134.099 217.935 134.421 217.329C134.753 216.724 134.963 215.972 135.051 215.073ZM156.335 218.926V222.09H144.998V218.926H156.335ZM146.228 200.762V222.09H142.2V200.762H146.228ZM154.856 209.565V212.656H144.998V209.565H154.856ZM156.292 200.762V203.94H144.998V200.762H156.292ZM172.668 218.926V222.09H161.946V218.926H172.668ZM163.162 200.762V222.09H159.133V200.762H163.162ZM188.899 218.926V222.09H178.176V218.926H188.899ZM179.392 200.762V222.09H175.364V200.762H179.392ZM205.73 218.926V222.09H194.392V218.926H205.73ZM195.623 200.762V222.09H191.594V200.762H195.623ZM204.25 209.565V212.656H194.392V209.565H204.25ZM205.686 200.762V203.94H194.392V200.762H205.686ZM225.667 200.762V222.09H221.624L212.556 207.295V222.09H208.528V200.762H212.556L221.653 215.571V200.762H225.667ZM238.484 200.762V222.09H234.47V200.762H238.484ZM245.105 200.762V203.94H227.922V200.762H245.105Z" fill="#3B0501"/>
<path d="M101.14 218.926H102.14V217.926H101.14V218.926ZM101.14 222.09V223.09H102.14V222.09H101.14ZM89.8022 222.09H88.8022V223.09H89.8022V222.09ZM89.8022 218.926V217.926H88.8022V218.926H89.8022ZM91.0327 200.762H92.0327V199.762H91.0327V200.762ZM91.0327 222.09V223.09H92.0327V222.09H91.0327ZM87.0044 222.09H86.0044V223.09H87.0044V222.09ZM87.0044 200.762V199.762H86.0044V200.762H87.0044ZM99.6606 209.565H100.661V208.565H99.6606V209.565ZM99.6606 212.656V213.656H100.661V212.656H99.6606ZM89.8022 212.656H88.8022V213.656H89.8022V212.656ZM89.8022 209.565V208.565H88.8022V209.565H89.8022ZM101.096 200.762H102.096V199.762H101.096V200.762ZM101.096 203.94V204.94H102.096V203.94H101.096ZM89.8022 203.94H88.8022V204.94H89.8022V203.94ZM89.8022 200.762V199.762H88.8022V200.762H89.8022ZM100.14 218.926V222.09H102.14V218.926H100.14ZM101.14 221.09H89.8022V223.09H101.14V221.09ZM90.8022 222.09V218.926H88.8022V222.09H90.8022ZM89.8022 219.926H101.14V217.926H89.8022V219.926ZM90.0327 200.762V222.09H92.0327V200.762H90.0327ZM91.0327 221.09H87.0044V223.09H91.0327V221.09ZM88.0044 222.09V200.762H86.0044V222.09H88.0044ZM87.0044 201.762H91.0327V199.762H87.0044V201.762ZM98.6606 209.565V212.656H100.661V209.565H98.6606ZM99.6606 211.656H89.8022V213.656H99.6606V211.656ZM90.8022 212.656V209.565H88.8022V212.656H90.8022ZM89.8022 210.565H99.6606V208.565H89.8022V210.565ZM100.096 200.762V203.94H102.096V200.762H100.096ZM101.096 202.94H89.8022V204.94H101.096V202.94ZM90.8022 203.94V200.762H88.8022V203.94H90.8022ZM89.8022 201.762H101.096V199.762H89.8022V201.762ZM107.146 200.762L108.018 200.273L107.732 199.762H107.146V200.762ZM111.409 208.364L110.536 208.853L111.407 210.406L112.28 208.855L111.409 208.364ZM115.686 200.762V199.762H115.101L114.815 200.271L115.686 200.762ZM120.315 200.762L121.173 201.275L122.079 199.762H120.315V200.762ZM113.987 211.338L113.129 210.824L112.82 211.34L113.131 211.855L113.987 211.338ZM120.476 222.09V223.09H122.248L121.332 221.573L120.476 222.09ZM115.803 222.09L114.933 222.583L115.221 223.09H115.803V222.09ZM111.409 214.341L112.279 213.848L111.407 212.311L110.538 213.849L111.409 214.341ZM107.029 222.09V223.09H107.612L107.899 222.582L107.029 222.09ZM102.341 222.09L101.485 221.573L100.57 223.09H102.341V222.09ZM108.831 211.338L109.687 211.855L109.997 211.34L109.689 210.824L108.831 211.338ZM102.502 200.762V199.762H100.739L101.644 201.275L102.502 200.762ZM106.274 201.251L110.536 208.853L112.281 207.875L108.018 200.273L106.274 201.251ZM112.28 208.855L116.558 201.252L114.815 200.271L110.537 207.874L112.28 208.855ZM115.686 201.762H120.315V199.762H115.686V201.762ZM119.457 200.248L113.129 210.824L114.845 211.851L121.173 201.275L119.457 200.248ZM113.131 211.855L119.62 222.607L121.332 221.573L114.843 210.821L113.131 211.855ZM120.476 221.09H115.803V223.09H120.476V221.09ZM116.673 221.597L112.279 213.848L110.539 214.834L114.933 222.583L116.673 221.597ZM110.538 213.849L106.158 221.598L107.899 222.582L112.279 214.833L110.538 213.849ZM107.029 221.09H102.341V223.09H107.029V221.09ZM103.197 222.607L109.687 211.855L107.974 210.821L101.485 221.573L103.197 222.607ZM109.689 210.824L103.361 200.248L101.644 201.275L107.972 211.851L109.689 210.824ZM102.502 201.762H107.146V199.762H102.502V201.762ZM135.051 215.073V214.073H134.144L134.056 214.976L135.051 215.073ZM139.08 215.073L140.077 215.148L140.158 214.073H139.08V215.073ZM137.893 218.867L138.741 219.397L138.743 219.394L137.893 218.867ZM126.98 221.68L126.57 222.592L126.58 222.596L126.98 221.68ZM124.241 219.644L123.477 220.29L123.485 220.298L124.241 219.644ZM122.512 216.45L121.56 216.755L121.561 216.757L122.512 216.45ZM124.285 203.223L123.53 202.567L123.529 202.568L124.285 203.223ZM127.053 201.172L126.649 200.257L126.646 200.258L127.053 201.172ZM135.095 201.421L134.622 202.302L134.628 202.305L135.095 201.421ZM139.094 207.881V208.881H140.193L140.09 207.787L139.094 207.881ZM135.066 207.881L134.07 207.967L134.149 208.881H135.066V207.881ZM134.48 205.596L133.58 206.032L133.586 206.043L134.48 205.596ZM133.103 204.175L132.622 205.052L132.631 205.056L132.639 205.061L133.103 204.175ZM128.621 204.116L128.179 203.219L128.173 203.222L128.621 204.116ZM127.156 205.435L127.983 205.996L127.988 205.989L127.156 205.435ZM126.277 207.603L127.252 207.824L127.253 207.822L126.277 207.603ZM133 218.706L132.553 217.812L132.548 217.814L133 218.706ZM134.421 217.329L133.545 216.848L133.539 216.859L134.421 217.329ZM135.051 216.073H139.08V214.073H135.051V216.073ZM138.082 214.998C137.986 216.28 137.634 217.387 137.043 218.341L138.743 219.394C139.52 218.14 139.959 216.718 140.077 215.148L138.082 214.998ZM137.045 218.337C136.463 219.268 135.651 220.007 134.581 220.555L135.492 222.335C136.863 221.633 137.956 220.654 138.741 219.397L137.045 218.337ZM134.581 220.555C133.534 221.091 132.219 221.383 130.598 221.383V223.383C132.454 223.383 134.098 223.049 135.492 222.335L134.581 220.555ZM130.598 221.383C129.378 221.383 128.311 221.17 127.38 220.763L126.58 222.596C127.797 223.127 129.142 223.383 130.598 223.383V221.383ZM127.39 220.768C126.458 220.348 125.663 219.757 124.996 218.989L123.485 220.298C124.342 221.288 125.373 222.054 126.57 222.592L127.39 220.768ZM125.004 218.998C124.346 218.22 123.829 217.274 123.464 216.143L121.561 216.757C121.996 218.107 122.632 219.29 123.477 220.289L125.004 218.998ZM123.465 216.145C123.101 215.01 122.912 213.714 122.912 212.246H120.912C120.912 213.884 121.123 215.391 121.56 216.755L123.465 216.145ZM122.912 212.246V210.62H120.912V212.246H122.912ZM122.912 210.62C122.912 209.155 123.105 207.861 123.477 206.728L121.577 206.104C121.128 207.471 120.912 208.98 120.912 210.62H122.912ZM123.477 206.728C123.851 205.587 124.376 204.644 125.04 203.878L123.529 202.568C122.67 203.559 122.023 204.745 121.577 206.104L123.477 206.728ZM125.04 203.878C125.716 203.1 126.52 202.504 127.46 202.085L126.646 200.258C125.438 200.796 124.397 201.568 123.53 202.567L125.04 203.878ZM127.457 202.087C128.398 201.671 129.469 201.454 130.686 201.454V199.454C129.227 199.454 127.876 199.716 126.649 200.257L127.457 202.087ZM130.686 201.454C132.304 201.454 133.601 201.754 134.622 202.302L135.568 200.54C134.187 199.799 132.545 199.454 130.686 199.454V201.454ZM134.628 202.305C135.675 202.858 136.469 203.607 137.034 204.555L138.752 203.531C137.989 202.252 136.918 201.253 135.562 200.537L134.628 202.305ZM137.034 204.555C137.614 205.526 137.974 206.66 138.099 207.975L140.09 207.787C139.941 206.211 139.501 204.786 138.752 203.531L137.034 204.555ZM139.094 206.881H135.066V208.881H139.094V206.881ZM136.062 207.794C135.976 206.805 135.757 205.914 135.374 205.148L133.586 206.043C133.828 206.528 133.999 207.16 134.07 207.967L136.062 207.794ZM135.38 205.16C134.984 204.342 134.372 203.711 133.567 203.289L132.639 205.061C133.065 205.284 133.371 205.599 133.58 206.032L135.38 205.16ZM133.584 203.298C132.779 202.857 131.788 202.677 130.686 202.677V204.677C131.595 204.677 132.216 204.829 132.622 205.052L133.584 203.298ZM130.686 202.677C129.779 202.677 128.935 202.847 128.179 203.219L129.062 205.014C129.498 204.799 130.031 204.677 130.686 204.677V202.677ZM128.173 203.222C127.42 203.598 126.803 204.16 126.324 204.88L127.988 205.989C128.289 205.537 128.649 205.22 129.068 205.011L128.173 203.222ZM126.328 204.873C125.851 205.578 125.517 206.425 125.301 207.383L127.253 207.822C127.428 207.042 127.68 206.444 127.983 205.996L126.328 204.873ZM125.302 207.381C125.086 208.33 124.984 209.403 124.984 210.591H126.984C126.984 209.513 127.077 208.594 127.252 207.824L125.302 207.381ZM124.984 210.591V212.246H126.984V210.591H124.984ZM124.984 212.246C124.984 213.382 125.076 214.423 125.268 215.362L127.227 214.961C127.068 214.181 126.984 213.278 126.984 212.246H124.984ZM125.268 215.362C125.462 216.309 125.772 217.154 126.219 217.872L127.917 216.815C127.622 216.342 127.385 215.732 127.227 214.961L125.268 215.362ZM126.219 217.872C126.678 218.608 127.283 219.189 128.033 219.588L128.974 217.824C128.552 217.599 128.2 217.27 127.917 216.815L126.219 217.872ZM128.033 219.588C128.792 219.993 129.659 220.175 130.598 220.175V218.175C129.916 218.175 129.387 218.044 128.974 217.824L128.033 219.588ZM130.598 220.175C131.679 220.175 132.651 220.005 133.453 219.598L132.548 217.814C132.12 218.032 131.49 218.175 130.598 218.175V220.175ZM133.448 219.6C134.255 219.197 134.882 218.591 135.304 217.799L133.539 216.859C133.316 217.278 132.996 217.59 132.553 217.812L133.448 219.6ZM135.298 217.81C135.712 217.056 135.949 216.164 136.047 215.171L134.056 214.976C133.977 215.779 133.795 216.392 133.545 216.848L135.298 217.81ZM156.335 218.926H157.335V217.926H156.335V218.926ZM156.335 222.09V223.09H157.335V222.09H156.335ZM144.998 222.09H143.998V223.09H144.998V222.09ZM144.998 218.926V217.926H143.998V218.926H144.998ZM146.228 200.762H147.228V199.762H146.228V200.762ZM146.228 222.09V223.09H147.228V222.09H146.228ZM142.2 222.09H141.2V223.09H142.2V222.09ZM142.2 200.762V199.762H141.2V200.762H142.2ZM154.856 209.565H155.856V208.565H154.856V209.565ZM154.856 212.656V213.656H155.856V212.656H154.856ZM144.998 212.656H143.998V213.656H144.998V212.656ZM144.998 209.565V208.565H143.998V209.565H144.998ZM156.292 200.762H157.292V199.762H156.292V200.762ZM156.292 203.94V204.94H157.292V203.94H156.292ZM144.998 203.94H143.998V204.94H144.998V203.94ZM144.998 200.762V199.762H143.998V200.762H144.998ZM155.335 218.926V222.09H157.335V218.926H155.335ZM156.335 221.09H144.998V223.09H156.335V221.09ZM145.998 222.09V218.926H143.998V222.09H145.998ZM144.998 219.926H156.335V217.926H144.998V219.926ZM145.228 200.762V222.09H147.228V200.762H145.228ZM146.228 221.09H142.2V223.09H146.228V221.09ZM143.2 222.09V200.762H141.2V222.09H143.2ZM142.2 201.762H146.228V199.762H142.2V201.762ZM153.856 209.565V212.656H155.856V209.565H153.856ZM154.856 211.656H144.998V213.656H154.856V211.656ZM145.998 212.656V209.565H143.998V212.656H145.998ZM144.998 210.565H154.856V208.565H144.998V210.565ZM155.292 200.762V203.94H157.292V200.762H155.292ZM156.292 202.94H144.998V204.94H156.292V202.94ZM145.998 203.94V200.762H143.998V203.94H145.998ZM144.998 201.762H156.292V199.762H144.998V201.762ZM172.668 218.926H173.668V217.926H172.668V218.926ZM172.668 222.09V223.09H173.668V222.09H172.668ZM161.946 222.09H160.946V223.09H161.946V222.09ZM161.946 218.926V217.926H160.946V218.926H161.946ZM163.162 200.762H164.162V199.762H163.162V200.762ZM163.162 222.09V223.09H164.162V222.09H163.162ZM159.133 222.09H158.133V223.09H159.133V222.09ZM159.133 200.762V199.762H158.133V200.762H159.133ZM171.668 218.926V222.09H173.668V218.926H171.668ZM172.668 221.09H161.946V223.09H172.668V221.09ZM162.946 222.09V218.926H160.946V222.09H162.946ZM161.946 219.926H172.668V217.926H161.946V219.926ZM162.162 200.762V222.09H164.162V200.762H162.162ZM163.162 221.09H159.133V223.09H163.162V221.09ZM160.133 222.09V200.762H158.133V222.09H160.133ZM159.133 201.762H163.162V199.762H159.133V201.762ZM188.899 218.926H189.899V217.926H188.899V218.926ZM188.899 222.09V223.09H189.899V222.09H188.899ZM178.176 222.09H177.176V223.09H178.176V222.09ZM178.176 218.926V217.926H177.176V218.926H178.176ZM179.392 200.762H180.392V199.762H179.392V200.762ZM179.392 222.09V223.09H180.392V222.09H179.392ZM175.364 222.09H174.364V223.09H175.364V222.09ZM175.364 200.762V199.762H174.364V200.762H175.364ZM187.899 218.926V222.09H189.899V218.926H187.899ZM188.899 221.09H178.176V223.09H188.899V221.09ZM179.176 222.09V218.926H177.176V222.09H179.176ZM178.176 219.926H188.899V217.926H178.176V219.926ZM178.392 200.762V222.09H180.392V200.762H178.392ZM179.392 221.09H175.364V223.09H179.392V221.09ZM176.364 222.09V200.762H174.364V222.09H176.364ZM175.364 201.762H179.392V199.762H175.364V201.762ZM205.73 218.926H206.73V217.926H205.73V218.926ZM205.73 222.09V223.09H206.73V222.09H205.73ZM194.392 222.09H193.392V223.09H194.392V222.09ZM194.392 218.926V217.926H193.392V218.926H194.392ZM195.623 200.762H196.623V199.762H195.623V200.762ZM195.623 222.09V223.09H196.623V222.09H195.623ZM191.594 222.09H190.594V223.09H191.594V222.09ZM191.594 200.762V199.762H190.594V200.762H191.594ZM204.25 209.565H205.25V208.565H204.25V209.565ZM204.25 212.656V213.656H205.25V212.656H204.25ZM194.392 212.656H193.392V213.656H194.392V212.656ZM194.392 209.565V208.565H193.392V209.565H194.392ZM205.686 200.762H206.686V199.762H205.686V200.762ZM205.686 203.94V204.94H206.686V203.94H205.686ZM194.392 203.94H193.392V204.94H194.392V203.94ZM194.392 200.762V199.762H193.392V200.762H194.392ZM204.73 218.926V222.09H206.73V218.926H204.73ZM205.73 221.09H194.392V223.09H205.73V221.09ZM195.392 222.09V218.926H193.392V222.09H195.392ZM194.392 219.926H205.73V217.926H194.392V219.926ZM194.623 200.762V222.09H196.623V200.762H194.623ZM195.623 221.09H191.594V223.09H195.623V221.09ZM192.594 222.09V200.762H190.594V222.09H192.594ZM191.594 201.762H195.623V199.762H191.594V201.762ZM203.25 209.565V212.656H205.25V209.565H203.25ZM204.25 211.656H194.392V213.656H204.25V211.656ZM195.392 212.656V209.565H193.392V212.656H195.392ZM194.392 210.565H204.25V208.565H194.392V210.565ZM204.686 200.762V203.94H206.686V200.762H204.686ZM205.686 202.94H194.392V204.94H205.686V202.94ZM195.392 203.94V200.762H193.392V203.94H195.392ZM194.392 201.762H205.686V199.762H194.392V201.762ZM225.667 200.762H226.667V199.762H225.667V200.762ZM225.667 222.09V223.09H226.667V222.09H225.667ZM221.624 222.09L220.771 222.612L221.064 223.09H221.624V222.09ZM212.556 207.295L213.409 206.772L211.556 203.75V207.295H212.556ZM212.556 222.09V223.09H213.556V222.09H212.556ZM208.528 222.09H207.528V223.09H208.528V222.09ZM208.528 200.762V199.762H207.528V200.762H208.528ZM212.556 200.762L213.408 200.238L213.115 199.762H212.556V200.762ZM221.653 215.571L220.801 216.095L222.653 219.11V215.571H221.653ZM221.653 200.762V199.762H220.653V200.762H221.653ZM224.667 200.762V222.09H226.667V200.762H224.667ZM225.667 221.09H221.624V223.09H225.667V221.09ZM222.476 221.567L213.409 206.772L211.704 207.817L220.771 222.612L222.476 221.567ZM211.556 207.295V222.09H213.556V207.295H211.556ZM212.556 221.09H208.528V223.09H212.556V221.09ZM209.528 222.09V200.762H207.528V222.09H209.528ZM208.528 201.762H212.556V199.762H208.528V201.762ZM211.704 201.285L220.801 216.095L222.505 215.048L213.408 200.238L211.704 201.285ZM222.653 215.571V200.762H220.653V215.571H222.653ZM221.653 201.762H225.667V199.762H221.653V201.762ZM238.484 200.762H239.484V199.762H238.484V200.762ZM238.484 222.09V223.09H239.484V222.09H238.484ZM234.47 222.09H233.47V223.09H234.47V222.09ZM234.47 200.762V199.762H233.47V200.762H234.47ZM245.105 200.762H246.105V199.762H245.105V200.762ZM245.105 203.94V204.94H246.105V203.94H245.105ZM227.922 203.94H226.922V204.94H227.922V203.94ZM227.922 200.762V199.762H226.922V200.762H227.922ZM237.484 200.762V222.09H239.484V200.762H237.484ZM238.484 221.09H234.47V223.09H238.484V221.09ZM235.47 222.09V200.762H233.47V222.09H235.47ZM234.47 201.762H238.484V199.762H234.47V201.762ZM244.105 200.762V203.94H246.105V200.762H244.105ZM245.105 202.94H227.922V204.94H245.105V202.94ZM228.922 203.94V200.762H226.922V203.94H228.922ZM227.922 201.762H245.105V199.762H227.922V201.762Z" fill="white" fill-opacity="0.11" mask="url(#path-13-outside-1_3808_258)"/>
<g filter="url(#filter0_d_3808_258)">
<path d="M88.0608 135.659C88.3808 134.784 89.6192 134.784 89.9392 135.659L92.8012 143.489C92.9454 143.883 93.3205 144.146 93.7404 144.146H102.727C103.724 144.146 104.107 145.445 103.27 145.986L96.2098 150.545C95.8174 150.799 95.6527 151.29 95.8131 151.728L98.556 159.232C98.8854 160.133 97.8801 160.936 97.0743 160.416L89.5425 155.552C89.2123 155.338 88.7877 155.338 88.4575 155.552L80.9257 160.416C80.1199 160.936 79.1146 160.133 79.444 159.232L82.1869 151.728C82.3473 151.29 82.1826 150.799 81.7902 150.545L74.7302 145.986C73.8927 145.445 74.2757 144.146 75.2727 144.146H84.2596C84.6795 144.146 85.0546 143.883 85.1988 143.489L88.0608 135.659Z" fill="#FFB200"/>
<path d="M88.5304 135.831C88.6904 135.393 89.3096 135.393 89.4696 135.831L92.3316 143.661C92.5478 144.252 93.1106 144.646 93.7404 144.646H102.727C103.226 144.646 103.417 145.295 102.999 145.566L95.9385 150.125C95.35 150.505 95.1029 151.242 95.3435 151.9L98.0864 159.404C98.2511 159.855 97.7485 160.256 97.3455 159.996L89.8138 155.132C89.3184 154.812 88.6816 154.812 88.1862 155.132L80.6545 159.996C80.2515 160.256 79.7489 159.855 79.9136 159.404L82.6565 151.9C82.8971 151.242 82.65 150.505 82.0615 150.125L75.0014 145.566C74.5827 145.295 74.7742 144.646 75.2727 144.646H84.2596C84.8894 144.646 85.4522 144.252 85.6684 143.661L88.5304 135.831Z" stroke="white"/>
</g>
<g filter="url(#filter1_d_3808_258)">
<path d="M242.558 135.741C242.873 134.854 244.127 134.854 244.442 135.741L247.193 143.48C247.334 143.879 247.712 144.146 248.135 144.146H256.831C257.821 144.146 258.209 145.431 257.384 145.979L250.508 150.546C250.125 150.8 249.965 151.282 250.119 151.714L252.781 159.205C253.103 160.111 252.086 160.905 251.285 160.373L244.053 155.569C243.718 155.346 243.282 155.346 242.947 155.569L235.715 160.373C234.914 160.905 233.897 160.111 234.219 159.205L236.881 151.714C237.035 151.282 236.875 150.8 236.492 150.546L229.616 145.979C228.791 145.431 229.179 144.146 230.169 144.146H238.865C239.288 144.146 239.666 143.879 239.807 143.48L242.558 135.741Z" fill="#FFB200"/>
<path d="M243.029 135.909C243.186 135.465 243.814 135.465 243.971 135.909L246.721 143.648C246.934 144.246 247.5 144.646 248.135 144.646H256.831C257.326 144.646 257.52 145.288 257.107 145.562L250.231 150.13C249.658 150.511 249.417 151.233 249.648 151.882L252.31 159.372C252.471 159.825 251.962 160.222 251.562 159.956L244.33 155.152C243.827 154.818 243.173 154.818 242.67 155.152L235.438 159.956C235.038 160.222 234.529 159.825 234.69 159.372L237.352 151.882C237.583 151.233 237.342 150.511 236.769 150.13L229.893 145.562C229.48 145.288 229.674 144.646 230.169 144.646H238.865C239.5 144.646 240.066 144.246 240.279 143.648L243.029 135.909Z" stroke="white"/>
</g>
<g filter="url(#filter2_d_3808_258)">
<path d="M109.558 97.7413C109.873 96.8544 111.127 96.8544 111.442 97.7413L114.193 105.48C114.334 105.879 114.712 106.146 115.135 106.146H123.831C124.821 106.146 125.209 107.431 124.384 107.979L117.508 112.546C117.125 112.8 116.965 113.282 117.119 113.714L119.781 121.205C120.103 122.111 119.086 122.905 118.285 122.373L111.053 117.569C110.718 117.346 110.282 117.346 109.947 117.569L102.715 122.373C101.914 122.905 100.897 122.111 101.219 121.205L103.881 113.714C104.035 113.282 103.875 112.8 103.492 112.546L96.6159 107.979C95.791 107.431 96.1789 106.146 97.1692 106.146H105.865C106.288 106.146 106.666 105.879 106.807 105.48L109.558 97.7413Z" fill="#FFB200"/>
<path d="M110.029 97.9087C110.186 97.4653 110.814 97.4653 110.971 97.9087L113.721 105.648C113.934 106.246 114.5 106.646 115.135 106.646H123.831C124.326 106.646 124.52 107.288 124.107 107.562L117.231 112.13C116.658 112.511 116.417 113.233 116.648 113.882L119.31 121.372C119.471 121.825 118.962 122.222 118.562 121.956L111.33 117.152C110.827 116.818 110.173 116.818 109.67 117.152L102.438 121.956C102.038 122.222 101.529 121.825 101.69 121.372L104.352 113.882C104.583 113.233 104.342 112.511 103.769 112.13L96.8926 107.562C96.4801 107.288 96.6741 106.646 97.1692 106.646H105.865C106.5 106.646 107.066 106.246 107.279 105.648L110.029 97.9087Z" stroke="white"/>
</g>
<g filter="url(#filter3_d_3808_258)">
<path d="M220.558 97.7413C220.873 96.8544 222.127 96.8544 222.442 97.7413L225.193 105.48C225.334 105.879 225.712 106.146 226.135 106.146H234.831C235.821 106.146 236.209 107.431 235.384 107.979L228.508 112.546C228.125 112.8 227.965 113.282 228.119 113.714L230.781 121.205C231.103 122.111 230.086 122.905 229.285 122.373L222.053 117.569C221.718 117.346 221.282 117.346 220.947 117.569L213.715 122.373C212.914 122.905 211.897 122.111 212.219 121.205L214.881 113.714C215.035 113.282 214.875 112.8 214.492 112.546L207.616 107.979C206.791 107.431 207.179 106.146 208.169 106.146H216.865C217.288 106.146 217.666 105.879 217.807 105.48L220.558 97.7413Z" fill="#FFB200"/>
<path d="M221.029 97.9087C221.186 97.4653 221.814 97.4653 221.971 97.9087L224.721 105.648C224.934 106.246 225.5 106.646 226.135 106.646H234.831C235.326 106.646 235.52 107.288 235.107 107.562L228.231 112.13C227.658 112.511 227.417 113.233 227.648 113.882L230.31 121.372C230.471 121.825 229.962 122.222 229.562 121.956L222.33 117.152C221.827 116.818 221.173 116.818 220.67 117.152L213.438 121.956C213.038 122.222 212.529 121.825 212.69 121.372L215.352 113.882C215.583 113.233 215.342 112.511 214.769 112.13L207.893 107.562C207.48 107.288 207.674 106.646 208.169 106.646H216.865C217.5 106.646 218.066 106.246 218.279 105.648L221.029 97.9087Z" stroke="white"/>
</g>
<g filter="url(#filter4_d_3808_258)">
<path d="M160.558 77.7413C160.873 76.8544 162.127 76.8544 162.442 77.7413L165.193 85.4804C165.334 85.8792 165.712 86.1456 166.135 86.1456H174.831C175.821 86.1456 176.209 87.4306 175.384 87.9785L168.508 92.5463C168.125 92.8002 167.965 93.2818 168.119 93.7142L170.781 101.205C171.103 102.111 170.086 102.905 169.285 102.373L162.053 97.5688C161.718 97.3461 161.282 97.3461 160.947 97.5688L153.715 102.373C152.914 102.905 151.897 102.111 152.219 101.205L154.881 93.7142C155.035 93.2818 154.875 92.8002 154.492 92.5463L147.616 87.9785C146.791 87.4306 147.179 86.1456 148.169 86.1456H156.865C157.288 86.1456 157.666 85.8792 157.807 85.4804L160.558 77.7413Z" fill="#FFB200"/>
<path d="M161.029 77.9087C161.186 77.4653 161.814 77.4653 161.971 77.9087L164.721 85.6479C164.934 86.246 165.5 86.6456 166.135 86.6456H174.831C175.326 86.6456 175.52 87.2881 175.107 87.5621L168.231 92.1298C167.658 92.5107 167.417 93.233 167.648 93.8816L170.31 101.372C170.471 101.825 169.962 102.222 169.562 101.956L162.33 97.1524C161.827 96.8183 161.173 96.8183 160.67 97.1524L153.438 101.956C153.038 102.222 152.529 101.825 152.69 101.372L155.352 93.8816C155.583 93.233 155.342 92.5107 154.769 92.1298L147.893 87.5621C147.48 87.2881 147.674 86.6456 148.169 86.6456H156.865C157.5 86.6456 158.066 86.246 158.279 85.6479L161.029 77.9087Z" stroke="white"/>
</g>
<g filter="url(#filter5_d_3808_258)">
<path d="M148.417 175.34V169.507H160.083V160.465C157.701 159.93 155.575 158.921 153.703 157.439C151.832 155.956 150.458 154.097 149.583 151.861C145.938 151.423 142.887 149.831 140.432 147.085C137.977 144.338 136.75 141.118 136.75 137.423V134.507C136.75 132.902 137.321 131.529 138.464 130.387C139.606 129.244 140.979 128.673 142.583 128.673H148.417V122.84H177.583V128.673H183.417C185.021 128.673 186.394 129.244 187.536 130.387C188.679 131.529 189.25 132.902 189.25 134.507V137.423C189.25 141.118 188.023 144.338 185.568 147.085C183.113 149.831 180.063 151.423 176.417 151.861C175.542 154.097 174.168 155.956 172.297 157.439C170.425 158.921 168.299 159.93 165.917 160.465V169.507H177.583V175.34H148.417ZM148.417 145.59V134.507H142.583V137.423C142.583 139.27 143.118 140.935 144.188 142.418C145.257 143.901 146.667 144.958 148.417 145.59ZM163 154.923C165.431 154.923 167.497 154.072 169.198 152.371C170.899 150.67 171.75 148.604 171.75 146.173V128.673H154.25V146.173C154.25 148.604 155.101 150.67 156.802 152.371C158.503 154.072 160.569 154.923 163 154.923ZM177.583 145.59C179.333 144.958 180.743 143.901 181.812 142.418C182.882 140.935 183.417 139.27 183.417 137.423V134.507H177.583V145.59Z" fill="#FFC662" stroke="#7C260C"/>
</g>
<defs>
<filter id="filter0_d_3808_258" x="70.271" y="135.002" width="37.458" height="33.5776" filterUnits="userSpaceOnUse" color-interpolation-filters="sRGB">
<feFlood flood-opacity="0" result="BackgroundImageFix"/>
<feColorMatrix in="SourceAlpha" type="matrix" values="0 0 0 0 0 0 0 0 0 0 0 0 0 0 0 0 0 0 127 0" result="hardAlpha"/>
<feOffset dy="4"/>
<feGaussianBlur stdDeviation="2"/>
<feComposite in2="hardAlpha" operator="out"/>
<feColorMatrix type="matrix" values="0 0 0 0 0 0 0 0 0 0 0 0 0 0 0 0 0 0 0.25 0"/>
<feBlend mode="normal" in2="BackgroundImageFix" result="effect1_dropShadow_3808_258"/>
<feBlend mode="normal" in="SourceGraphic" in2="effect1_dropShadow_3808_258" result="shape"/>
</filter>
<filter id="filter1_d_3808_258" x="225.167" y="135.076" width="36.665" height="33.4683" filterUnits="userSpaceOnUse" color-interpolation-filters="sRGB">
<feFlood flood-opacity="0" result="BackgroundImageFix"/>
<feColorMatrix in="SourceAlpha" type="matrix" values="0 0 0 0 0 0 0 0 0 0 0 0 0 0 0 0 0 0 127 0" result="hardAlpha"/>
<feOffset dy="4"/>
<feGaussianBlur stdDeviation="2"/>
<feComposite in2="hardAlpha" operator="out"/>
<feColorMatrix type="matrix" values="0 0 0 0 0 0 0 0 0 0 0 0 0 0 0 0 0 0 0.25 0"/>
<feBlend mode="normal" in2="BackgroundImageFix" result="effect1_dropShadow_3808_258"/>
<feBlend mode="normal" in="SourceGraphic" in2="effect1_dropShadow_3808_258" result="shape"/>
</filter>
<filter id="filter2_d_3808_258" x="92.1675" y="97.0762" width="36.665" height="33.4683" filterUnits="userSpaceOnUse" color-interpolation-filters="sRGB">
<feFlood flood-opacity="0" result="BackgroundImageFix"/>
<feColorMatrix in="SourceAlpha" type="matrix" values="0 0 0 0 0 0 0 0 0 0 0 0 0 0 0 0 0 0 127 0" result="hardAlpha"/>
<feOffset dy="4"/>
<feGaussianBlur stdDeviation="2"/>
<feComposite in2="hardAlpha" operator="out"/>
<feColorMatrix type="matrix" values="0 0 0 0 0 0 0 0 0 0 0 0 0 0 0 0 0 0 0.25 0"/>
<feBlend mode="normal" in2="BackgroundImageFix" result="effect1_dropShadow_3808_258"/>
<feBlend mode="normal" in="SourceGraphic" in2="effect1_dropShadow_3808_258" result="shape"/>
</filter>
<filter id="filter3_d_3808_258" x="203.167" y="97.0762" width="36.665" height="33.4683" filterUnits="userSpaceOnUse" color-interpolation-filters="sRGB">
<feFlood flood-opacity="0" result="BackgroundImageFix"/>
<feColorMatrix in="SourceAlpha" type="matrix" values="0 0 0 0 0 0 0 0 0 0 0 0 0 0 0 0 0 0 127 0" result="hardAlpha"/>
<feOffset dy="4"/>
<feGaussianBlur stdDeviation="2"/>
<feComposite in2="hardAlpha" operator="out"/>
<feColorMatrix type="matrix" values="0 0 0 0 0 0 0 0 0 0 0 0 0 0 0 0 0 0 0.25 0"/>
<feBlend mode="normal" in2="BackgroundImageFix" result="effect1_dropShadow_3808_258"/>
<feBlend mode="normal" in="SourceGraphic" in2="effect1_dropShadow_3808_258" result="shape"/>
</filter>
<filter id="filter4_d_3808_258" x="143.167" y="77.0762" width="36.665" height="33.4683" filterUnits="userSpaceOnUse" color-interpolation-filters="sRGB">
<feFlood flood-opacity="0" result="BackgroundImageFix"/>
<feColorMatrix in="SourceAlpha" type="matrix" values="0 0 0 0 0 0 0 0 0 0 0 0 0 0 0 0 0 0 127 0" result="hardAlpha"/>
<feOffset dy="4"/>
<feGaussianBlur stdDeviation="2"/>
<feComposite in2="hardAlpha" operator="out"/>
<feColorMatrix type="matrix" values="0 0 0 0 0 0 0 0 0 0 0 0 0 0 0 0 0 0 0.25 0"/>
<feBlend mode="normal" in2="BackgroundImageFix" result="effect1_dropShadow_3808_258"/>
<feBlend mode="normal" in="SourceGraphic" in2="effect1_dropShadow_3808_258" result="shape"/>
</filter>
<filter id="filter5_d_3808_258" x="124" y="104.09" width="78" height="80" filterUnits="userSpaceOnUse" color-interpolation-filters="sRGB">
<feFlood flood-opacity="0" result="BackgroundImageFix"/>
<feColorMatrix in="SourceAlpha" type="matrix" values="0 0 0 0 0 0 0 0 0 0 0 0 0 0 0 0 0 0 127 0" result="hardAlpha"/>
<feOffset dy="-6"/>
<feGaussianBlur stdDeviation="2"/>
<feComposite in2="hardAlpha" operator="out"/>
<feColorMatrix type="matrix" values="0 0 0 0 0 0 0 0 0 0 0 0 0 0 0 0 0 0 0.25 0"/>
<feBlend mode="normal" in2="BackgroundImageFix" result="effect1_dropShadow_3808_258"/>
<feBlend mode="normal" in="SourceGraphic" in2="effect1_dropShadow_3808_258" result="shape"/>
</filter>
<linearGradient id="paint0_linear_3808_258" x1="259.385" y1="258.932" x2="71.7688" y2="71.3418" gradientUnits="userSpaceOnUse">
<stop stop-color="#EEBE47"/>
<stop offset="0.12" stop-color="#F8DB76"/>
<stop offset="0.21" stop-color="#FFEE96"/>
<stop offset="0.45" stop-color="#A2621E"/>
<stop offset="0.67" stop-color="#EEA54C"/>
<stop offset="1" stop-color="#EEBE47"/>
</linearGradient>
<linearGradient id="paint1_linear_3808_258" x1="73.489" y1="73.4731" x2="258.564" y2="258.545" gradientUnits="userSpaceOnUse">
<stop stop-color="#EEBE47"/>
<stop offset="0.12" stop-color="#F8DB76"/>
<stop offset="0.21" stop-color="#FFEE96"/>
<stop offset="0.45" stop-color="#A2621E"/>
<stop offset="0.67" stop-color="#EEA54C"/>
<stop offset="1" stop-color="#EEBE47"/>
</linearGradient>
<linearGradient id="paint2_linear_3808_258" x1="251.784" y1="78.7945" x2="81.3368" y2="248.514" gradientUnits="userSpaceOnUse">
<stop stop-color="#EEBE47"/>
<stop offset="0.12" stop-color="#F8DB76"/>
<stop offset="0.21" stop-color="#FFEE96"/>
<stop offset="0.45" stop-color="#A2621E"/>
<stop offset="0.67" stop-color="#EEA54C"/>
<stop offset="1" stop-color="#EEBE47"/>
</linearGradient>
<radialGradient id="paint3_radial_3808_258" cx="0" cy="0" r="1" gradientUnits="userSpaceOnUse" gradientTransform="translate(45.9688 5.18451) scale(295.866 295.784)">
<stop offset="0.1" stop-color="#930A0A"/>
<stop offset="0.36" stop-color="#650404"/>
<stop offset="0.56" stop-color="#450000"/>
<stop offset="1" stop-color="#140000"/>
</radialGradient>
<radialGradient id="paint4_radial_3808_258" cx="0" cy="0" r="1" gradientUnits="userSpaceOnUse" gradientTransform="translate(90.0406 69.0986) scale(279.498 279.183)">
<stop offset="0.1" stop-color="#930A0A"/>
<stop offset="0.36" stop-color="#650404"/>
<stop offset="0.56" stop-color="#450000"/>
<stop offset="1" stop-color="#140000"/>
</radialGradient>
<radialGradient id="paint5_radial_3808_258" cx="0" cy="0" r="1" gradientUnits="userSpaceOnUse" gradientTransform="translate(189.285 -21.9357) scale(274.796 273.859)">
<stop stop-color="#FFC94C"/>
<stop offset="0.14" stop-color="#A2621E"/>
<stop offset="0.16" stop-color="#955A1B"/>
<stop offset="0.25" stop-color="#6E4214"/>
<stop offset="0.34" stop-color="#4C2E0E"/>
<stop offset="0.44" stop-color="#301D08"/>
<stop offset="0.55" stop-color="#1A1004"/>
<stop offset="0.66" stop-color="#0B0702"/>
<stop offset="0.8" stop-color="#020100"/>
<stop offset="1"/>
</radialGradient>
<radialGradient id="paint6_radial_3808_258" cx="0" cy="0" r="1" gradientUnits="userSpaceOnUse" gradientTransform="translate(33.2144 -3.13164) scale(261.467 261.131)">
<stop stop-color="#FFC94C"/>
<stop offset="0.14" stop-color="#A2621E"/>
<stop offset="0.16" stop-color="#955A1B"/>
<stop offset="0.25" stop-color="#6E4214"/>
<stop offset="0.34" stop-color="#4C2E0E"/>
<stop offset="0.44" stop-color="#301D08"/>
<stop offset="0.55" stop-color="#1A1004"/>
<stop offset="0.66" stop-color="#0B0702"/>
<stop offset="0.8" stop-color="#020100"/>
<stop offset="1"/>
</radialGradient>
<linearGradient id="paint7_linear_3808_258" x1="56.8741" y1="40.5442" x2="315.377" y2="210.241" gradientUnits="userSpaceOnUse">
<stop stop-color="#EEBE47"/>
<stop offset="0.12" stop-color="#F8DB76"/>
<stop offset="0.21" stop-color="#FFEE96"/>
<stop offset="0.45" stop-color="#A2621E"/>
<stop offset="0.67" stop-color="#EEA54C"/>
<stop offset="1" stop-color="#EEBE47"/>
</linearGradient>
<linearGradient id="paint8_linear_3808_258" x1="49.1344" y1="198.479" x2="210.411" y2="304.534" gradientUnits="userSpaceOnUse">
<stop stop-color="#EEBE47"/>
<stop offset="0.12" stop-color="#F8DB76"/>
<stop offset="0.21" stop-color="#FFEE96"/>
<stop offset="0.45" stop-color="#A2621E"/>
<stop offset="0.67" stop-color="#EEA54C"/>
<stop offset="1" stop-color="#EEBE47"/>
</linearGradient>
<radialGradient id="paint9_radial_3808_258" cx="0" cy="0" r="1" gradientUnits="userSpaceOnUse" gradientTransform="translate(73.2073 162.84) scale(147.755 145.744)">
<stop offset="0.1" stop-color="#930A0A"/>
<stop offset="0.36" stop-color="#650404"/>
<stop offset="0.56" stop-color="#450000"/>
<stop offset="1" stop-color="#140000"/>
</radialGradient>
<linearGradient id="paint10_linear_3808_258" x1="238.776" y1="198.479" x2="400.053" y2="304.534" gradientUnits="userSpaceOnUse">
<stop stop-color="#EEBE47"/>
<stop offset="0.12" stop-color="#F8DB76"/>
<stop offset="0.21" stop-color="#FFEE96"/>
<stop offset="0.45" stop-color="#A2621E"/>
<stop offset="0.67" stop-color="#EEA54C"/>
<stop offset="1" stop-color="#EEBE47"/>
</linearGradient>
<radialGradient id="paint11_radial_3808_258" cx="0" cy="0" r="1" gradientUnits="userSpaceOnUse" gradientTransform="translate(262.848 162.84) scale(147.755 145.744)">
<stop offset="0.1" stop-color="#930A0A"/>
<stop offset="0.36" stop-color="#650404"/>
<stop offset="0.56" stop-color="#450000"/>
<stop offset="1" stop-color="#140000"/>
</radialGradient>
</defs>
</svg>
